{
.appVersion = "3302";
.formatVersion = 3;
classes = (
{
automatic = 1;

glyphs = (
{
glyphname = A;
lastChange = "2024-05-10 13:09:58 +0000";
layers = (
{
anchors = (
{
name = bottom;
pos = (217,0);
},
{
name = ogonek;
pos = (438,0);
},
{
name = top;
pos = (338,719);
}
);
background = {
anchors = (
{
name = bottom;
pos = (217,0);
},
{
name = ogonek;
pos = (438,0);
},
{
name = top;
pos = (338,719);
}
);
shapes = (
{
closed = 1;
nodes = (
(66,59,o),
(68,57,o),
(72,57,cs),
(90,57,o),
(146,102,o),
(151,125,cs),
(187,289,o),
(231,452,o),
(266,615,cs),
(273,649,o),
(164,547,o),
(158,521,cs),
(125,369,o),
(100,217,o),
(67,65,cs)
);
},
{
closed = 1;
nodes = (
(20,150,o),
(-20,38,o),
(-20,7,cs),
(-20,3,o),
(-19,0,o),
(-16,0,cs),
(-15,0,o),
(-13,1,o),
(-11,3,cs),
(7,19,o),
(38,29,o),
(67,29,cs),
(94,29,o),
(120,20,o),
(134,1,cs),
(147,-17,o),
(200,122,o),
(200,160,cs),
(200,164,o),
(199,167,o),
(198,169,cs),
(183,189,o),
(156,199,o),
(126,199,cs),
(95,199,o),
(62,188,o),
(39,167,cs)
);
},
{
closed = 1;
nodes = (
(71,407,o),
(14,237,o),
(24,237,cs),
(111,237,l),
(114,236,o),
(121,243,o),
(125,243,cs),
(295,242,l),
(302,244,o),
(311,238,o),
(317,238,cs),
(320,238,l),
(427,238,ls),
(439,238,o),
(499,408,o),
(487,408,cs),
(380,408,l),
(369,405,o),
(360,394,o),
(349,392,c),
(188,389,l),
(181,392,o),
(179,404,o),
(171,407,c),
(84,407,l),
(84,407,l)
);
},
{
closed = 1;
nodes = (
(376,719,o),
(234,615,o),
(266,615,cs),
(274,615,o),
(276,554,o),
(276,470,cs),
(276,373,o),
(273,246,o),
(273,149,cs),
(274,62,ls),
(276,18,o),
(289,0,o),
(315,0,cs),
(323,0,o),
(332,1,o),
(341,4,cs),
(371,13,o),
(465,110,o),
(465,129,cs),
(465,132,o),
(462,134,o),
(457,132,cs),
(450,130,o),
(443,129,o),
(438,129,cs),
(417,129,o),
(405,143,o),
(404,184,cs),
(403,214,ls),
(403,320,o),
(417,503,o),
(417,617,cs),
(417,678,o),
(413,719,o),
(402,719,cs)
);
},
{
closed = 1;
nodes = (
(225,598,o),
(221,563,o),
(221,537,cs),
(221,522,o),
(223,511,o),
(226,511,cs),
(227,511,l),
(315,580,ls),
(321,585,o),
(325,622,o),
(325,647,cs),
(325,662,o),
(323,672,o),
(320,672,cs),
(319,672,l),
(231,603,l),
(231,603,l)
);
}
);
};
layerId = m01;
shapes = (
{
closed = 1;
nodes = (
(-15,0,o),
(-13,1,o),
(-11,3,cs),
(7,19,o),
(38,29,o),
(67,29,cs),
(94,29,o),
(120,20,o),
(134,1,cs),
(147,-17,o),
(200,122,o),
(200,160,cs),
(200,164,o),
(199,167,o),
(198,169,c),
(190,179,o),
(179,187,o),
(166,192,c),
(178,243,l),
(274,242,l),
(273,149,l),
(274,62,ls),
(276,18,o),
(289,0,o),
(315,0,cs),
(323,0,o),
(332,1,o),
(341,4,cs),
(371,13,o),
(465,110,o),
(465,129,cs),
(465,132,o),
(462,134,o),
(457,132,cs),
(450,130,o),
(443,129,o),
(438,129,cs),
(417,129,o),
(405,143,o),
(404,184,cs),
(403,214,l),
(403,238,l),
(427,238,ls),
(439,238,o),
(499,408,o),
(487,408,cs),
(410,408,l),
(413,483,o),
(417,559,o),
(417,617,cs),
(417,678,o),
(413,719,o),
(402,719,cs),
(390,719,o),
(352,696,o),
(319,672,cs),
(231,603,l),
(230,602,ls),
(200,577,o),
(161,536,o),
(158,521,cs),
(135,407,l),
(84,407,ls),
(71,407,o),
(14,237,o),
(24,237,cs),
(102,237,l),
(94,195,l),
(73,190,o),
(54,181,o),
(39,167,cs),
(20,150,o),
(-20,38,o),
(-20,7,cs),
(-20,3,o),
(-19,0,o),
(-16,0,cs)
);
},
{
closed = 1;
nodes = (
(246,526,l),
(275,549,l),
(276,470,l),
(276,391,l),
(214,389,l)
);
}
);
width = 529;
}
);
unicode = 65;
userData = {
KernOnName = A;
};
},
{
glyphname = Aacute;
lastChange = "2024-05-10 13:09:07 +0000";
layers = (
{
background = {
anchors = (
{
name = bottom;
pos = (207,0);
},
{
name = ogonek;
pos = (428,0);
},
{
name = top;
pos = (418,920);
}
);
shapes = (
{
closed = 1;
nodes = (
(56,59,o),
(58,57,o),
(62,57,cs),
(80,57,o),
(136,102,o),
(141,125,cs),
(177,289,o),
(221,452,o),
(256,615,cs),
(263,649,o),
(154,547,o),
(148,521,cs),
(115,369,o),
(90,217,o),
(57,65,cs)
);
},
{
closed = 1;
nodes = (
(10,150,o),
(-30,38,o),
(-30,7,cs),
(-30,3,o),
(-29,0,o),
(-26,0,cs),
(-25,0,o),
(-23,1,o),
(-21,3,cs),
(-3,19,o),
(28,29,o),
(57,29,cs),
(84,29,o),
(110,20,o),
(124,1,cs),
(137,-17,o),
(190,122,o),
(190,160,cs),
(190,164,o),
(189,167,o),
(188,169,cs),
(173,189,o),
(146,199,o),
(116,199,cs),
(85,199,o),
(52,188,o),
(29,167,cs)
);
},
{
closed = 1;
nodes = (
(61,407,o),
(4,237,o),
(14,237,cs),
(101,237,l),
(104,236,o),
(111,243,o),
(115,243,cs),
(285,242,l),
(292,244,o),
(301,238,o),
(307,238,cs),
(310,238,l),
(417,238,ls),
(429,238,o),
(489,408,o),
(477,408,cs),
(370,408,l),
(359,405,o),
(350,394,o),
(339,392,c),
(178,389,l),
(171,392,o),
(169,404,o),
(161,407,c),
(74,407,l),
(74,407,l)
);
},
{
closed = 1;
nodes = (
(366,719,o),
(224,615,o),
(256,615,cs),
(264,615,o),
(266,554,o),
(266,470,cs),
(266,373,o),
(263,246,o),
(263,149,cs),
(264,62,ls),
(266,18,o),
(279,0,o),
(305,0,cs),
(313,0,o),
(322,1,o),
(331,4,cs),
(361,13,o),
(455,110,o),
(455,129,cs),
(455,132,o),
(452,134,o),
(447,132,cs),
(440,130,o),
(433,129,o),
(428,129,cs),
(407,129,o),
(395,143,o),
(394,184,cs),
(393,214,ls),
(393,320,o),
(407,503,o),
(407,617,cs),
(407,678,o),
(403,719,o),
(392,719,cs)
);
},
{
closed = 1;
nodes = (
(215,598,o),
(211,563,o),
(211,537,cs),
(211,522,o),
(213,511,o),
(216,511,cs),
(217,511,l),
(305,580,ls),
(311,585,o),
(315,622,o),
(315,647,cs),
(315,662,o),
(313,672,o),
(310,672,cs),
(309,672,l),
(221,603,l),
(221,603,l)
);
},
{
closed = 1;
nodes = (
(266,748,o),
(280,743,o),
(301,743,cs),
(329,743,o),
(370,753,o),
(380,768,c),
(380,768,o),
(499,898,o),
(504,905,cs),
(507,909,o),
(508,913,o),
(508,916,cs),
(508,924,o),
(497,928,o),
(480,928,cs),
(436,928,o),
(352,903,o),
(330,873,c),
(330,873,o),
(286,778,o),
(274,760,cs)
);
}
);
};
guides = (
{
pos = (472,907);
},
{
pos = (263,726);
}
);
layerId = m01;
shapes = (
{
alignment = -1;
pos = (-10,0);
ref = A;
},
{
pos = (222,219);
ref = acutecomb;
}
);
width = 514;
}
);
unicode = 193;
},
{
glyphname = Abreve;
lastChange = "2024-05-10 13:09:07 +0000";
layers = (
{
background = {
anchors = (
{
name = bottom;
pos = (217,0);
},
{
name = ogonek;
pos = (438,0);
},
{
name = top;
pos = (408,919);
}
);
shapes = (
{
closed = 1;
nodes = (
(66,59,o),
(68,57,o),
(72,57,cs),
(90,57,o),
(146,102,o),
(151,125,cs),
(187,289,o),
(231,452,o),
(266,615,cs),
(273,649,o),
(164,547,o),
(158,521,cs),
(125,369,o),
(100,217,o),
(67,65,cs)
);
},
{
closed = 1;
nodes = (
(20,150,o),
(-20,38,o),
(-20,7,cs),
(-20,3,o),
(-19,0,o),
(-16,0,cs),
(-15,0,o),
(-13,1,o),
(-11,3,cs),
(7,19,o),
(38,29,o),
(67,29,cs),
(94,29,o),
(120,20,o),
(134,1,cs),
(147,-17,o),
(200,122,o),
(200,160,cs),
(200,164,o),
(199,167,o),
(198,169,cs),
(183,189,o),
(156,199,o),
(126,199,cs),
(95,199,o),
(62,188,o),
(39,167,cs)
);
},
{
closed = 1;
nodes = (
(71,407,o),
(14,237,o),
(24,237,cs),
(111,237,l),
(114,236,o),
(121,243,o),
(125,243,cs),
(295,242,l),
(302,244,o),
(311,238,o),
(317,238,cs),
(320,238,l),
(427,238,ls),
(439,238,o),
(499,408,o),
(487,408,cs),
(380,408,l),
(369,405,o),
(360,394,o),
(349,392,c),
(188,389,l),
(181,392,o),
(179,404,o),
(171,407,c),
(84,407,l),
(84,407,l)
);
},
{
closed = 1;
nodes = (
(376,719,o),
(234,615,o),
(266,615,cs),
(274,615,o),
(276,554,o),
(276,470,cs),
(276,373,o),
(273,246,o),
(273,149,cs),
(274,62,ls),
(276,18,o),
(289,0,o),
(315,0,cs),
(323,0,o),
(332,1,o),
(341,4,cs),
(371,13,o),
(465,110,o),
(465,129,cs),
(465,132,o),
(462,134,o),
(457,132,cs),
(450,130,o),
(443,129,o),
(438,129,cs),
(417,129,o),
(405,143,o),
(404,184,cs),
(403,214,ls),
(403,320,o),
(417,503,o),
(417,617,cs),
(417,678,o),
(413,719,o),
(402,719,cs)
);
},
{
closed = 1;
nodes = (
(225,598,o),
(221,563,o),
(221,537,cs),
(221,522,o),
(223,511,o),
(226,511,cs),
(227,511,l),
(315,580,ls),
(321,585,o),
(325,622,o),
(325,647,cs),
(325,662,o),
(323,672,o),
(320,672,cs),
(319,672,l),
(231,603,l),
(231,603,l)
);
},
{
closed = 1;
nodes = (
(352,919,o),
(348,922,o),
(342,922,cs),
(315,922,o),
(249,850,o),
(253,819,cs),
(261,761,o),
(298,732,o),
(344,732,cs),
(390,732,o),
(445,761,o),
(492,817,cs),
(514,844,o),
(524,874,o),
(524,894,cs),
(524,908,o),
(519,917,o),
(510,917,cs),
(502,917,o),
(490,909,o),
(474,891,cs),
(462,876,o),
(430,851,o),
(401,851,cs),
(379,851,o),
(359,866,o),
(353,911,cs)
);
}
);
};
layerId = m01;
shapes = (
{
ref = A;
},
{
pos = (253,219);
ref = brevecomb;
}
);
width = 529;
}
);
unicode = 258;
},
{
glyphname = Abreveacute;
lastChange = "2024-05-10 13:09:07 +0000";
layers = (
{
background = {
anchors = (
{
name = bottom;
pos = (217,0);
},
{
name = ogonek;
pos = (438,0);
},
{
name = top;
pos = (498,1120);
}
);
shapes = (
{
closed = 1;
nodes = (
(66,59,o),
(68,57,o),
(72,57,cs),
(90,57,o),
(146,102,o),
(151,125,cs),
(187,289,o),
(231,452,o),
(266,615,cs),
(273,649,o),
(164,547,o),
(158,521,cs),
(125,369,o),
(100,217,o),
(67,65,cs)
);
},
{
closed = 1;
nodes = (
(20,150,o),
(-20,38,o),
(-20,7,cs),
(-20,3,o),
(-19,0,o),
(-16,0,cs),
(-15,0,o),
(-13,1,o),
(-11,3,cs),
(7,19,o),
(38,29,o),
(67,29,cs),
(94,29,o),
(120,20,o),
(134,1,cs),
(147,-17,o),
(200,122,o),
(200,160,cs),
(200,164,o),
(199,167,o),
(198,169,cs),
(183,189,o),
(156,199,o),
(126,199,cs),
(95,199,o),
(62,188,o),
(39,167,cs)
);
},
{
closed = 1;
nodes = (
(71,407,o),
(14,237,o),
(24,237,cs),
(111,237,l),
(114,236,o),
(121,243,o),
(125,243,cs),
(295,242,l),
(302,244,o),
(311,238,o),
(317,238,cs),
(320,238,l),
(427,238,ls),
(439,238,o),
(499,408,o),
(487,408,cs),
(380,408,l),
(369,405,o),
(360,394,o),
(349,392,c),
(188,389,l),
(181,392,o),
(179,404,o),
(171,407,c),
(84,407,l),
(84,407,l)
);
},
{
closed = 1;
nodes = (
(376,719,o),
(234,615,o),
(266,615,cs),
(274,615,o),
(276,554,o),
(276,470,cs),
(276,373,o),
(273,246,o),
(273,149,cs),
(274,62,ls),
(276,18,o),
(289,0,o),
(315,0,cs),
(323,0,o),
(332,1,o),
(341,4,cs),
(371,13,o),
(465,110,o),
(465,129,cs),
(465,132,o),
(462,134,o),
(457,132,cs),
(450,130,o),
(443,129,o),
(438,129,cs),
(417,129,o),
(405,143,o),
(404,184,cs),
(403,214,ls),
(403,320,o),
(417,503,o),
(417,617,cs),
(417,678,o),
(413,719,o),
(402,719,cs)
);
},
{
closed = 1;
nodes = (
(225,598,o),
(221,563,o),
(221,537,cs),
(221,522,o),
(223,511,o),
(226,511,cs),
(227,511,l),
(315,580,ls),
(321,585,o),
(325,622,o),
(325,647,cs),
(325,662,o),
(323,672,o),
(320,672,cs),
(319,672,l),
(231,603,l),
(231,603,l)
);
},
{
closed = 1;
nodes = (
(359,900,o),
(355,903,o),
(350,903,cs),
(325,903,o),
(266,838,o),
(270,810,cs),
(277,758,o),
(310,732,o),
(351,732,cs),
(393,732,o),
(442,758,o),
(485,809,cs),
(504,833,o),
(513,860,o),
(513,878,cs),
(513,890,o),
(509,899,o),
(501,899,cs),
(494,899,o),
(483,891,o),
(468,875,cs),
(458,862,o),
(429,839,o),
(403,839,cs),
(383,839,o),
(365,853,o),
(360,893,cs)
);
},
{
closed = 1;
nodes = (
(353,917,o),
(366,913,o),
(385,913,cs),
(410,913,o),
(447,922,o),
(456,935,c),
(456,935,o),
(563,1052,o),
(567,1059,c),
(570,1062,o),
(571,1066,o),
(571,1069,cs),
(571,1076,o),
(561,1079,o),
(546,1079,cs),
(506,1079,o),
(431,1057,o),
(411,1030,c),
(411,1030,o),
(371,944,o),
(360,928,cs)
);
}
);
};
guides = (
{
pos = (510,1120);
},
{
pos = (287,936);
}
);
layerId = m01;
shapes = (
{
ref = A;
},
{
pos = (440,219);
ref = brevecomb_acutecomb;
}
);
width = 529;
}
);
unicode = 7854;
},
{
glyphname = Abrevedotbelow;
lastChange = "2024-05-10 13:09:07 +0000";
layers = (
{
background = {
anchors = (
{
name = bottom;
pos = (217,0);
},
{
name = ogonek;
pos = (438,0);
},
{
name = top;
pos = (408,919);
}
);
shapes = (
{
closed = 1;
nodes = (
(66,59,o),
(68,57,o),
(72,57,cs),
(90,57,o),
(146,102,o),
(151,125,cs),
(187,289,o),
(231,452,o),
(266,615,cs),
(273,649,o),
(164,547,o),
(158,521,cs),
(125,369,o),
(100,217,o),
(67,65,cs)
);
},
{
closed = 1;
nodes = (
(20,150,o),
(-20,38,o),
(-20,7,cs),
(-20,3,o),
(-19,0,o),
(-16,0,cs),
(-15,0,o),
(-13,1,o),
(-11,3,cs),
(7,19,o),
(38,29,o),
(67,29,cs),
(94,29,o),
(120,20,o),
(134,1,cs),
(147,-17,o),
(200,122,o),
(200,160,cs),
(200,164,o),
(199,167,o),
(198,169,cs),
(183,189,o),
(156,199,o),
(126,199,cs),
(95,199,o),
(62,188,o),
(39,167,cs)
);
},
{
closed = 1;
nodes = (
(71,407,o),
(14,237,o),
(24,237,cs),
(111,237,l),
(114,236,o),
(121,243,o),
(125,243,cs),
(295,242,l),
(302,244,o),
(311,238,o),
(317,238,cs),
(320,238,l),
(427,238,ls),
(439,238,o),
(499,408,o),
(487,408,cs),
(380,408,l),
(369,405,o),
(360,394,o),
(349,392,c),
(188,389,l),
(181,392,o),
(179,404,o),
(171,407,c),
(84,407,l),
(84,407,l)
);
},
{
closed = 1;
nodes = (
(376,719,o),
(234,615,o),
(266,615,cs),
(274,615,o),
(276,554,o),
(276,470,cs),
(276,373,o),
(273,246,o),
(273,149,cs),
(274,62,ls),
(276,18,o),
(289,0,o),
(315,0,cs),
(323,0,o),
(332,1,o),
(341,4,cs),
(371,13,o),
(465,110,o),
(465,129,cs),
(465,132,o),
(462,134,o),
(457,132,cs),
(450,130,o),
(443,129,o),
(438,129,cs),
(417,129,o),
(405,143,o),
(404,184,cs),
(403,214,ls),
(403,320,o),
(417,503,o),
(417,617,cs),
(417,678,o),
(413,719,o),
(402,719,cs)
);
},
{
closed = 1;
nodes = (
(225,598,o),
(221,563,o),
(221,537,cs),
(221,522,o),
(223,511,o),
(226,511,cs),
(227,511,l),
(315,580,ls),
(321,585,o),
(325,622,o),
(325,647,cs),
(325,662,o),
(323,672,o),
(320,672,cs),
(319,672,l),
(231,603,l),
(231,603,l)
);
},
{
closed = 1;
nodes = (
(210,-43,o),
(120,-132,o),
(129,-142,cs),
(198,-218,ls),
(206,-228,o),
(297,-138,o),
(288,-128,cs),
(219,-53,l),
(219,-53,l)
);
},
{
closed = 1;
nodes = (
(352,919,o),
(348,922,o),
(342,922,cs),
(315,922,o),
(249,850,o),
(253,819,cs),
(261,761,o),
(298,732,o),
(344,732,cs),
(390,732,o),
(445,761,o),
(492,817,cs),
(514,844,o),
(524,874,o),
(524,894,cs),
(524,908,o),
(519,917,o),
(510,917,cs),
(502,917,o),
(490,909,o),
(474,891,cs),
(462,876,o),
(430,851,o),
(401,851,cs),
(379,851,o),
(359,866,o),
(353,911,cs)
);
}
);
};
layerId = m01;
shapes = (
{
ref = A;
},
{
pos = (102,0);
ref = dotbelowcomb;
},
{
pos = (253,219);
ref = brevecomb;
}
);
width = 529;
}
);
unicode = 7862;
},
{
glyphname = Abrevegrave;
lastChange = "2024-05-10 13:09:07 +0000";
layers = (
{
background = {
anchors = (
{
name = bottom;
pos = (217,0);
},
{
name = ogonek;
pos = (438,0);
},
{
name = top;
pos = (347,1079);
}
);
shapes = (
{
closed = 1;
nodes = (
(66,59,o),
(68,57,o),
(72,57,cs),
(90,57,o),
(146,102,o),
(151,125,cs),
(187,289,o),
(231,452,o),
(266,615,cs),
(273,649,o),
(164,547,o),
(158,521,cs),
(125,369,o),
(100,217,o),
(67,65,cs)
);
},
{
closed = 1;
nodes = (
(20,150,o),
(-20,38,o),
(-20,7,cs),
(-20,3,o),
(-19,0,o),
(-16,0,cs),
(-15,0,o),
(-13,1,o),
(-11,3,cs),
(7,19,o),
(38,29,o),
(67,29,cs),
(94,29,o),
(120,20,o),
(134,1,cs),
(147,-17,o),
(200,122,o),
(200,160,cs),
(200,164,o),
(199,167,o),
(198,169,cs),
(183,189,o),
(156,199,o),
(126,199,cs),
(95,199,o),
(62,188,o),
(39,167,cs)
);
},
{
closed = 1;
nodes = (
(71,407,o),
(14,237,o),
(24,237,cs),
(111,237,l),
(114,236,o),
(121,243,o),
(125,243,cs),
(295,242,l),
(302,244,o),
(311,238,o),
(317,238,cs),
(320,238,l),
(427,238,ls),
(439,238,o),
(499,408,o),
(487,408,cs),
(380,408,l),
(369,405,o),
(360,394,o),
(349,392,c),
(188,389,l),
(181,392,o),
(179,404,o),
(171,407,c),
(84,407,l),
(84,407,l)
);
},
{
closed = 1;
nodes = (
(376,719,o),
(234,615,o),
(266,615,cs),
(274,615,o),
(276,554,o),
(276,470,cs),
(276,373,o),
(273,246,o),
(273,149,cs),
(274,62,ls),
(276,18,o),
(289,0,o),
(315,0,cs),
(323,0,o),
(332,1,o),
(341,4,cs),
(371,13,o),
(465,110,o),
(465,129,cs),
(465,132,o),
(462,134,o),
(457,132,cs),
(450,130,o),
(443,129,o),
(438,129,cs),
(417,129,o),
(405,143,o),
(404,184,cs),
(403,214,ls),
(403,320,o),
(417,503,o),
(417,617,cs),
(417,678,o),
(413,719,o),
(402,719,cs)
);
},
{
closed = 1;
nodes = (
(225,598,o),
(221,563,o),
(221,537,cs),
(221,522,o),
(223,511,o),
(226,511,cs),
(227,511,l),
(315,580,ls),
(321,585,o),
(325,622,o),
(325,647,cs),
(325,662,o),
(323,672,o),
(320,672,cs),
(319,672,l),
(231,603,l),
(231,603,l)
);
},
{
closed = 1;
nodes = (
(351,899,o),
(347,902,o),
(342,902,cs),
(317,902,o),
(258,837,o),
(261,809,cs),
(269,757,o),
(302,731,o),
(343,731,cs),
(385,731,o),
(434,757,o),
(477,808,cs),
(496,832,o),
(505,859,o),
(505,877,cs),
(505,889,o),
(501,898,o),
(493,898,cs),
(486,898,o),
(475,890,o),
(460,874,cs),
(450,861,o),
(421,838,o),
(395,838,cs),
(375,838,o),
(357,852,o),
(351,892,c)
);
},
{
closed = 1;
nodes = (
(405,943,o),
(365,1029,o),
(365,1029,c),
(345,1056,o),
(270,1078,o),
(230,1078,cs),
(215,1078,o),
(205,1075,o),
(205,1068,cs),
(205,1065,o),
(206,1061,o),
(208,1058,cs),
(213,1051,o),
(320,934,o),
(320,934,c),
(329,921,o),
(366,912,o),
(391,912,cs),
(410,912,o),
(423,916,o),
(415,927,cs)
);
}
);
};
layerId = m01;
shapes = (
{
ref = A;
},
{
pos = (423,218);
ref = brevecomb_gravecomb;
}
);
width = 529;
}
);
unicode = 7856;
},
{
glyphname = Abrevehookabove;
lastChange = "2024-05-10 13:09:07 +0000";
layers = (
{
background = {
anchors = (
{
name = bottom;
pos = (217,0);
},
{
name = ogonek;
pos = (438,0);
},
{
name = top;
pos = (408,1117);
}
);
shapes = (
{
closed = 1;
nodes = (
(66,59,o),
(68,57,o),
(72,57,cs),
(90,57,o),
(146,102,o),
(151,125,cs),
(187,289,o),
(231,452,o),
(266,615,cs),
(273,649,o),
(164,547,o),
(158,521,cs),
(125,369,o),
(100,217,o),
(67,65,cs)
);
},
{
closed = 1;
nodes = (
(20,150,o),
(-20,38,o),
(-20,7,cs),
(-20,3,o),
(-19,0,o),
(-16,0,cs),
(-15,0,o),
(-13,1,o),
(-11,3,cs),
(7,19,o),
(38,29,o),
(67,29,cs),
(94,29,o),
(120,20,o),
(134,1,cs),
(147,-17,o),
(200,122,o),
(200,160,cs),
(200,164,o),
(199,167,o),
(198,169,cs),
(183,189,o),
(156,199,o),
(126,199,cs),
(95,199,o),
(62,188,o),
(39,167,cs)
);
},
{
closed = 1;
nodes = (
(71,407,o),
(14,237,o),
(24,237,cs),
(111,237,l),
(114,236,o),
(121,243,o),
(125,243,cs),
(295,242,l),
(302,244,o),
(311,238,o),
(317,238,cs),
(320,238,l),
(427,238,ls),
(439,238,o),
(499,408,o),
(487,408,cs),
(380,408,l),
(369,405,o),
(360,394,o),
(349,392,c),
(188,389,l),
(181,392,o),
(179,404,o),
(171,407,c),
(84,407,l),
(84,407,l)
);
},
{
closed = 1;
nodes = (
(376,719,o),
(234,615,o),
(266,615,cs),
(274,615,o),
(276,554,o),
(276,470,cs),
(276,373,o),
(273,246,o),
(273,149,cs),
(274,62,ls),
(276,18,o),
(289,0,o),
(315,0,cs),
(323,0,o),
(332,1,o),
(341,4,cs),
(371,13,o),
(465,110,o),
(465,129,cs),
(465,132,o),
(462,134,o),
(457,132,cs),
(450,130,o),
(443,129,o),
(438,129,cs),
(417,129,o),
(405,143,o),
(404,184,cs),
(403,214,ls),
(403,320,o),
(417,503,o),
(417,617,cs),
(417,678,o),
(413,719,o),
(402,719,cs)
);
},
{
closed = 1;
nodes = (
(225,598,o),
(221,563,o),
(221,537,cs),
(221,522,o),
(223,511,o),
(226,511,cs),
(227,511,l),
(315,580,ls),
(321,585,o),
(325,622,o),
(325,647,cs),
(325,662,o),
(323,672,o),
(320,672,cs),
(319,672,l),
(231,603,l),
(231,603,l)
);
},
{
closed = 1;
nodes = (
(355,900,o),
(352,903,o),
(346,903,cs),
(322,903,o),
(263,838,o),
(266,810,cs),
(274,758,o),
(307,732,o),
(348,732,cs),
(390,732,o),
(439,758,o),
(481,809,cs),
(501,833,o),
(510,860,o),
(510,878,cs),
(510,890,o),
(506,899,o),
(498,899,cs),
(490,899,o),
(480,891,o),
(465,875,cs),
(454,862,o),
(426,839,o),
(400,839,cs),
(380,839,o),
(362,853,o),
(356,893,cs)
);
},
{
closed = 1;
nodes = (
(386,926,o),
(384,922,o),
(384,919,cs),
(384,916,o),
(388,914,o),
(393,914,cs),
(410,914,o),
(446,928,o),
(465,950,cs),
(486,973,o),
(494,994,o),
(494,1012,cs),
(494,1052,o),
(452,1077,o),
(416,1077,cs),
(410,1077,o),
(406,1076,o),
(401,1075,cs),
(381,1071,o),
(339,998,o),
(339,973,cs),
(339,968,o),
(341,964,o),
(346,964,c),
(346,964,o),
(348,965,o),
(349,965,cs),
(364,968,o),
(376,970,o),
(387,970,cs),
(400,970,o),
(408,967,o),
(408,959,cs),
(408,953,o),
(402,944,o),
(391,932,cs)
);
}
);
};
layerId = m01;
shapes = (
{
ref = A;
},
{
pos = (386,219);
ref = brevecomb_hookabovecomb;
}
);
width = 529;
}
);
unicode = 7858;
},
{
glyphname = Abrevetilde;
lastChange = "2024-05-10 13:09:07 +0000";
layers = (
{
background = {
anchors = (
{
name = bottom;
pos = (217,0);
},
{
name = ogonek;
pos = (438,0);
},
{
name = top;
pos = (464,1121);
}
);
shapes = (
{
closed = 1;
nodes = (
(66,59,o),
(68,57,o),
(72,57,cs),
(90,57,o),
(146,102,o),
(151,125,cs),
(187,289,o),
(231,452,o),
(266,615,cs),
(273,649,o),
(164,547,o),
(158,521,cs),
(125,369,o),
(100,217,o),
(67,65,cs)
);
},
{
closed = 1;
nodes = (
(20,150,o),
(-20,38,o),
(-20,7,cs),
(-20,3,o),
(-19,0,o),
(-16,0,cs),
(-15,0,o),
(-13,1,o),
(-11,3,cs),
(7,19,o),
(38,29,o),
(67,29,cs),
(94,29,o),
(120,20,o),
(134,1,cs),
(147,-17,o),
(200,122,o),
(200,160,cs),
(200,164,o),
(199,167,o),
(198,169,cs),
(183,189,o),
(156,199,o),
(126,199,cs),
(95,199,o),
(62,188,o),
(39,167,cs)
);
},
{
closed = 1;
nodes = (
(71,407,o),
(14,237,o),
(24,237,cs),
(111,237,l),
(114,236,o),
(121,243,o),
(125,243,cs),
(295,242,l),
(302,244,o),
(311,238,o),
(317,238,cs),
(320,238,l),
(427,238,ls),
(439,238,o),
(499,408,o),
(487,408,cs),
(380,408,l),
(369,405,o),
(360,394,o),
(349,392,c),
(188,389,l),
(181,392,o),
(179,404,o),
(171,407,c),
(84,407,l),
(84,407,l)
);
},
{
closed = 1;
nodes = (
(376,719,o),
(234,615,o),
(266,615,cs),
(274,615,o),
(276,554,o),
(276,470,cs),
(276,373,o),
(273,246,o),
(273,149,cs),
(274,62,ls),
(276,18,o),
(289,0,o),
(315,0,cs),
(323,0,o),
(332,1,o),
(341,4,cs),
(371,13,o),
(465,110,o),
(465,129,cs),
(465,132,o),
(462,134,o),
(457,132,cs),
(450,130,o),
(443,129,o),
(438,129,cs),
(417,129,o),
(405,143,o),
(404,184,cs),
(403,214,ls),
(403,320,o),
(417,503,o),
(417,617,cs),
(417,678,o),
(413,719,o),
(402,719,cs)
);
},
{
closed = 1;
nodes = (
(225,598,o),
(221,563,o),
(221,537,cs),
(221,522,o),
(223,511,o),
(226,511,cs),
(227,511,l),
(315,580,ls),
(321,585,o),
(325,622,o),
(325,647,cs),
(325,662,o),
(323,672,o),
(320,672,cs),
(319,672,l),
(231,603,l),
(231,603,l)
);
},
{
closed = 1;
nodes = (
(357,900,o),
(353,903,o),
(348,903,cs),
(324,903,o),
(264,838,o),
(268,810,cs),
(275,758,o),
(308,732,o),
(350,732,cs),
(391,732,o),
(441,758,o),
(483,809,cs),
(503,833,o),
(512,860,o),
(512,878,cs),
(512,890,o),
(507,899,o),
(499,899,cs),
(492,899,o),
(481,891,o),
(467,875,cs),
(456,862,o),
(427,839,o),
(401,839,cs),
(381,839,o),
(363,853,o),
(358,893,cs)
);
},
{
closed = 1;
nodes = (
(521,971,o),
(536,1015,o),
(536,1035,cs),
(536,1042,o),
(534,1046,o),
(531,1046,cs),
(528,1046,o),
(523,1044,o),
(518,1038,cs),
(507,1026,o),
(495,1018,o),
(482,1018,cs),
(478,1018,o),
(475,1018,o),
(472,1019,cs),
(454,1025,o),
(440,1061,o),
(414,1070,cs),
(410,1072,o),
(405,1073,o),
(399,1073,cs),
(383,1073,o),
(360,1065,o),
(330,1033,cs),
(311,1013,o),
(297,971,o),
(297,951,cs),
(297,944,o),
(298,939,o),
(302,939,cs),
(305,939,o),
(309,942,o),
(315,948,cs),
(335,969,o),
(346,975,o),
(355,975,cs),
(359,975,o),
(361,974,o),
(364,973,cs),
(381,967,o),
(396,930,o),
(422,922,cs),
(427,920,o),
(433,919,o),
(439,919,cs),
(459,919,o),
(480,929,o),
(502,952,cs)
);
}
);
};
guides = (
{
pos = (297,728);
}
);
layerId = m01;
shapes = (
{
ref = A;
},
{
pos = (386,219);
ref = brevecomb_tildecomb;
}
);
width = 529;
}
);
unicode = 7860;
},
{
glyphname = Acaron;
lastChange = "2024-05-10 13:09:07 +0000";
layers = (
{
background = {
anchors = (
{
name = bottom;
pos = (217,0);
},
{
name = ogonek;
pos = (438,0);
},
{
name = top;
pos = (378,950);
}
);
shapes = (
{
closed = 1;
nodes = (
(66,59,o),
(68,57,o),
(72,57,cs),
(90,57,o),
(146,102,o),
(151,125,cs),
(187,289,o),
(231,452,o),
(266,615,cs),
(273,649,o),
(164,547,o),
(158,521,cs),
(125,369,o),
(100,217,o),
(67,65,cs)
);
},
{
closed = 1;
nodes = (
(20,150,o),
(-20,38,o),
(-20,7,cs),
(-20,3,o),
(-19,0,o),
(-16,0,cs),
(-15,0,o),
(-13,1,o),
(-11,3,cs),
(7,19,o),
(38,29,o),
(67,29,cs),
(94,29,o),
(120,20,o),
(134,1,cs),
(147,-17,o),
(200,122,o),
(200,160,cs),
(200,164,o),
(199,167,o),
(198,169,cs),
(183,189,o),
(156,199,o),
(126,199,cs),
(95,199,o),
(62,188,o),
(39,167,cs)
);
},
{
closed = 1;
nodes = (
(71,407,o),
(14,237,o),
(24,237,cs),
(111,237,l),
(114,236,o),
(121,243,o),
(125,243,cs),
(295,242,l),
(302,244,o),
(311,238,o),
(317,238,cs),
(320,238,l),
(427,238,ls),
(439,238,o),
(499,408,o),
(487,408,cs),
(380,408,l),
(369,405,o),
(360,394,o),
(349,392,c),
(188,389,l),
(181,392,o),
(179,404,o),
(171,407,c),
(84,407,l),
(84,407,l)
);
},
{
closed = 1;
nodes = (
(376,719,o),
(234,615,o),
(266,615,cs),
(274,615,o),
(276,554,o),
(276,470,cs),
(276,373,o),
(273,246,o),
(273,149,cs),
(274,62,ls),
(276,18,o),
(289,0,o),
(315,0,cs),
(323,0,o),
(332,1,o),
(341,4,cs),
(371,13,o),
(465,110,o),
(465,129,cs),
(465,132,o),
(462,134,o),
(457,132,cs),
(450,130,o),
(443,129,o),
(438,129,cs),
(417,129,o),
(405,143,o),
(404,184,cs),
(403,214,ls),
(403,320,o),
(417,503,o),
(417,617,cs),
(417,678,o),
(413,719,o),
(402,719,cs)
);
},
{
closed = 1;
nodes = (
(225,598,o),
(221,563,o),
(221,537,cs),
(221,522,o),
(223,511,o),
(226,511,cs),
(227,511,l),
(315,580,ls),
(321,585,o),
(325,622,o),
(325,647,cs),
(325,662,o),
(323,672,o),
(320,672,cs),
(319,672,l),
(231,603,l),
(231,603,l)
);
},
{
closed = 1;
nodes = (
(312,925,o),
(307,927,o),
(301,927,cs),
(268,927,o),
(203,882,o),
(203,856,cs),
(203,852,o),
(204,849,o),
(206,846,c),
(302,744,l),
(306,741,o),
(311,739,o),
(317,739,cs),
(350,739,o),
(415,784,o),
(415,810,cs),
(415,814,o),
(414,817,o),
(412,820,c),
(316,922,l),
(316,922,l)
);
},
{
closed = 1;
nodes = (
(339,780,o),
(337,775,o),
(337,770,cs),
(337,764,o),
(343,761,o),
(351,761,cs),
(367,761,o),
(392,771,o),
(407,790,cs),
(492,898,ls),
(498,905,o),
(500,911,o),
(500,916,cs),
(500,923,o),
(494,926,o),
(485,926,cs),
(470,926,o),
(445,915,o),
(430,896,cs),
(345,788,l),
(345,788,l)
);
}
);
};
guides = (
{
pos = (510,910);
},
{
pos = (287,726);
}
);
layerId = m01;
shapes = (
{
ref = A;
},
{
pos = (203,219);
ref = caroncomb;
}
);
width = 529;
}
);
unicode = 461;
},
{
glyphname = Acircumflex;
lastChange = "2024-05-10 13:09:07 +0000";
layers = (
{
background = {
anchors = (
{
name = bottom;
pos = (217,0);
},
{
name = left;
pos = (257,822);
},
{
name = ogonek;
pos = (438,0);
},
{
name = right;
pos = (518,851);
},
{
name = top;
pos = (365,919);
}
);
shapes = (
{
closed = 1;
nodes = (
(66,59,o),
(68,57,o),
(72,57,cs),
(90,57,o),
(146,102,o),
(151,125,cs),
(187,289,o),
(231,452,o),
(266,615,cs),
(273,649,o),
(164,547,o),
(158,521,cs),
(125,369,o),
(100,217,o),
(67,65,cs)
);
},
{
closed = 1;
nodes = (
(20,150,o),
(-20,38,o),
(-20,7,cs),
(-20,3,o),
(-19,0,o),
(-16,0,cs),
(-15,0,o),
(-13,1,o),
(-11,3,cs),
(7,19,o),
(38,29,o),
(67,29,cs),
(94,29,o),
(120,20,o),
(134,1,cs),
(147,-17,o),
(200,122,o),
(200,160,cs),
(200,164,o),
(199,167,o),
(198,169,cs),
(183,189,o),
(156,199,o),
(126,199,cs),
(95,199,o),
(62,188,o),
(39,167,cs)
);
},
{
closed = 1;
nodes = (
(71,407,o),
(14,237,o),
(24,237,cs),
(111,237,l),
(114,236,o),
(121,243,o),
(125,243,cs),
(295,242,l),
(302,244,o),
(311,238,o),
(317,238,cs),
(320,238,l),
(427,238,ls),
(439,238,o),
(499,408,o),
(487,408,cs),
(380,408,l),
(369,405,o),
(360,394,o),
(349,392,c),
(188,389,l),
(181,392,o),
(179,404,o),
(171,407,c),
(84,407,l),
(84,407,l)
);
},
{
closed = 1;
nodes = (
(376,719,o),
(234,615,o),
(266,615,cs),
(274,615,o),
(276,554,o),
(276,470,cs),
(276,373,o),
(273,246,o),
(273,149,cs),
(274,62,ls),
(276,18,o),
(289,0,o),
(315,0,cs),
(323,0,o),
(332,1,o),
(341,4,cs),
(371,13,o),
(465,110,o),
(465,129,cs),
(465,132,o),
(462,134,o),
(457,132,cs),
(450,130,o),
(443,129,o),
(438,129,cs),
(417,129,o),
(405,143,o),
(404,184,cs),
(403,214,ls),
(403,320,o),
(417,503,o),
(417,617,cs),
(417,678,o),
(413,719,o),
(402,719,cs)
);
},
{
closed = 1;
nodes = (
(225,598,o),
(221,563,o),
(221,537,cs),
(221,522,o),
(223,511,o),
(226,511,cs),
(227,511,l),
(315,580,ls),
(321,585,o),
(325,622,o),
(325,647,cs),
(325,662,o),
(323,672,o),
(320,672,cs),
(319,672,l),
(231,603,l),
(231,603,l)
);
},
{
closed = 1;
nodes = (
(394,727,o),
(399,725,o),
(405,725,cs),
(438,725,o),
(503,770,o),
(503,796,cs),
(503,800,o),
(502,803,o),
(500,806,c),
(404,908,l),
(400,911,o),
(395,913,o),
(389,913,cs),
(356,913,o),
(291,868,o),
(291,842,cs),
(291,838,o),
(292,835,o),
(294,832,c),
(390,730,l),
(390,730,l)
);
},
{
closed = 1;
nodes = (
(367,872,o),
(369,877,o),
(369,882,cs),
(369,888,o),
(363,891,o),
(355,891,cs),
(339,891,o),
(314,881,o),
(299,862,cs),
(214,754,ls),
(208,747,o),
(206,741,o),
(206,736,cs),
(206,729,o),
(212,726,o),
(221,726,cs),
(236,726,o),
(261,737,o),
(276,756,cs),
(361,864,l),
(361,864,l)
);
}
);
};
layerId = m01;
shapes = (
{
ref = A;
},
{
pos = (156,219);
ref = circumflexcomb;
}
);
width = 529;
}
);
unicode = 194;
},
{
glyphname = Acircumflexacute;
lastChange = "2024-05-10 13:09:07 +0000";
layers = (
{
background = {
anchors = (
{
name = bottom;
pos = (217,0);
},
{
name = left;
pos = (263,822);
},
{
name = ogonek;
pos = (438,0);
},
{
name = right;
pos = (524,851);
},
{
name = top;
pos = (245,971);
}
);
shapes = (
{
closed = 1;
nodes = (
(66,59,o),
(68,57,o),
(72,57,cs),
(90,57,o),
(146,102,o),
(151,125,cs),
(187,289,o),
(231,452,o),
(266,615,cs),
(273,649,o),
(164,547,o),
(158,521,cs),
(125,369,o),
(100,217,o),
(67,65,cs)
);
},
{
closed = 1;
nodes = (
(20,150,o),
(-20,38,o),
(-20,7,cs),
(-20,3,o),
(-19,0,o),
(-16,0,cs),
(-15,0,o),
(-13,1,o),
(-11,3,cs),
(7,19,o),
(38,29,o),
(67,29,cs),
(94,29,o),
(120,20,o),
(134,1,cs),
(147,-17,o),
(200,122,o),
(200,160,cs),
(200,164,o),
(199,167,o),
(198,169,cs),
(183,189,o),
(156,199,o),
(126,199,cs),
(95,199,o),
(62,188,o),
(39,167,cs)
);
},
{
closed = 1;
nodes = (
(71,407,o),
(14,237,o),
(24,237,cs),
(111,237,l),
(114,236,o),
(121,243,o),
(125,243,cs),
(295,242,l),
(302,244,o),
(311,238,o),
(317,238,cs),
(320,238,l),
(427,238,ls),
(439,238,o),
(499,408,o),
(487,408,cs),
(380,408,l),
(369,405,o),
(360,394,o),
(349,392,c),
(188,389,l),
(181,392,o),
(179,404,o),
(171,407,c),
(84,407,l),
(84,407,l)
);
},
{
closed = 1;
nodes = (
(376,719,o),
(234,615,o),
(266,615,cs),
(274,615,o),
(276,554,o),
(276,470,cs),
(276,373,o),
(273,246,o),
(273,149,cs),
(274,62,ls),
(276,18,o),
(289,0,o),
(315,0,cs),
(323,0,o),
(332,1,o),
(341,4,cs),
(371,13,o),
(465,110,o),
(465,129,cs),
(465,132,o),
(462,134,o),
(457,132,cs),
(450,130,o),
(443,129,o),
(438,129,cs),
(417,129,o),
(405,143,o),
(404,184,cs),
(403,214,ls),
(403,320,o),
(417,503,o),
(417,617,cs),
(417,678,o),
(413,719,o),
(402,719,cs)
);
},
{
closed = 1;
nodes = (
(225,598,o),
(221,563,o),
(221,537,cs),
(221,522,o),
(223,511,o),
(226,511,cs),
(227,511,l),
(315,580,ls),
(321,585,o),
(325,622,o),
(325,647,cs),
(325,662,o),
(323,672,o),
(320,672,cs),
(319,672,l),
(231,603,l),
(231,603,l)
);
},
{
closed = 1;
nodes = (
(396,735,o),
(401,733,o),
(406,733,cs),
(436,733,o),
(494,774,o),
(494,797,cs),
(494,801,o),
(493,803,o),
(491,806,c),
(405,898,l),
(401,900,o),
(397,902,o),
(392,902,cs),
(362,902,o),
(303,862,o),
(303,838,cs),
(303,835,o),
(304,832,o),
(306,829,c),
(392,738,l),
(392,738,l)
);
},
{
closed = 1;
nodes = (
(372,865,o),
(374,870,o),
(374,874,cs),
(374,880,o),
(368,882,o),
(361,882,cs),
(347,882,o),
(324,873,o),
(311,856,cs),
(234,759,ls),
(229,753,o),
(227,747,o),
(227,743,cs),
(227,737,o),
(232,734,o),
(240,734,cs),
(254,734,o),
(276,744,o),
(290,761,cs),
(366,858,l),
(366,858,l)
);
},
{
closed = 1;
nodes = (
(105,789,o),
(118,784,o),
(137,784,cs),
(162,784,o),
(199,793,o),
(208,807,c),
(208,807,o),
(315,924,o),
(319,930,c),
(322,933,o),
(323,937,o),
(323,940,cs),
(323,947,o),
(313,951,o),
(298,951,cs),
(258,951,o),
(183,928,o),
(163,901,c),
(163,901,o),
(123,816,o),
(112,799,cs)
);
}
);
};
guides = (
{
pos = (314,994);
},
{
pos = (114,819);
}
);
layerId = m01;
shapes = (
{
ref = A;
},
{
pos = (172,219);
ref = circumflexcomb_acutecomb;
}
);
width = 529;
}
);
unicode = 7844;
},
{
glyphname = Acircumflexdotbelow;
lastChange = "2024-05-10 13:09:07 +0000";
layers = (
{
background = {
anchors = (
{
name = bottom;
pos = (217,0);
},
{
name = left;
pos = (257,822);
},
{
name = ogonek;
pos = (438,0);
},
{
name = right;
pos = (518,851);
},
{
name = top;
pos = (365,919);
}
);
shapes = (
{
closed = 1;
nodes = (
(66,59,o),
(68,57,o),
(72,57,cs),
(90,57,o),
(146,102,o),
(151,125,cs),
(187,289,o),
(231,452,o),
(266,615,cs),
(273,649,o),
(164,547,o),
(158,521,cs),
(125,369,o),
(100,217,o),
(67,65,cs)
);
},
{
closed = 1;
nodes = (
(20,150,o),
(-20,38,o),
(-20,7,cs),
(-20,3,o),
(-19,0,o),
(-16,0,cs),
(-15,0,o),
(-13,1,o),
(-11,3,cs),
(7,19,o),
(38,29,o),
(67,29,cs),
(94,29,o),
(120,20,o),
(134,1,cs),
(147,-17,o),
(200,122,o),
(200,160,cs),
(200,164,o),
(199,167,o),
(198,169,cs),
(183,189,o),
(156,199,o),
(126,199,cs),
(95,199,o),
(62,188,o),
(39,167,cs)
);
},
{
closed = 1;
nodes = (
(71,407,o),
(14,237,o),
(24,237,cs),
(111,237,l),
(114,236,o),
(121,243,o),
(125,243,cs),
(295,242,l),
(302,244,o),
(311,238,o),
(317,238,cs),
(320,238,l),
(427,238,ls),
(439,238,o),
(499,408,o),
(487,408,cs),
(380,408,l),
(369,405,o),
(360,394,o),
(349,392,c),
(188,389,l),
(181,392,o),
(179,404,o),
(171,407,c),
(84,407,l),
(84,407,l)
);
},
{
closed = 1;
nodes = (
(376,719,o),
(234,615,o),
(266,615,cs),
(274,615,o),
(276,554,o),
(276,470,cs),
(276,373,o),
(273,246,o),
(273,149,cs),
(274,62,ls),
(276,18,o),
(289,0,o),
(315,0,cs),
(323,0,o),
(332,1,o),
(341,4,cs),
(371,13,o),
(465,110,o),
(465,129,cs),
(465,132,o),
(462,134,o),
(457,132,cs),
(450,130,o),
(443,129,o),
(438,129,cs),
(417,129,o),
(405,143,o),
(404,184,cs),
(403,214,ls),
(403,320,o),
(417,503,o),
(417,617,cs),
(417,678,o),
(413,719,o),
(402,719,cs)
);
},
{
closed = 1;
nodes = (
(225,598,o),
(221,563,o),
(221,537,cs),
(221,522,o),
(223,511,o),
(226,511,cs),
(227,511,l),
(315,580,ls),
(321,585,o),
(325,622,o),
(325,647,cs),
(325,662,o),
(323,672,o),
(320,672,cs),
(319,672,l),
(231,603,l),
(231,603,l)
);
},
{
closed = 1;
nodes = (
(210,-43,o),
(120,-132,o),
(129,-142,cs),
(198,-218,ls),
(206,-228,o),
(297,-138,o),
(288,-128,cs),
(219,-53,l),
(219,-53,l)
);
},
{
closed = 1;
nodes = (
(394,727,o),
(399,725,o),
(405,725,cs),
(438,725,o),
(503,770,o),
(503,796,cs),
(503,800,o),
(502,803,o),
(500,806,c),
(404,908,l),
(400,911,o),
(395,913,o),
(389,913,cs),
(356,913,o),
(291,868,o),
(291,842,cs),
(291,838,o),
(292,835,o),
(294,832,c),
(390,730,l),
(390,730,l)
);
},
{
closed = 1;
nodes = (
(367,872,o),
(369,877,o),
(369,882,cs),
(369,888,o),
(363,891,o),
(355,891,cs),
(339,891,o),
(314,881,o),
(299,862,cs),
(214,754,ls),
(208,747,o),
(206,741,o),
(206,736,cs),
(206,729,o),
(212,726,o),
(221,726,cs),
(236,726,o),
(261,737,o),
(276,756,cs),
(361,864,l),
(361,864,l)
);
}
);
};
layerId = m01;
shapes = (
{
ref = A;
},
{
pos = (102,0);
ref = dotbelowcomb;
},
{
pos = (156,219);
ref = circumflexcomb;
}
);
width = 529;
}
);
unicode = 7852;
},
{
glyphname = Acircumflexgrave;
lastChange = "2024-05-10 13:09:07 +0000";
layers = (
{
background = {
anchors = (
{
name = bottom;
pos = (157,0);
},
{
name = left;
pos = (197,822);
},
{
name = ogonek;
pos = (378,0);
},
{
name = right;
pos = (458,851);
},
{
name = top;
pos = (479,1009);
}
);
shapes = (
{
closed = 1;
nodes = (
(6,59,o),
(8,57,o),
(12,57,cs),
(30,57,o),
(86,102,o),
(91,125,cs),
(127,289,o),
(171,452,o),
(206,615,cs),
(213,649,o),
(104,547,o),
(98,521,cs),
(65,369,o),
(40,217,o),
(7,65,cs)
);
},
{
closed = 1;
nodes = (
(-40,150,o),
(-80,38,o),
(-80,7,cs),
(-80,3,o),
(-79,0,o),
(-76,0,cs),
(-75,0,o),
(-73,1,o),
(-71,3,cs),
(-53,19,o),
(-22,29,o),
(7,29,cs),
(34,29,o),
(60,20,o),
(74,1,cs),
(87,-17,o),
(140,122,o),
(140,160,cs),
(140,164,o),
(139,167,o),
(138,169,cs),
(123,189,o),
(96,199,o),
(66,199,cs),
(35,199,o),
(2,188,o),
(-21,167,cs)
);
},
{
closed = 1;
nodes = (
(11,407,o),
(-46,237,o),
(-36,237,cs),
(51,237,l),
(54,236,o),
(61,243,o),
(65,243,cs),
(235,242,l),
(242,244,o),
(251,238,o),
(257,238,cs),
(260,238,l),
(367,238,ls),
(379,238,o),
(439,408,o),
(427,408,cs),
(320,408,l),
(309,405,o),
(300,394,o),
(289,392,c),
(128,389,l),
(121,392,o),
(119,404,o),
(111,407,c),
(24,407,l),
(24,407,l)
);
},
{
closed = 1;
nodes = (
(316,719,o),
(174,615,o),
(206,615,cs),
(214,615,o),
(216,554,o),
(216,470,cs),
(216,373,o),
(213,246,o),
(213,149,cs),
(214,62,ls),
(216,18,o),
(229,0,o),
(255,0,cs),
(263,0,o),
(272,1,o),
(281,4,cs),
(311,13,o),
(405,110,o),
(405,129,cs),
(405,132,o),
(402,134,o),
(397,132,cs),
(390,130,o),
(383,129,o),
(378,129,cs),
(357,129,o),
(345,143,o),
(344,184,cs),
(343,214,ls),
(343,320,o),
(357,503,o),
(357,617,cs),
(357,678,o),
(353,719,o),
(342,719,cs)
);
},
{
closed = 1;
nodes = (
(165,598,o),
(161,563,o),
(161,537,cs),
(161,522,o),
(163,511,o),
(166,511,cs),
(167,511,l),
(255,580,ls),
(261,585,o),
(265,622,o),
(265,647,cs),
(265,662,o),
(263,672,o),
(260,672,cs),
(259,672,l),
(171,603,l),
(171,603,l)
);
},
{
closed = 1;
nodes = (
(330,735,o),
(335,733,o),
(340,733,cs),
(370,733,o),
(428,774,o),
(428,797,cs),
(428,801,o),
(427,803,o),
(425,806,c),
(339,898,l),
(335,900,o),
(331,902,o),
(326,902,cs),
(296,902,o),
(237,862,o),
(237,838,cs),
(237,835,o),
(238,832,o),
(240,829,c),
(326,738,l),
(326,738,l)
);
},
{
closed = 1;
nodes = (
(306,865,o),
(308,870,o),
(308,874,cs),
(308,880,o),
(302,882,o),
(295,882,cs),
(281,882,o),
(258,873,o),
(245,856,cs),
(168,759,ls),
(163,753,o),
(161,747,o),
(161,743,cs),
(161,737,o),
(166,734,o),
(174,734,cs),
(188,734,o),
(210,744,o),
(224,761,cs),
(300,858,l),
(300,858,l)
);
},
{
closed = 1;
nodes = (
(533,855,o),
(493,940,o),
(493,940,c),
(474,967,o),
(398,990,o),
(358,990,cs),
(343,990,o),
(333,986,o),
(333,979,cs),
(333,976,o),
(334,972,o),
(337,969,c),
(341,963,o),
(448,846,o),
(448,846,c),
(457,832,o),
(494,823,o),
(519,823,cs),
(538,823,o),
(551,828,o),
(544,838,cs)
);
}
);
};
layerId = m01;
shapes = (
{
alignment = -1;
pos = (-60,0);
ref = A;
},
{
pos = (199,219);
ref = circumflexcomb_gravecomb;
}
);
width = 467;
}
);
unicode = 7846;
},
{
glyphname = Acircumflexhookabove;
lastChange = "2024-05-10 13:09:07 +0000";
layers = (
{
background = {
anchors = (
{
name = bottom;
pos = (217,0);
},
{
name = left;
pos = (257,822);
},
{
name = ogonek;
pos = (438,0);
},
{
name = right;
pos = (518,851);
},
{
name = top;
pos = (548,1048);
}
);
shapes = (
{
closed = 1;
nodes = (
(66,59,o),
(68,57,o),
(72,57,cs),
(90,57,o),
(146,102,o),
(151,125,cs),
(187,289,o),
(231,452,o),
(266,615,cs),
(273,649,o),
(164,547,o),
(158,521,cs),
(125,369,o),
(100,217,o),
(67,65,cs)
);
},
{
closed = 1;
nodes = (
(20,150,o),
(-20,38,o),
(-20,7,cs),
(-20,3,o),
(-19,0,o),
(-16,0,cs),
(-15,0,o),
(-13,1,o),
(-11,3,cs),
(7,19,o),
(38,29,o),
(67,29,cs),
(94,29,o),
(120,20,o),
(134,1,cs),
(147,-17,o),
(200,122,o),
(200,160,cs),
(200,164,o),
(199,167,o),
(198,169,cs),
(183,189,o),
(156,199,o),
(126,199,cs),
(95,199,o),
(62,188,o),
(39,167,cs)
);
},
{
closed = 1;
nodes = (
(71,407,o),
(14,237,o),
(24,237,cs),
(111,237,l),
(114,236,o),
(121,243,o),
(125,243,cs),
(295,242,l),
(302,244,o),
(311,238,o),
(317,238,cs),
(320,238,l),
(427,238,ls),
(439,238,o),
(499,408,o),
(487,408,cs),
(380,408,l),
(369,405,o),
(360,394,o),
(349,392,c),
(188,389,l),
(181,392,o),
(179,404,o),
(171,407,c),
(84,407,l),
(84,407,l)
);
},
{
closed = 1;
nodes = (
(376,719,o),
(234,615,o),
(266,615,cs),
(274,615,o),
(276,554,o),
(276,470,cs),
(276,373,o),
(273,246,o),
(273,149,cs),
(274,62,ls),
(276,18,o),
(289,0,o),
(315,0,cs),
(323,0,o),
(332,1,o),
(341,4,cs),
(371,13,o),
(465,110,o),
(465,129,cs),
(465,132,o),
(462,134,o),
(457,132,cs),
(450,130,o),
(443,129,o),
(438,129,cs),
(417,129,o),
(405,143,o),
(404,184,cs),
(403,214,ls),
(403,320,o),
(417,503,o),
(417,617,cs),
(417,678,o),
(413,719,o),
(402,719,cs)
);
},
{
closed = 1;
nodes = (
(225,598,o),
(221,563,o),
(221,537,cs),
(221,522,o),
(223,511,o),
(226,511,cs),
(227,511,l),
(315,580,ls),
(321,585,o),
(325,622,o),
(325,647,cs),
(325,662,o),
(323,672,o),
(320,672,cs),
(319,672,l),
(231,603,l),
(231,603,l)
);
},
{
closed = 1;
nodes = (
(390,735,o),
(395,733,o),
(400,733,cs),
(430,733,o),
(488,774,o),
(488,797,cs),
(488,801,o),
(487,803,o),
(485,806,c),
(399,898,l),
(395,900,o),
(391,902,o),
(386,902,cs),
(356,902,o),
(297,862,o),
(297,838,cs),
(297,835,o),
(298,832,o),
(300,829,c),
(386,738,l),
(386,738,l)
);
},
{
closed = 1;
nodes = (
(366,865,o),
(368,870,o),
(368,874,cs),
(368,880,o),
(362,882,o),
(355,882,cs),
(341,882,o),
(318,873,o),
(305,856,cs),
(228,759,ls),
(223,753,o),
(221,747,o),
(221,743,cs),
(221,737,o),
(226,734,o),
(234,734,cs),
(248,734,o),
(270,744,o),
(284,761,cs),
(360,858,l),
(360,858,l)
);
},
{
closed = 1;
nodes = (
(490,872,o),
(488,867,o),
(488,864,cs),
(488,860,o),
(492,858,o),
(498,858,cs),
(517,858,o),
(557,874,o),
(578,898,cs),
(601,924,o),
(610,947,o),
(610,967,cs),
(610,1012,o),
(563,1039,o),
(523,1039,cs),
(517,1039,o),
(512,1038,o),
(507,1037,cs),
(484,1033,o),
(438,952,o),
(438,924,cs),
(438,918,o),
(440,914,o),
(445,914,cs),
(446,914,o),
(448,915,o),
(449,915,cs),
(465,918,o),
(479,920,o),
(491,920,cs),
(505,920,o),
(514,917,o),
(514,908,cs),
(514,902,o),
(508,892,o),
(496,878,cs)
);
}
);
};
guides = (
{
pos = (541,1120);
},
{
pos = (318,936);
}
);
layerId = m01;
shapes = (
{
ref = A;
},
{
pos = (156,219);
ref = circumflexcomb_hookabovecomb;
}
);
width = 529;
}
);
unicode = 7848;
},
{
glyphname = Acircumflextilde;
lastChange = "2024-05-10 13:09:07 +0000";
layers = (
{
background = {
anchors = (
{
name = bottom;
pos = (217,0);
},
{
name = left;
pos = (257,822);
},
{
name = ogonek;
pos = (438,0);
},
{
name = right;
pos = (518,851);
},
{
name = top;
pos = (421,1121);
}
);
shapes = (
{
closed = 1;
nodes = (
(66,59,o),
(68,57,o),
(72,57,cs),
(90,57,o),
(146,102,o),
(151,125,cs),
(187,289,o),
(231,452,o),
(266,615,cs),
(273,649,o),
(164,547,o),
(158,521,cs),
(125,369,o),
(100,217,o),
(67,65,cs)
);
},
{
closed = 1;
nodes = (
(20,150,o),
(-20,38,o),
(-20,7,cs),
(-20,3,o),
(-19,0,o),
(-16,0,cs),
(-15,0,o),
(-13,1,o),
(-11,3,cs),
(7,19,o),
(38,29,o),
(67,29,cs),
(94,29,o),
(120,20,o),
(134,1,cs),
(147,-17,o),
(200,122,o),
(200,160,cs),
(200,164,o),
(199,167,o),
(198,169,cs),
(183,189,o),
(156,199,o),
(126,199,cs),
(95,199,o),
(62,188,o),
(39,167,cs)
);
},
{
closed = 1;
nodes = (
(71,407,o),
(14,237,o),
(24,237,cs),
(111,237,l),
(114,236,o),
(121,243,o),
(125,243,cs),
(295,242,l),
(302,244,o),
(311,238,o),
(317,238,cs),
(320,238,l),
(427,238,ls),
(439,238,o),
(499,408,o),
(487,408,cs),
(380,408,l),
(369,405,o),
(360,394,o),
(349,392,c),
(188,389,l),
(181,392,o),
(179,404,o),
(171,407,c),
(84,407,l),
(84,407,l)
);
},
{
closed = 1;
nodes = (
(376,719,o),
(234,615,o),
(266,615,cs),
(274,615,o),
(276,554,o),
(276,470,cs),
(276,373,o),
(273,246,o),
(273,149,cs),
(274,62,ls),
(276,18,o),
(289,0,o),
(315,0,cs),
(323,0,o),
(332,1,o),
(341,4,cs),
(371,13,o),
(465,110,o),
(465,129,cs),
(465,132,o),
(462,134,o),
(457,132,cs),
(450,130,o),
(443,129,o),
(438,129,cs),
(417,129,o),
(405,143,o),
(404,184,cs),
(403,214,ls),
(403,320,o),
(417,503,o),
(417,617,cs),
(417,678,o),
(413,719,o),
(402,719,cs)
);
},
{
closed = 1;
nodes = (
(225,598,o),
(221,563,o),
(221,537,cs),
(221,522,o),
(223,511,o),
(226,511,cs),
(227,511,l),
(315,580,ls),
(321,585,o),
(325,622,o),
(325,647,cs),
(325,662,o),
(323,672,o),
(320,672,cs),
(319,672,l),
(231,603,l),
(231,603,l)
);
},
{
closed = 1;
nodes = (
(390,753,o),
(395,751,o),
(400,751,cs),
(430,751,o),
(488,791,o),
(488,815,cs),
(488,818,o),
(488,821,o),
(486,824,c),
(399,916,l),
(396,918,o),
(391,920,o),
(386,920,cs),
(356,920,o),
(298,880,o),
(298,856,cs),
(298,853,o),
(299,850,o),
(300,847,c),
(387,755,l),
(387,755,l)
);
},
{
closed = 1;
nodes = (
(366,883,o),
(368,888,o),
(368,892,cs),
(368,898,o),
(362,900,o),
(355,900,cs),
(341,900,o),
(318,891,o),
(305,874,cs),
(228,777,ls),
(223,771,o),
(221,765,o),
(221,761,cs),
(221,754,o),
(227,752,o),
(235,752,cs),
(248,752,o),
(271,762,o),
(284,779,cs),
(361,876,l),
(361,876,l)
);
},
{
closed = 1;
nodes = (
(468,989,o),
(481,1029,o),
(481,1047,cs),
(481,1053,o),
(479,1057,o),
(477,1057,cs),
(474,1057,o),
(469,1055,o),
(465,1050,cs),
(455,1039,o),
(444,1032,o),
(432,1032,cs),
(429,1032,o),
(426,1032,o),
(423,1032,c),
(407,1037,o),
(395,1070,o),
(371,1078,c),
(368,1080,o),
(363,1081,o),
(358,1081,cs),
(343,1081,o),
(323,1074,o),
(296,1045,cs),
(279,1027,o),
(266,988,o),
(266,971,cs),
(266,964,o),
(267,960,o),
(270,960,cs),
(273,960,o),
(277,963,o),
(282,969,cs),
(300,987,o),
(310,993,o),
(318,993,cs),
(322,993,o),
(324,992,o),
(326,991,cs),
(342,986,o),
(355,952,o),
(378,945,cs),
(383,943,o),
(388,942,o),
(394,942,cs),
(412,942,o),
(431,951,o),
(450,972,cs)
);
}
);
};
guides = (
{
pos = (510,910);
},
{
pos = (287,726);
},
{
pos = (510,1120);
},
{
pos = (287,936);
}
);
layerId = m01;
shapes = (
{
ref = A;
},
{
pos = (181,219);
ref = circumflexcomb_tildecomb;
}
);
width = 529;
}
);
unicode = 7850;
},
{
glyphname = Adieresis;
lastChange = "2024-05-10 13:09:07 +0000";
layers = (
{
background = {
anchors = (
{
name = bottom;
pos = (217,0);
},
{
name = ogonek;
pos = (438,0);
},
{
name = top;
pos = (348,919);
}
);
shapes = (
{
closed = 1;
nodes = (
(66,59,o),
(68,57,o),
(72,57,cs),
(90,57,o),
(146,102,o),
(151,125,cs),
(187,289,o),
(231,452,o),
(266,615,cs),
(273,649,o),
(164,547,o),
(158,521,cs),
(125,369,o),
(100,217,o),
(67,65,cs)
);
},
{
closed = 1;
nodes = (
(20,150,o),
(-20,38,o),
(-20,7,cs),
(-20,3,o),
(-19,0,o),
(-16,0,cs),
(-15,0,o),
(-13,1,o),
(-11,3,cs),
(7,19,o),
(38,29,o),
(67,29,cs),
(94,29,o),
(120,20,o),
(134,1,cs),
(147,-17,o),
(200,122,o),
(200,160,cs),
(200,164,o),
(199,167,o),
(198,169,cs),
(183,189,o),
(156,199,o),
(126,199,cs),
(95,199,o),
(62,188,o),
(39,167,cs)
);
},
{
closed = 1;
nodes = (
(71,407,o),
(14,237,o),
(24,237,cs),
(111,237,l),
(114,236,o),
(121,243,o),
(125,243,cs),
(295,242,l),
(302,244,o),
(311,238,o),
(317,238,cs),
(320,238,l),
(427,238,ls),
(439,238,o),
(499,408,o),
(487,408,cs),
(380,408,l),
(369,405,o),
(360,394,o),
(349,392,c),
(188,389,l),
(181,392,o),
(179,404,o),
(171,407,c),
(84,407,l),
(84,407,l)
);
},
{
closed = 1;
nodes = (
(376,719,o),
(234,615,o),
(266,615,cs),
(274,615,o),
(276,554,o),
(276,470,cs),
(276,373,o),
(273,246,o),
(273,149,cs),
(274,62,ls),
(276,18,o),
(289,0,o),
(315,0,cs),
(323,0,o),
(332,1,o),
(341,4,cs),
(371,13,o),
(465,110,o),
(465,129,cs),
(465,132,o),
(462,134,o),
(457,132,cs),
(450,130,o),
(443,129,o),
(438,129,cs),
(417,129,o),
(405,143,o),
(404,184,cs),
(403,214,ls),
(403,320,o),
(417,503,o),
(417,617,cs),
(417,678,o),
(413,719,o),
(402,719,cs)
);
},
{
closed = 1;
nodes = (
(225,598,o),
(221,563,o),
(221,537,cs),
(221,522,o),
(223,511,o),
(226,511,cs),
(227,511,l),
(315,580,ls),
(321,585,o),
(325,622,o),
(325,647,cs),
(325,662,o),
(323,672,o),
(320,672,cs),
(319,672,l),
(231,603,l),
(231,603,l)
);
},
{
closed = 1;
nodes = (
(249,929,o),
(148,830,o),
(158,819,cs),
(235,735,ls),
(244,724,o),
(345,824,o),
(334,835,cs),
(258,919,l),
(258,919,l)
);
},
{
closed = 1;
nodes = (
(445,931,o),
(344,832,o),
(354,821,cs),
(431,737,ls),
(440,726,o),
(541,826,o),
(530,837,cs),
(454,921,l),
(454,921,l)
);
}
);
};
layerId = m01;
shapes = (
{
ref = A;
},
{
pos = (108,219);
ref = dieresiscomb;
}
);
width = 529;
}
);
unicode = 196;
},
{
glyphname = Adieresismacron;
lastChange = "2024-05-10 13:09:07 +0000";
layers = (
{
background = {
anchors = (
{
name = bottom;
pos = (217,0);
},
{
name = ogonek;
pos = (438,0);
},
{
name = top;
pos = (387,1088);
}
);
shapes = (
{
closed = 1;
nodes = (
(66,59,o),
(68,57,o),
(72,57,cs),
(90,57,o),
(146,102,o),
(151,125,cs),
(187,289,o),
(231,452,o),
(266,615,cs),
(273,649,o),
(164,547,o),
(158,521,cs),
(125,369,o),
(100,217,o),
(67,65,cs)
);
},
{
closed = 1;
nodes = (
(20,150,o),
(-20,38,o),
(-20,7,cs),
(-20,3,o),
(-19,0,o),
(-16,0,cs),
(-15,0,o),
(-13,1,o),
(-11,3,cs),
(7,19,o),
(38,29,o),
(67,29,cs),
(94,29,o),
(120,20,o),
(134,1,cs),
(147,-17,o),
(200,122,o),
(200,160,cs),
(200,164,o),
(199,167,o),
(198,169,cs),
(183,189,o),
(156,199,o),
(126,199,cs),
(95,199,o),
(62,188,o),
(39,167,cs)
);
},
{
closed = 1;
nodes = (
(71,407,o),
(14,237,o),
(24,237,cs),
(111,237,l),
(114,236,o),
(121,243,o),
(125,243,cs),
(295,242,l),
(302,244,o),
(311,238,o),
(317,238,cs),
(320,238,l),
(427,238,ls),
(439,238,o),
(499,408,o),
(487,408,cs),
(380,408,l),
(369,405,o),
(360,394,o),
(349,392,c),
(188,389,l),
(181,392,o),
(179,404,o),
(171,407,c),
(84,407,l),
(84,407,l)
);
},
{
closed = 1;
nodes = (
(376,719,o),
(234,615,o),
(266,615,cs),
(274,615,o),
(276,554,o),
(276,470,cs),
(276,373,o),
(273,246,o),
(273,149,cs),
(274,62,ls),
(276,18,o),
(289,0,o),
(315,0,cs),
(323,0,o),
(332,1,o),
(341,4,cs),
(371,13,o),
(465,110,o),
(465,129,cs),
(465,132,o),
(462,134,o),
(457,132,cs),
(450,130,o),
(443,129,o),
(438,129,cs),
(417,129,o),
(405,143,o),
(404,184,cs),
(403,214,ls),
(403,320,o),
(417,503,o),
(417,617,cs),
(417,678,o),
(413,719,o),
(402,719,cs)
);
},
{
closed = 1;
nodes = (
(225,598,o),
(221,563,o),
(221,537,cs),
(221,522,o),
(223,511,o),
(226,511,cs),
(227,511,l),
(315,580,ls),
(321,585,o),
(325,622,o),
(325,647,cs),
(325,662,o),
(323,672,o),
(320,672,cs),
(319,672,l),
(231,603,l),
(231,603,l)
);
},
{
closed = 1;
nodes = (
(249,929,o),
(148,830,o),
(158,819,cs),
(235,735,ls),
(244,724,o),
(345,824,o),
(334,835,cs),
(258,919,l),
(258,919,l)
);
},
{
closed = 1;
nodes = (
(445,931,o),
(344,832,o),
(354,821,cs),
(431,737,ls),
(440,726,o),
(541,826,o),
(530,837,cs),
(454,921,l),
(454,921,l)
);
},
{
closed = 1;
nodes = (
(259,1079,o),
(227,999,o),
(227,968,cs),
(227,961,o),
(229,957,o),
(233,957,cs),
(464,955,ls),
(480,955,o),
(512,1035,o),
(512,1065,cs),
(512,1073,o),
(510,1077,o),
(506,1077,cs),
(275,1079,l),
(275,1079,l)
);
}
);
};
guides = (
{
pos = (506,910);
},
{
pos = (283,726);
}
);
layerId = m01;
shapes = (
{
ref = A;
},
{
pos = (108,219);
ref = dieresiscomb;
},
{
pos = (227,419);
ref = macroncomb;
}
);
width = 529;
}
);
unicode = 478;
},
{
glyphname = Adotaccent;
lastChange = "2024-05-10 13:09:07 +0000";
layers = (
{
background = {
anchors = (
{
name = bottom;
pos = (217,0);
},
{
name = ogonek;
pos = (438,0);
},
{
name = top;
pos = (355,926);
}
);
shapes = (
{
closed = 1;
nodes = (
(66,59,o),
(68,57,o),
(72,57,cs),
(90,57,o),
(146,102,o),
(151,125,cs),
(187,289,o),
(231,452,o),
(266,615,cs),
(273,649,o),
(164,547,o),
(158,521,cs),
(125,369,o),
(100,217,o),
(67,65,cs)
);
},
{
closed = 1;
nodes = (
(20,150,o),
(-20,38,o),
(-20,7,cs),
(-20,3,o),
(-19,0,o),
(-16,0,cs),
(-15,0,o),
(-13,1,o),
(-11,3,cs),
(7,19,o),
(38,29,o),
(67,29,cs),
(94,29,o),
(120,20,o),
(134,1,cs),
(147,-17,o),
(200,122,o),
(200,160,cs),
(200,164,o),
(199,167,o),
(198,169,cs),
(183,189,o),
(156,199,o),
(126,199,cs),
(95,199,o),
(62,188,o),
(39,167,cs)
);
},
{
closed = 1;
nodes = (
(71,407,o),
(14,237,o),
(24,237,cs),
(111,237,l),
(114,236,o),
(121,243,o),
(125,243,cs),
(295,242,l),
(302,244,o),
(311,238,o),
(317,238,cs),
(320,238,l),
(427,238,ls),
(439,238,o),
(499,408,o),
(487,408,cs),
(380,408,l),
(369,405,o),
(360,394,o),
(349,392,c),
(188,389,l),
(181,392,o),
(179,404,o),
(171,407,c),
(84,407,l),
(84,407,l)
);
},
{
closed = 1;
nodes = (
(376,719,o),
(234,615,o),
(266,615,cs),
(274,615,o),
(276,554,o),
(276,470,cs),
(276,373,o),
(273,246,o),
(273,149,cs),
(274,62,ls),
(276,18,o),
(289,0,o),
(315,0,cs),
(323,0,o),
(332,1,o),
(341,4,cs),
(371,13,o),
(465,110,o),
(465,129,cs),
(465,132,o),
(462,134,o),
(457,132,cs),
(450,130,o),
(443,129,o),
(438,129,cs),
(417,129,o),
(405,143,o),
(404,184,cs),
(403,214,ls),
(403,320,o),
(417,503,o),
(417,617,cs),
(417,678,o),
(413,719,o),
(402,719,cs)
);
},
{
closed = 1;
nodes = (
(225,598,o),
(221,563,o),
(221,537,cs),
(221,522,o),
(223,511,o),
(226,511,cs),
(227,511,l),
(315,580,ls),
(321,585,o),
(325,622,o),
(325,647,cs),
(325,662,o),
(323,672,o),
(320,672,cs),
(319,672,l),
(231,603,l),
(231,603,l)
);
},
{
closed = 1;
nodes = (
(345,930,o),
(244,831,o),
(254,820,cs),
(331,736,ls),
(340,725,o),
(441,825,o),
(430,836,cs),
(354,920,l),
(354,920,l)
);
}
);
};
layerId = m01;
shapes = (
{
ref = A;
},
{
pos = (204,223);
ref = dotaccentcomb;
}
);
width = 529;
}
);
unicode = 550;
},
{
glyphname = Adotbelow;
lastChange = "2024-05-10 13:09:07 +0000";
layers = (
{
background = {
anchors = (
{
name = bottom;
pos = (217,0);
},
{
name = ogonek;
pos = (438,0);
},
{
name = top;
pos = (338,719);
}
);
shapes = (
{
closed = 1;
nodes = (
(66,59,o),
(68,57,o),
(72,57,cs),
(90,57,o),
(146,102,o),
(151,125,cs),
(187,289,o),
(231,452,o),
(266,615,cs),
(273,649,o),
(164,547,o),
(158,521,cs),
(125,369,o),
(100,217,o),
(67,65,cs)
);
},
{
closed = 1;
nodes = (
(20,150,o),
(-20,38,o),
(-20,7,cs),
(-20,3,o),
(-19,0,o),
(-16,0,cs),
(-15,0,o),
(-13,1,o),
(-11,3,cs),
(7,19,o),
(38,29,o),
(67,29,cs),
(94,29,o),
(120,20,o),
(134,1,cs),
(147,-17,o),
(200,122,o),
(200,160,cs),
(200,164,o),
(199,167,o),
(198,169,cs),
(183,189,o),
(156,199,o),
(126,199,cs),
(95,199,o),
(62,188,o),
(39,167,cs)
);
},
{
closed = 1;
nodes = (
(71,407,o),
(14,237,o),
(24,237,cs),
(111,237,l),
(114,236,o),
(121,243,o),
(125,243,cs),
(295,242,l),
(302,244,o),
(311,238,o),
(317,238,cs),
(320,238,l),
(427,238,ls),
(439,238,o),
(499,408,o),
(487,408,cs),
(380,408,l),
(369,405,o),
(360,394,o),
(349,392,c),
(188,389,l),
(181,392,o),
(179,404,o),
(171,407,c),
(84,407,l),
(84,407,l)
);
},
{
closed = 1;
nodes = (
(376,719,o),
(234,615,o),
(266,615,cs),
(274,615,o),
(276,554,o),
(276,470,cs),
(276,373,o),
(273,246,o),
(273,149,cs),
(274,62,ls),
(276,18,o),
(289,0,o),
(315,0,cs),
(323,0,o),
(332,1,o),
(341,4,cs),
(371,13,o),
(465,110,o),
(465,129,cs),
(465,132,o),
(462,134,o),
(457,132,cs),
(450,130,o),
(443,129,o),
(438,129,cs),
(417,129,o),
(405,143,o),
(404,184,cs),
(403,214,ls),
(403,320,o),
(417,503,o),
(417,617,cs),
(417,678,o),
(413,719,o),
(402,719,cs)
);
},
{
closed = 1;
nodes = (
(225,598,o),
(221,563,o),
(221,537,cs),
(221,522,o),
(223,511,o),
(226,511,cs),
(227,511,l),
(315,580,ls),
(321,585,o),
(325,622,o),
(325,647,cs),
(325,662,o),
(323,672,o),
(320,672,cs),
(319,672,l),
(231,603,l),
(231,603,l)
);
},
{
closed = 1;
nodes = (
(210,-43,o),
(120,-132,o),
(129,-142,cs),
(198,-218,ls),
(206,-228,o),
(297,-138,o),
(288,-128,cs),
(219,-53,l),
(219,-53,l)
);
}
);
};
layerId = m01;
shapes = (
{
ref = A;
},
{
pos = (102,0);
ref = dotbelowcomb;
}
);
width = 529;
}
);
unicode = 7840;
},
{
glyphname = Agrave;
lastChange = "2024-05-10 13:09:07 +0000";
layers = (
{
background = {
anchors = (
{
name = bottom;
pos = (217,0);
},
{
name = ogonek;
pos = (438,0);
},
{
name = top;
pos = (278,919);
}
);
shapes = (
{
closed = 1;
nodes = (
(66,59,o),
(68,57,o),
(72,57,cs),
(90,57,o),
(146,102,o),
(151,125,cs),
(187,289,o),
(231,452,o),
(266,615,cs),
(273,649,o),
(164,547,o),
(158,521,cs),
(125,369,o),
(100,217,o),
(67,65,cs)
);
},
{
closed = 1;
nodes = (
(20,150,o),
(-20,38,o),
(-20,7,cs),
(-20,3,o),
(-19,0,o),
(-16,0,cs),
(-15,0,o),
(-13,1,o),
(-11,3,cs),
(7,19,o),
(38,29,o),
(67,29,cs),
(94,29,o),
(120,20,o),
(134,1,cs),
(147,-17,o),
(200,122,o),
(200,160,cs),
(200,164,o),
(199,167,o),
(198,169,cs),
(183,189,o),
(156,199,o),
(126,199,cs),
(95,199,o),
(62,188,o),
(39,167,cs)
);
},
{
closed = 1;
nodes = (
(71,407,o),
(14,237,o),
(24,237,cs),
(111,237,l),
(114,236,o),
(121,243,o),
(125,243,cs),
(295,242,l),
(302,244,o),
(311,238,o),
(317,238,cs),
(320,238,l),
(427,238,ls),
(439,238,o),
(499,408,o),
(487,408,cs),
(380,408,l),
(369,405,o),
(360,394,o),
(349,392,c),
(188,389,l),
(181,392,o),
(179,404,o),
(171,407,c),
(84,407,l),
(84,407,l)
);
},
{
closed = 1;
nodes = (
(376,719,o),
(234,615,o),
(266,615,cs),
(274,615,o),
(276,554,o),
(276,470,cs),
(276,373,o),
(273,246,o),
(273,149,cs),
(274,62,ls),
(276,18,o),
(289,0,o),
(315,0,cs),
(323,0,o),
(332,1,o),
(341,4,cs),
(371,13,o),
(465,110,o),
(465,129,cs),
(465,132,o),
(462,134,o),
(457,132,cs),
(450,130,o),
(443,129,o),
(438,129,cs),
(417,129,o),
(405,143,o),
(404,184,cs),
(403,214,ls),
(403,320,o),
(417,503,o),
(417,617,cs),
(417,678,o),
(413,719,o),
(402,719,cs)
);
},
{
closed = 1;
nodes = (
(225,598,o),
(221,563,o),
(221,537,cs),
(221,522,o),
(223,511,o),
(226,511,cs),
(227,511,l),
(315,580,ls),
(321,585,o),
(325,622,o),
(325,647,cs),
(325,662,o),
(323,672,o),
(320,672,cs),
(319,672,l),
(231,603,l),
(231,603,l)
);
},
{
closed = 1;
nodes = (
(342,778,o),
(298,873,o),
(298,873,c),
(276,903,o),
(192,928,o),
(148,928,cs),
(131,928,o),
(120,924,o),
(120,916,cs),
(120,913,o),
(121,909,o),
(124,905,cs),
(129,898,o),
(248,768,o),
(248,768,c),
(258,753,o),
(299,743,o),
(327,743,cs),
(348,743,o),
(362,748,o),
(354,760,cs)
);
}
);
};
layerId = m01;
shapes = (
{
ref = A;
},
{
pos = (120,219);
ref = gravecomb;
}
);
width = 529;
}
);
unicode = 192;
},
{
glyphname = Ahookabove;
lastChange = "2024-05-10 13:09:07 +0000";
layers = (
{
background = {
anchors = (
{
name = bottom;
pos = (217,0);
},
{
name = ogonek;
pos = (438,0);
},
{
name = top;
pos = (338,917);
}
);
shapes = (
{
closed = 1;
nodes = (
(66,59,o),
(68,57,o),
(72,57,cs),
(90,57,o),
(146,102,o),
(151,125,cs),
(187,289,o),
(231,452,o),
(266,615,cs),
(273,649,o),
(164,547,o),
(158,521,cs),
(125,369,o),
(100,217,o),
(67,65,cs)
);
},
{
closed = 1;
nodes = (
(20,150,o),
(-20,38,o),
(-20,7,cs),
(-20,3,o),
(-19,0,o),
(-16,0,cs),
(-15,0,o),
(-13,1,o),
(-11,3,cs),
(7,19,o),
(38,29,o),
(67,29,cs),
(94,29,o),
(120,20,o),
(134,1,cs),
(147,-17,o),
(200,122,o),
(200,160,cs),
(200,164,o),
(199,167,o),
(198,169,cs),
(183,189,o),
(156,199,o),
(126,199,cs),
(95,199,o),
(62,188,o),
(39,167,cs)
);
},
{
closed = 1;
nodes = (
(71,407,o),
(14,237,o),
(24,237,cs),
(111,237,l),
(114,236,o),
(121,243,o),
(125,243,cs),
(295,242,l),
(302,244,o),
(311,238,o),
(317,238,cs),
(320,238,l),
(427,238,ls),
(439,238,o),
(499,408,o),
(487,408,cs),
(380,408,l),
(369,405,o),
(360,394,o),
(349,392,c),
(188,389,l),
(181,392,o),
(179,404,o),
(171,407,c),
(84,407,l),
(84,407,l)
);
},
{
closed = 1;
nodes = (
(376,719,o),
(234,615,o),
(266,615,cs),
(274,615,o),
(276,554,o),
(276,470,cs),
(276,373,o),
(273,246,o),
(273,149,cs),
(274,62,ls),
(276,18,o),
(289,0,o),
(315,0,cs),
(323,0,o),
(332,1,o),
(341,4,cs),
(371,13,o),
(465,110,o),
(465,129,cs),
(465,132,o),
(462,134,o),
(457,132,cs),
(450,130,o),
(443,129,o),
(438,129,cs),
(417,129,o),
(405,143,o),
(404,184,cs),
(403,214,ls),
(403,320,o),
(417,503,o),
(417,617,cs),
(417,678,o),
(413,719,o),
(402,719,cs)
);
},
{
closed = 1;
nodes = (
(225,598,o),
(221,563,o),
(221,537,cs),
(221,522,o),
(223,511,o),
(226,511,cs),
(227,511,l),
(315,580,ls),
(321,585,o),
(325,622,o),
(325,647,cs),
(325,662,o),
(323,672,o),
(320,672,cs),
(319,672,l),
(231,603,l),
(231,603,l)
);
},
{
closed = 1;
nodes = (
(316,748,o),
(314,743,o),
(314,740,cs),
(314,736,o),
(318,734,o),
(324,734,cs),
(343,734,o),
(383,750,o),
(404,774,cs),
(427,800,o),
(436,823,o),
(436,843,cs),
(436,888,o),
(389,915,o),
(349,915,cs),
(343,915,o),
(338,914,o),
(333,913,cs),
(310,909,o),
(264,828,o),
(264,800,cs),
(264,794,o),
(266,790,o),
(271,790,cs),
(272,790,o),
(274,791,o),
(275,791,cs),
(291,794,o),
(305,796,o),
(317,796,cs),
(331,796,o),
(340,793,o),
(340,784,cs),
(340,778,o),
(334,768,o),
(322,754,cs)
);
}
);
};
layerId = m01;
shapes = (
{
ref = A;
},
{
pos = (214,218);
ref = hookabovecomb;
}
);
width = 529;
}
);
unicode = 7842;
},
{
glyphname = "Alpha-latin";
lastChange = "2024-05-10 13:09:58 +0000";
layers = (
{
anchors = (
{
name = bottom;
pos = (175,10);
},
{
name = center;
pos = (246,350);
},
{
name = ogonek;
pos = (420,10);
},
{
name = top;
pos = (335,700);
},
{
name = topleft;
pos = (48,700);
},
{
name = topright;
pos = (354,700);
}
);
background = {
anchors = (
{
name = bottom;
pos = (175,10);
},
{
name = center;
pos = (246,350);
},
{
name = ogonek;
pos = (420,10);
},
{
name = top;
pos = (335,700);
},
{
name = topleft;
pos = (48,700);
},
{
name = topright;
pos = (354,700);
}
);
shapes = (
{
closed = 1;
nodes = (
(216,80,o),
(258,32,o),
(262,35,cs),
(319,75,o),
(440,169,o),
(433,321,cs),
(432,328,o),
(387,373,o),
(387,365,cs),
(394,217,o),
(275,123,o),
(220,83,cs)
);
},
{
closed = 1;
nodes = (
(299,574,o),
(336,654,o),
(336,686,cs),
(336,694,o),
(334,699,o),
(328,699,cs),
(322,699,o),
(312,693,o),
(298,680,cs),
(231,614,o),
(20,338,o),
(20,152,cs),
(20,70,o),
(61,5,o),
(175,-15,cs),
(208,-21,o),
(332,87,o),
(332,119,cs),
(332,123,o),
(330,126,o),
(325,127,cs),
(203,149,o),
(166,216,o),
(166,289,cs),
(166,403,o),
(255,532,o),
(256,532,c)
);
},
{
closed = 1;
nodes = (
(576,680,o),
(583,693,o),
(583,698,cs),
(583,715,o),
(522,673,o),
(473,613,cs),
(371,487,o),
(372,444,o),
(365,365,cs),
(356,277,o),
(352,191,o),
(345,106,cs),
(343,77,ls),
(343,34,o),
(353,-14,o),
(391,-14,cs),
(407,-14,o),
(426,-7,o),
(451,11,cs),
(503,47,o),
(574,134,o),
(556,134,cs),
(553,134,o),
(545,130,o),
(533,121,cs),
(524,115,o),
(517,112,o),
(511,112,cs),
(493,112,o),
(487,139,o),
(487,174,cs),
(489,218,ls),
(497,298,o),
(508,376,o),
(515,453,cs),
(522,524,o),
(527,621,o),
(559,659,cs)
);
},
{
closed = 1;
nodes = (
(466,558,o),
(612,709,o),
(581,707,cs),
(550,704,o),
(522,703,o),
(497,703,cs),
(439,703,o),
(394,708,o),
(363,708,cs),
(346,708,o),
(333,706,o),
(323,703,c),
(292,690,o),
(224,587,o),
(224,557,cs),
(224,551,o),
(226,548,o),
(231,548,cs),
(233,548,o),
(235,548,o),
(237,549,c),
(293,549,ls),
(328,549,o),
(377,550,o),
(437,555,cs)
);
}
);
};
layerId = m01;
shapes = (
{
closed = 1;
nodes = (
(191,-18,o),
(231,7,o),
(266,38,c),
(287,53,o),
(317,75,o),
(345,105,c),
(343,77,ls),
(343,34,o),
(353,-14,o),
(391,-14,cs),
(407,-14,o),
(426,-7,o),
(451,11,cs),
(503,47,o),
(574,134,o),
(556,134,cs),
(553,134,o),
(545,130,o),
(533,121,cs),
(524,115,o),
(517,112,o),
(511,112,cs),
(493,112,o),
(487,139,o),
(487,174,cs),
(489,218,ls),
(497,298,o),
(508,376,o),
(515,453,cs),
(522,524,o),
(527,621,o),
(559,659,cs),
(574,677,o),
(581,690,o),
(583,696,cs),
(586,703,o),
(586,707,o),
(581,707,cs),
(550,704,o),
(522,703,o),
(497,703,cs),
(439,703,o),
(394,708,o),
(363,708,cs),
(346,708,o),
(333,706,o),
(323,703,cs),
(311,698,o),
(294,680,o),
(277,658,c),
(196,566,o),
(20,322,o),
(20,152,cs),
(20,70,o),
(61,5,o),
(175,-15,cs)
);
},
{
closed = 1;
nodes = (
(195,165,o),
(166,225,o),
(166,289,cs),
(166,403,o),
(255,532,o),
(256,532,c),
(271,549,l),
(293,549,ls),
(326,549,o),
(372,550,o),
(429,554,c),
(371,471,o),
(371,430,o),
(365,365,cs),
(360,318,o),
(357,271,o),
(354,225,c),
(334,190,o),
(309,160,o),
(285,137,c)
);
}
);
width = 585;
}
);
unicode = 11373;
},
{
glyphname = Amacron;
lastChange = "2024-05-10 13:09:07 +0000";
layers = (
{
background = {
anchors = (
{
name = bottom;
pos = (217,0);
},
{
name = ogonek;
pos = (438,0);
},
{
name = top;
pos = (377,888);
}
);
shapes = (
{
closed = 1;
nodes = (
(66,59,o),
(68,57,o),
(72,57,cs),
(90,57,o),
(146,102,o),
(151,125,cs),
(187,289,o),
(231,452,o),
(266,615,cs),
(273,649,o),
(164,547,o),
(158,521,cs),
(125,369,o),
(100,217,o),
(67,65,cs)
);
},
{
closed = 1;
nodes = (
(20,150,o),
(-20,38,o),
(-20,7,cs),
(-20,3,o),
(-19,0,o),
(-16,0,cs),
(-15,0,o),
(-13,1,o),
(-11,3,cs),
(7,19,o),
(38,29,o),
(67,29,cs),
(94,29,o),
(120,20,o),
(134,1,cs),
(147,-17,o),
(200,122,o),
(200,160,cs),
(200,164,o),
(199,167,o),
(198,169,cs),
(183,189,o),
(156,199,o),
(126,199,cs),
(95,199,o),
(62,188,o),
(39,167,cs)
);
},
{
closed = 1;
nodes = (
(71,407,o),
(14,237,o),
(24,237,cs),
(111,237,l),
(114,236,o),
(121,243,o),
(125,243,cs),
(295,242,l),
(302,244,o),
(311,238,o),
(317,238,cs),
(320,238,l),
(427,238,ls),
(439,238,o),
(499,408,o),
(487,408,cs),
(380,408,l),
(369,405,o),
(360,394,o),
(349,392,c),
(188,389,l),
(181,392,o),
(179,404,o),
(171,407,c),
(84,407,l),
(84,407,l)
);
},
{
closed = 1;
nodes = (
(376,719,o),
(234,615,o),
(266,615,cs),
(274,615,o),
(276,554,o),
(276,470,cs),
(276,373,o),
(273,246,o),
(273,149,cs),
(274,62,ls),
(276,18,o),
(289,0,o),
(315,0,cs),
(323,0,o),
(332,1,o),
(341,4,cs),
(371,13,o),
(465,110,o),
(465,129,cs),
(465,132,o),
(462,134,o),
(457,132,cs),
(450,130,o),
(443,129,o),
(438,129,cs),
(417,129,o),
(405,143,o),
(404,184,cs),
(403,214,ls),
(403,320,o),
(417,503,o),
(417,617,cs),
(417,678,o),
(413,719,o),
(402,719,cs)
);
},
{
closed = 1;
nodes = (
(225,598,o),
(221,563,o),
(221,537,cs),
(221,522,o),
(223,511,o),
(226,511,cs),
(227,511,l),
(315,580,ls),
(321,585,o),
(325,622,o),
(325,647,cs),
(325,662,o),
(323,672,o),
(320,672,cs),
(319,672,l),
(231,603,l),
(231,603,l)
);
},
{
closed = 1;
nodes = (
(249,879,o),
(217,799,o),
(217,768,cs),
(217,761,o),
(219,757,o),
(223,757,cs),
(454,755,ls),
(470,755,o),
(502,835,o),
(502,865,cs),
(502,873,o),
(500,877,o),
(496,877,cs),
(265,879,l),
(265,879,l)
);
}
);
};
guides = (
{
pos = (510,910);
},
{
pos = (287,726);
}
);
layerId = m01;
shapes = (
{
ref = A;
},
{
pos = (217,219);
ref = macroncomb;
}
);
width = 529;
}
);
unicode = 256;
},
{
glyphname = Aogonek;
lastChange = "2024-05-10 13:09:07 +0000";
layers = (
{
background = {
anchors = (
{
name = bottom;
pos = (157,0);
},
{
name = ogonek;
pos = (378,0);
},
{
name = top;
pos = (278,719);
}
);
shapes = (
{
closed = 1;
nodes = (
(6,59,o),
(8,57,o),
(12,57,cs),
(30,57,o),
(86,102,o),
(91,125,cs),
(127,289,o),
(171,452,o),
(206,615,cs),
(213,649,o),
(104,547,o),
(98,521,cs),
(65,369,o),
(40,217,o),
(7,65,cs)
);
},
{
closed = 1;
nodes = (
(-40,150,o),
(-80,38,o),
(-80,7,cs),
(-80,3,o),
(-79,0,o),
(-76,0,cs),
(-75,0,o),
(-73,1,o),
(-71,3,cs),
(-53,19,o),
(-22,29,o),
(7,29,cs),
(34,29,o),
(60,20,o),
(74,1,cs),
(87,-17,o),
(140,122,o),
(140,160,cs),
(140,164,o),
(139,167,o),
(138,169,cs),
(123,189,o),
(96,199,o),
(66,199,cs),
(35,199,o),
(2,188,o),
(-21,167,cs)
);
},
{
closed = 1;
nodes = (
(11,407,o),
(-46,237,o),
(-36,237,cs),
(51,237,l),
(54,236,o),
(61,243,o),
(65,243,cs),
(235,242,l),
(242,244,o),
(251,238,o),
(257,238,cs),
(260,238,l),
(367,238,ls),
(379,238,o),
(439,408,o),
(427,408,cs),
(320,408,l),
(309,405,o),
(300,394,o),
(289,392,c),
(128,389,l),
(121,392,o),
(119,404,o),
(111,407,c),
(24,407,l),
(24,407,l)
);
},
{
closed = 1;
nodes = (
(316,719,o),
(174,615,o),
(206,615,cs),
(214,615,o),
(216,554,o),
(216,470,cs),
(216,373,o),
(213,246,o),
(213,149,cs),
(214,62,ls),
(216,18,o),
(229,0,o),
(255,0,cs),
(263,0,o),
(272,1,o),
(281,4,cs),
(311,13,o),
(405,110,o),
(405,129,cs),
(405,132,o),
(402,134,o),
(397,132,cs),
(390,130,o),
(383,129,o),
(378,129,cs),
(357,129,o),
(345,143,o),
(344,184,cs),
(343,214,ls),
(343,320,o),
(357,503,o),
(357,617,cs),
(357,678,o),
(353,719,o),
(342,719,cs)
);
},
{
closed = 1;
nodes = (
(165,598,o),
(161,563,o),
(161,537,cs),
(161,522,o),
(163,511,o),
(166,511,cs),
(167,511,l),
(255,580,ls),
(261,585,o),
(265,622,o),
(265,647,cs),
(265,662,o),
(263,672,o),
(260,672,cs),
(259,672,l),
(171,603,l),
(171,603,l)
);
},
{
closed = 1;
nodes = (
(329,-233,o),
(374,-171,o),
(374,-148,cs),
(374,-142,o),
(372,-139,o),
(366,-139,cs),
(361,-139,o),
(352,-142,o),
(341,-149,cs),
(330,-155,o),
(320,-158,o),
(311,-158,cs),
(282,-158,o),
(263,-131,o),
(263,-92,cs),
(263,-57,o),
(280,-12,o),
(323,31,cs),
(370,77,o),
(382,102,o),
(371,102,cs),
(358,102,o),
(321,79,o),
(275,33,cs),
(156,-84,o),
(113,-168,o),
(113,-220,cs),
(113,-266,o),
(145,-288,o),
(189,-288,cs),
(218,-288,o),
(251,-278,o),
(283,-259,cs)
);
}
);
};
guides = (
{
pos = (-275,910);
},
{
pos = (226,725);
}
);
layerId = m01;
shapes = (
{
alignment = -1;
pos = (-60,0);
ref = A;
},
{
pos = (113,-35);
ref = ogonekcomb;
}
);
width = 474;
}
);
unicode = 260;
},
{
glyphname = Aring;
lastChange = "2024-05-10 13:09:07 +0000";
layers = (
{
background = {
anchors = (
{
name = bottom;
pos = (217,0);
},
{
name = ogonek;
pos = (438,0);
},
{
name = top;
pos = (428,1010);
}
);
shapes = (
{
closed = 1;
nodes = (
(66,59,o),
(68,57,o),
(72,57,cs),
(90,57,o),
(146,102,o),
(151,125,cs),
(187,289,o),
(231,452,o),
(266,615,cs),
(273,649,o),
(164,547,o),
(158,521,cs),
(125,369,o),
(100,217,o),
(67,65,cs)
);
},
{
closed = 1;
nodes = (
(20,150,o),
(-20,38,o),
(-20,7,cs),
(-20,3,o),
(-19,0,o),
(-16,0,cs),
(-15,0,o),
(-13,1,o),
(-11,3,cs),
(7,19,o),
(38,29,o),
(67,29,cs),
(94,29,o),
(120,20,o),
(134,1,cs),
(147,-17,o),
(200,122,o),
(200,160,cs),
(200,164,o),
(199,167,o),
(198,169,cs),
(183,189,o),
(156,199,o),
(126,199,cs),
(95,199,o),
(62,188,o),
(39,167,cs)
);
},
{
closed = 1;
nodes = (
(71,407,o),
(14,237,o),
(24,237,cs),
(111,237,l),
(114,236,o),
(121,243,o),
(125,243,cs),
(295,242,l),
(302,244,o),
(311,238,o),
(317,238,cs),
(320,238,l),
(427,238,ls),
(439,238,o),
(499,408,o),
(487,408,cs),
(380,408,l),
(369,405,o),
(360,394,o),
(349,392,c),
(188,389,l),
(181,392,o),
(179,404,o),
(171,407,c),
(84,407,l),
(84,407,l)
);
},
{
closed = 1;
nodes = (
(376,719,o),
(234,615,o),
(266,615,cs),
(274,615,o),
(276,554,o),
(276,470,cs),
(276,373,o),
(273,246,o),
(273,149,cs),
(274,62,ls),
(276,18,o),
(289,0,o),
(315,0,cs),
(323,0,o),
(332,1,o),
(341,4,cs),
(371,13,o),
(465,110,o),
(465,129,cs),
(465,132,o),
(462,134,o),
(457,132,cs),
(450,130,o),
(443,129,o),
(438,129,cs),
(417,129,o),
(405,143,o),
(404,184,cs),
(403,214,ls),
(403,320,o),
(417,503,o),
(417,617,cs),
(417,678,o),
(413,719,o),
(402,719,cs)
);
},
{
closed = 1;
nodes = (
(225,598,o),
(221,563,o),
(221,537,cs),
(221,522,o),
(223,511,o),
(226,511,cs),
(227,511,l),
(315,580,ls),
(321,585,o),
(325,622,o),
(325,647,cs),
(325,662,o),
(323,672,o),
(320,672,cs),
(319,672,l),
(231,603,l),
(231,603,l)
);
},
{
closed = 1;
nodes = (
(368,875,o),
(371,883,o),
(371,889,cs),
(371,895,o),
(368,898,o),
(362,898,cs),
(351,898,o),
(331,886,o),
(315,862,cs),
(292,829,o),
(283,801,o),
(283,779,cs),
(283,747,o),
(303,729,o),
(328,729,cs),
(338,729,o),
(349,732,o),
(361,738,cs),
(382,749,o),
(404,790,o),
(404,809,cs),
(404,814,o),
(402,818,o),
(397,818,cs),
(395,818,o),
(391,817,o),
(387,814,cs),
(382,811,o),
(377,808,o),
(371,808,cs),
(369,808,ls),
(357,810,o),
(351,812,o),
(351,828,cs),
(351,835,ls),
(352,844,o),
(354,854,o),
(359,862,cs)
);
},
{
closed = 1;
nodes = (
(362,792,o),
(350,771,o),
(350,758,cs),
(350,751,o),
(353,746,o),
(358,746,cs),
(363,746,o),
(371,751,o),
(382,763,cs),
(431,816,o),
(449,856,o),
(449,883,cs),
(449,909,o),
(431,923,o),
(407,923,cs),
(390,923,o),
(371,916,o),
(353,903,cs),
(330,886,o),
(315,859,o),
(315,844,cs),
(315,839,o),
(318,835,o),
(323,835,cs),
(327,835,o),
(334,838,o),
(343,845,cs),
(349,850,o),
(355,853,o),
(359,853,cs),
(375,853,o),
(380,842,o),
(380,831,cs),
(380,821,o),
(376,812,o),
(376,811,c)
);
}
);
};
guides = (
{
pos = (510,910);
},
{
pos = (287,726);
}
);
layerId = m01;
shapes = (
{
ref = A;
},
{
pos = (233,219);
ref = ringcomb;
}
);
width = 529;
}
);
unicode = 197;
},
{
glyphname = Atilde;
lastChange = "2024-05-10 13:09:07 +0000";
layers = (
{
background = {
anchors = (
{
name = bottom;
pos = (207,0);
},
{
name = ogonek;
pos = (428,0);
},
{
name = top;
pos = (364,921);
}
);
shapes = (
{
closed = 1;
nodes = (
(56,59,o),
(58,57,o),
(62,57,cs),
(80,57,o),
(136,102,o),
(141,125,cs),
(177,289,o),
(221,452,o),
(256,615,cs),
(263,649,o),
(154,547,o),
(148,521,cs),
(115,369,o),
(90,217,o),
(57,65,cs)
);
},
{
closed = 1;
nodes = (
(10,150,o),
(-30,38,o),
(-30,7,cs),
(-30,3,o),
(-29,0,o),
(-26,0,cs),
(-25,0,o),
(-23,1,o),
(-21,3,cs),
(-3,19,o),
(28,29,o),
(57,29,cs),
(84,29,o),
(110,20,o),
(124,1,cs),
(137,-17,o),
(190,122,o),
(190,160,cs),
(190,164,o),
(189,167,o),
(188,169,cs),
(173,189,o),
(146,199,o),
(116,199,cs),
(85,199,o),
(52,188,o),
(29,167,cs)
);
},
{
closed = 1;
nodes = (
(61,407,o),
(4,237,o),
(14,237,cs),
(101,237,l),
(104,236,o),
(111,243,o),
(115,243,cs),
(285,242,l),
(292,244,o),
(301,238,o),
(307,238,cs),
(310,238,l),
(417,238,ls),
(429,238,o),
(489,408,o),
(477,408,cs),
(370,408,l),
(359,405,o),
(350,394,o),
(339,392,c),
(178,389,l),
(171,392,o),
(169,404,o),
(161,407,c),
(74,407,l),
(74,407,l)
);
},
{
closed = 1;
nodes = (
(366,719,o),
(224,615,o),
(256,615,cs),
(264,615,o),
(266,554,o),
(266,470,cs),
(266,373,o),
(263,246,o),
(263,149,cs),
(264,62,ls),
(266,18,o),
(279,0,o),
(305,0,cs),
(313,0,o),
(322,1,o),
(331,4,cs),
(361,13,o),
(455,110,o),
(455,129,cs),
(455,132,o),
(452,134,o),
(447,132,cs),
(440,130,o),
(433,129,o),
(428,129,cs),
(407,129,o),
(395,143,o),
(394,184,cs),
(393,214,ls),
(393,320,o),
(407,503,o),
(407,617,cs),
(407,678,o),
(403,719,o),
(392,719,cs)
);
},
{
closed = 1;
nodes = (
(215,598,o),
(211,563,o),
(211,537,cs),
(211,522,o),
(213,511,o),
(216,511,cs),
(217,511,l),
(305,580,ls),
(311,585,o),
(315,622,o),
(315,647,cs),
(315,662,o),
(313,672,o),
(310,672,cs),
(309,672,l),
(221,603,l),
(221,603,l)
);
},
{
closed = 1;
nodes = (
(454,798,o),
(471,846,o),
(471,869,cs),
(471,876,o),
(469,881,o),
(465,881,cs),
(462,881,o),
(457,879,o),
(451,872,cs),
(439,859,o),
(425,850,o),
(411,850,cs),
(407,850,o),
(403,850,o),
(400,851,cs),
(380,857,o),
(364,898,o),
(336,908,cs),
(331,910,o),
(325,911,o),
(319,911,cs),
(301,911,o),
(276,902,o),
(242,866,cs),
(221,844,o),
(205,797,o),
(205,775,cs),
(205,767,o),
(207,762,o),
(211,762,cs),
(214,762,o),
(219,765,o),
(226,772,cs),
(248,795,o),
(260,802,o),
(270,802,cs),
(274,802,o),
(277,801,o),
(280,800,cs),
(299,793,o),
(315,752,o),
(344,743,cs),
(350,741,o),
(357,740,o),
(363,740,cs),
(385,740,o),
(409,751,o),
(433,776,cs)
);
}
);
};
guides = (
{
pos = (-269,910);
},
{
pos = (232,725);
}
);
layerId = m01;
shapes = (
{
alignment = -1;
pos = (-10,0);
ref = A;
},
{
pos = (155,219);
ref = tildecomb;
}
);
width = 519;
}
);
unicode = 195;
},
{
glyphname = Aturned;
lastChange = "2024-05-10 13:09:07 +0000";
layers = (
{
background = {
anchors = (
{
name = bottom;
pos = (171,-19);
},
{
name = ogonek;
pos = (71,700);
},
{
name = top;
pos = (292,700);
}
);
shapes = (
{
closed = 1;
nodes = (
(443,641,o),
(441,643,o),
(437,643,cs),
(419,643,o),
(363,598,o),
(358,575,cs),
(322,411,o),
(278,248,o),
(243,85,cs),
(236,51,o),
(345,153,o),
(351,179,cs),
(384,331,o),
(409,483,o),
(442,635,cs)
);
},
{
closed = 1;
nodes = (
(489,550,o),
(529,662,o),
(529,693,cs),
(529,697,o),
(528,700,o),
(525,700,cs),
(524,700,o),
(522,699,o),
(520,697,cs),
(502,681,o),
(471,671,o),
(442,671,cs),
(415,671,o),
(389,680,o),
(375,699,cs),
(362,717,o),
(309,578,o),
(309,540,cs),
(309,536,o),
(310,533,o),
(311,531,cs),
(326,511,o),
(353,501,o),
(383,501,cs),
(414,501,o),
(447,512,o),
(470,533,cs)
);
},
{
closed = 1;
nodes = (
(438,293,o),
(495,463,o),
(485,463,cs),
(398,463,l),
(395,464,o),
(388,457,o),
(384,457,cs),
(214,458,l),
(207,456,o),
(198,462,o),
(192,462,cs),
(189,462,l),
(82,462,ls),
(70,462,o),
(10,292,o),
(22,292,cs),
(129,292,l),
(140,295,o),
(149,306,o),
(160,308,c),
(321,311,l),
(328,308,o),
(330,296,o),
(338,293,c),
(425,293,l),
(425,293,l)
);
},
{
closed = 1;
nodes = (
(133,-19,o),
(275,85,o),
(243,85,cs),
(235,85,o),
(233,146,o),
(233,230,cs),
(233,327,o),
(236,454,o),
(236,551,cs),
(235,638,ls),
(233,682,o),
(220,700,o),
(194,700,cs),
(186,700,o),
(177,699,o),
(168,696,cs),
(138,687,o),
(44,590,o),
(44,571,cs),
(44,568,o),
(47,566,o),
(52,568,cs),
(59,570,o),
(66,571,o),
(71,571,cs),
(92,571,o),
(104,557,o),
(105,516,cs),
(106,486,ls),
(106,380,o),
(92,197,o),
(92,83,cs),
(92,22,o),
(96,-19,o),
(107,-19,cs)
);
},
{
closed = 1;
nodes = (
(284,102,o),
(288,137,o),
(288,163,cs),
(288,178,o),
(286,189,o),
(283,189,cs),
(282,189,l),
(194,120,ls),
(188,115,o),
(184,78,o),
(184,53,cs),
(184,38,o),
(186,28,o),
(189,28,cs),
(190,28,l),
(278,97,l),
(278,97,l)
);
}
);
};
layerId = m01;
shapes = (
{
alignment = -1;
angle = 180;
pos = (509,700);
ref = A;
}
);
width = 539;
}
);
unicode = 11375;
},
{
glyphname = AE;
lastChange = "2024-05-10 13:09:58 +0000";
layers = (
{
anchors = (
{
name = bottom;
pos = (368,0);
},
{
name = top;
pos = (498,740);
}
);
background = {
anchors = (
{
name = bottom;
pos = (368,0);
},
{
name = top;
pos = (498,740);
}
);
shapes = (
{
closed = 1;
nodes = (
(320,136,o),
(283,54,o),
(283,19,cs),
(283,10,o),
(286,4,o),
(292,4,cs),
(295,4,o),
(300,6,o),
(306,10,cs),
(327,24,o),
(347,34,o),
(370,34,cs),
(384,34,o),
(400,30,o),
(417,21,cs),
(445,7,o),
(470,-3,o),
(498,-3,cs),
(516,-3,o),
(535,1,o),
(557,12,cs),
(589,28,o),
(683,154,o),
(661,154,cs),
(659,154,o),
(657,153,o),
(655,152,cs),
(640,145,o),
(626,142,o),
(612,142,cs),
(585,142,o),
(557,154,o),
(527,169,cs),
(499,183,o),
(473,191,o),
(446,191,cs),
(416,191,o),
(385,181,o),
(352,158,cs)
);
},
{
closed = 1;
nodes = (
(358,438,o),
(312,314,o),
(312,278,cs),
(312,272,o),
(313,268,o),
(316,268,cs),
(609,269,ls),
(626,269,o),
(673,392,o),
(673,429,cs),
(673,435,o),
(672,439,o),
(669,439,cs),
(376,438,l),
(376,438,l)
);
},
{
closed = 1;
nodes = (
(681,548,o),
(715,662,o),
(715,701,cs),
(715,709,o),
(714,713,o),
(711,713,cs),
(709,713,l),
(690,705,o),
(664,702,o),
(634,702,cs),
(584,702,o),
(524,710,o),
(475,710,cs),
(443,710,o),
(416,707,o),
(398,697,cs),
(380,686,o),
(347,574,o),
(347,536,cs),
(347,529,o),
(348,524,o),
(351,524,cs),
(352,524,o),
(353,524,o),
(354,525,c),
(369,534,o),
(393,536,o),
(422,536,cs),
(470,536,o),
(530,529,o),
(582,529,cs),
(614,529,o),
(643,532,o),
(663,541,cs)
);
},
{
closed = 1;
nodes = (
(65,60,o),
(67,57,o),
(72,57,cs),
(89,57,o),
(143,99,o),
(151,123,cs),
(206,294,o),
(268,463,o),
(324,634,c),
(325,639,o),
(324,642,o),
(321,642,cs),
(304,642,o),
(226,573,o),
(216,542,cs),
(165,384,o),
(119,225,o),
(67,67,cs)
);
},
{
closed = 1;
nodes = (
(20,150,o),
(-20,38,o),
(-20,7,cs),
(-20,3,o),
(-19,0,o),
(-16,0,cs),
(-15,0,o),
(-13,1,o),
(-11,3,cs),
(7,19,o),
(38,29,o),
(67,29,cs),
(94,29,o),
(120,20,o),
(134,1,cs),
(147,-17,o),
(200,122,o),
(200,160,cs),
(200,164,o),
(199,167,o),
(198,169,cs),
(183,189,o),
(156,199,o),
(126,199,cs),
(95,199,o),
(62,188,o),
(39,167,cs)
);
},
{
closed = 1;
nodes = (
(82,408,o),
(25,238,o),
(35,238,cs),
(122,238,l),
(123,236,o),
(123,247,o),
(126,243,c),
(315,242,ls),
(326,242,o),
(379,392,o),
(369,392,cs),
(188,389,l),
(185,393,o),
(187,402,o),
(183,407,c),
(183,408,o),
(183,408,o),
(182,408,cs),
(95,408,l),
(95,408,l)
);
},
{
closed = 1;
nodes = (
(289,624,o),
(285,588,o),
(285,562,cs),
(285,548,o),
(287,536,o),
(290,536,cs),
(291,536,l),
(397,604,ls),
(403,608,o),
(407,635,o),
(407,659,cs),
(407,681,o),
(404,700,o),
(397,696,cs),
(295,628,l),
(295,628,l)
);
},
{
closed = 1;
nodes = (
(418,640,o),
(415,642,o),
(411,642,cs),
(392,642,o),
(335,597,o),
(333,575,cs),
(314,390,o),
(297,200,o),
(279,29,cs),
(277,7,o),
(281,-2,o),
(288,-2,cs),
(308,-2,o),
(357,75,o),
(363,137,cs),
(381,314,o),
(400,472,o),
(417,635,cs)
);
}
);
};
layerId = m01;
shapes = (
{
closed = 1;
nodes = (
(516,-3,o),
(535,1,o),
(557,12,cs),
(589,28,o),
(683,154,o),
(661,154,cs),
(659,154,o),
(657,153,o),
(655,152,cs),
(640,145,o),
(626,142,o),
(612,142,cs),
(585,142,o),
(557,154,o),
(527,169,cs),
(499,183,o),
(473,191,o),
(446,191,cs),
(420,191,o),
(394,184,o),
(366,167,c),
(377,268,l),
(609,269,ls),
(626,269,o),
(673,392,o),
(673,429,cs),
(673,435,o),
(672,439,o),
(669,439,cs),
(396,438,l),
(406,536,l),
(422,536,ls),
(470,536,o),
(530,529,o),
(582,529,cs),
(614,529,o),
(643,532,o),
(663,541,cs),
(681,548,o),
(715,662,o),
(715,701,cs),
(715,709,o),
(714,713,o),
(711,713,cs),
(709,713,l),
(690,705,o),
(664,702,o),
(634,702,cs),
(584,702,o),
(524,710,o),
(475,710,cs),
(443,710,o),
(416,707,o),
(398,697,c),
(396,695,l),
(309,637,l),
(295,628,ls),
(265,606,o),
(223,564,o),
(216,542,cs),
(174,408,l),
(95,408,ls),
(82,408,o),
(25,238,o),
(35,238,cs),
(121,238,l),
(109,198,l),
(83,195,o),
(58,184,o),
(39,167,cs),
(20,150,o),
(-20,38,o),
(-20,7,cs),
(-20,3,o),
(-19,0,o),
(-16,0,cs),
(-15,0,o),
(-13,1,o),
(-11,3,cs),
(7,19,o),
(38,29,o),
(67,29,cs),
(94,29,o),
(120,20,o),
(134,1,cs),
(147,-17,o),
(200,122,o),
(200,160,cs),
(200,164,o),
(199,167,o),
(198,169,cs),
(192,178,o),
(183,184,o),
(173,189,c),
(191,243,l),
(300,242,l),
(279,29,ls),
(277,7,o),
(281,-2,o),
(288,-2,cs),
(293,-2,o),
(300,3,o),
(307,11,c),
(328,24,o),
(347,34,o),
(370,34,cs),
(384,34,o),
(400,30,o),
(417,21,cs),
(445,7,o),
(470,-3,o),
(498,-3,cs)
);
},
{
closed = 1;
nodes = (
(291,536,l),
(332,562,l),
(315,391,l),
(241,390,l)
);
}
);
width = 735;
}
);
unicode = 198;
},
{
glyphname = AEacute;
lastChange = "2024-05-10 13:09:07 +0000";
layers = (
{
background = {
anchors = (
{
name = bottom;
pos = (368,0);
},
{
name = top;
pos = (588,941);
}
);
shapes = (
{
closed = 1;
nodes = (
(320,136,o),
(283,54,o),
(283,19,cs),
(283,10,o),
(286,4,o),
(292,4,cs),
(295,4,o),
(300,6,o),
(306,10,cs),
(327,24,o),
(347,34,o),
(370,34,cs),
(384,34,o),
(400,30,o),
(417,21,cs),
(445,7,o),
(470,-3,o),
(498,-3,cs),
(516,-3,o),
(535,1,o),
(557,12,cs),
(589,28,o),
(683,154,o),
(661,154,cs),
(659,154,o),
(657,153,o),
(655,152,cs),
(640,145,o),
(626,142,o),
(612,142,cs),
(585,142,o),
(557,154,o),
(527,169,cs),
(499,183,o),
(473,191,o),
(446,191,cs),
(416,191,o),
(385,181,o),
(352,158,cs)
);
},
{
closed = 1;
nodes = (
(358,438,o),
(312,314,o),
(312,278,cs),
(312,272,o),
(313,268,o),
(316,268,cs),
(609,269,ls),
(626,269,o),
(673,392,o),
(673,429,cs),
(673,435,o),
(672,439,o),
(669,439,cs),
(376,438,l),
(376,438,l)
);
},
{
closed = 1;
nodes = (
(681,548,o),
(715,662,o),
(715,701,cs),
(715,709,o),
(714,713,o),
(711,713,cs),
(709,713,l),
(690,705,o),
(664,702,o),
(634,702,cs),
(584,702,o),
(524,710,o),
(475,710,cs),
(443,710,o),
(416,707,o),
(398,697,cs),
(380,686,o),
(347,574,o),
(347,536,cs),
(347,529,o),
(348,524,o),
(351,524,cs),
(352,524,o),
(353,524,o),
(354,525,c),
(369,534,o),
(393,536,o),
(422,536,cs),
(470,536,o),
(530,529,o),
(582,529,cs),
(614,529,o),
(643,532,o),
(663,541,cs)
);
},
{
closed = 1;
nodes = (
(65,60,o),
(67,57,o),
(72,57,cs),
(89,57,o),
(143,99,o),
(151,123,cs),
(206,294,o),
(268,463,o),
(324,634,c),
(325,639,o),
(324,642,o),
(321,642,cs),
(304,642,o),
(226,573,o),
(216,542,cs),
(165,384,o),
(119,225,o),
(67,67,cs)
);
},
{
closed = 1;
nodes = (
(20,150,o),
(-20,38,o),
(-20,7,cs),
(-20,3,o),
(-19,0,o),
(-16,0,cs),
(-15,0,o),
(-13,1,o),
(-11,3,cs),
(7,19,o),
(38,29,o),
(67,29,cs),
(94,29,o),
(120,20,o),
(134,1,cs),
(147,-17,o),
(200,122,o),
(200,160,cs),
(200,164,o),
(199,167,o),
(198,169,cs),
(183,189,o),
(156,199,o),
(126,199,cs),
(95,199,o),
(62,188,o),
(39,167,cs)
);
},
{
closed = 1;
nodes = (
(82,408,o),
(25,238,o),
(35,238,cs),
(122,238,l),
(123,236,o),
(123,247,o),
(126,243,c),
(315,242,ls),
(326,242,o),
(379,392,o),
(369,392,cs),
(188,389,l),
(185,393,o),
(187,402,o),
(183,407,c),
(183,408,o),
(183,408,o),
(182,408,cs),
(95,408,l),
(95,408,l)
);
},
{
closed = 1;
nodes = (
(289,624,o),
(285,588,o),
(285,562,cs),
(285,548,o),
(287,536,o),
(290,536,cs),
(291,536,l),
(397,604,ls),
(403,608,o),
(407,635,o),
(407,659,cs),
(407,681,o),
(404,700,o),
(397,696,cs),
(295,628,l),
(295,628,l)
);
},
{
closed = 1;
nodes = (
(418,640,o),
(415,642,o),
(411,642,cs),
(392,642,o),
(335,597,o),
(333,575,cs),
(314,390,o),
(297,200,o),
(279,29,cs),
(277,7,o),
(281,-2,o),
(288,-2,cs),
(308,-2,o),
(357,75,o),
(363,137,cs),
(381,314,o),
(400,472,o),
(417,635,cs)
);
},
{
closed = 1;
nodes = (
(436,769,o),
(450,764,o),
(471,764,cs),
(499,764,o),
(540,774,o),
(550,789,c),
(550,789,o),
(669,919,o),
(674,926,cs),
(677,930,o),
(678,934,o),
(678,937,cs),
(678,945,o),
(667,949,o),
(650,949,cs),
(606,949,o),
(522,924,o),
(500,894,c),
(500,894,o),
(456,799,o),
(444,781,cs)
);
}
);
};
layerId = m01;
shapes = (
{
ref = AE;
},
{
pos = (392,240);
ref = acutecomb;
}
);
width = 735;
}
);
unicode = 508;
},
{
glyphname = AEmacron;
lastChange = "2024-05-10 13:09:07 +0000";
layers = (
{
background = {
anchors = (
{
name = bottom;
pos = (368,0);
},
{
name = top;
pos = (537,909);
}
);
shapes = (
{
closed = 1;
nodes = (
(320,136,o),
(283,54,o),
(283,19,cs),
(283,10,o),
(286,4,o),
(292,4,cs),
(295,4,o),
(300,6,o),
(306,10,cs),
(327,24,o),
(347,34,o),
(370,34,cs),
(384,34,o),
(400,30,o),
(417,21,cs),
(445,7,o),
(470,-3,o),
(498,-3,cs),
(516,-3,o),
(535,1,o),
(557,12,cs),
(589,28,o),
(683,154,o),
(661,154,cs),
(659,154,o),
(657,153,o),
(655,152,cs),
(640,145,o),
(626,142,o),
(612,142,cs),
(585,142,o),
(557,154,o),
(527,169,cs),
(499,183,o),
(473,191,o),
(446,191,cs),
(416,191,o),
(385,181,o),
(352,158,cs)
);
},
{
closed = 1;
nodes = (
(358,438,o),
(312,314,o),
(312,278,cs),
(312,272,o),
(313,268,o),
(316,268,cs),
(609,269,ls),
(626,269,o),
(673,392,o),
(673,429,cs),
(673,435,o),
(672,439,o),
(669,439,cs),
(376,438,l),
(376,438,l)
);
},
{
closed = 1;
nodes = (
(681,548,o),
(715,662,o),
(715,701,cs),
(715,709,o),
(714,713,o),
(711,713,cs),
(709,713,l),
(690,705,o),
(664,702,o),
(634,702,cs),
(584,702,o),
(524,710,o),
(475,710,cs),
(443,710,o),
(416,707,o),
(398,697,cs),
(380,686,o),
(347,574,o),
(347,536,cs),
(347,529,o),
(348,524,o),
(351,524,cs),
(352,524,o),
(353,524,o),
(354,525,c),
(369,534,o),
(393,536,o),
(422,536,cs),
(470,536,o),
(530,529,o),
(582,529,cs),
(614,529,o),
(643,532,o),
(663,541,cs)
);
},
{
closed = 1;
nodes = (
(65,60,o),
(67,57,o),
(72,57,cs),
(89,57,o),
(143,99,o),
(151,123,cs),
(206,294,o),
(268,463,o),
(324,634,c),
(325,639,o),
(324,642,o),
(321,642,cs),
(304,642,o),
(226,573,o),
(216,542,cs),
(165,384,o),
(119,225,o),
(67,67,cs)
);
},
{
closed = 1;
nodes = (
(20,150,o),
(-20,38,o),
(-20,7,cs),
(-20,3,o),
(-19,0,o),
(-16,0,cs),
(-15,0,o),
(-13,1,o),
(-11,3,cs),
(7,19,o),
(38,29,o),
(67,29,cs),
(94,29,o),
(120,20,o),
(134,1,cs),
(147,-17,o),
(200,122,o),
(200,160,cs),
(200,164,o),
(199,167,o),
(198,169,cs),
(183,189,o),
(156,199,o),
(126,199,cs),
(95,199,o),
(62,188,o),
(39,167,cs)
);
},
{
closed = 1;
nodes = (
(82,408,o),
(25,238,o),
(35,238,cs),
(122,238,l),
(123,236,o),
(123,247,o),
(126,243,c),
(315,242,ls),
(326,242,o),
(379,392,o),
(369,392,cs),
(188,389,l),
(185,393,o),
(187,402,o),
(183,407,c),
(183,408,o),
(183,408,o),
(182,408,cs),
(95,408,l),
(95,408,l)
);
},
{
closed = 1;
nodes = (
(289,624,o),
(285,588,o),
(285,562,cs),
(285,548,o),
(287,536,o),
(290,536,cs),
(291,536,l),
(397,604,ls),
(403,608,o),
(407,635,o),
(407,659,cs),
(407,681,o),
(404,700,o),
(397,696,cs),
(295,628,l),
(295,628,l)
);
},
{
closed = 1;
nodes = (
(418,640,o),
(415,642,o),
(411,642,cs),
(392,642,o),
(335,597,o),
(333,575,cs),
(314,390,o),
(297,200,o),
(279,29,cs),
(277,7,o),
(281,-2,o),
(288,-2,cs),
(308,-2,o),
(357,75,o),
(363,137,cs),
(381,314,o),
(400,472,o),
(417,635,cs)
);
},
{
closed = 1;
nodes = (
(409,900,o),
(377,820,o),
(377,789,cs),
(377,782,o),
(379,778,o),
(383,778,cs),
(614,776,ls),
(630,776,o),
(662,856,o),
(662,886,cs),
(662,894,o),
(660,898,o),
(656,898,cs),
(425,900,l),
(425,900,l)
);
}
);
};
layerId = m01;
shapes = (
{
ref = AE;
},
{
pos = (377,240);
ref = macroncomb;
}
);
width = 735;
}
);
unicode = 482;
},
{
glyphname = B;
lastChange = "2024-05-10 13:09:58 +0000";
layers = (
{
anchors = (
{
name = bottom;
pos = (185,0);
},
{
name = center;
pos = (81,267);
},
{
name = left;
pos = (128,596);
},
{
name = top;
pos = (245,700);
}
);
background = {
anchors = (
{
name = bottom;
pos = (185,0);
},
{
name = center;
pos = (81,267);
},
{
name = left;
pos = (128,596);
},
{
name = top;
pos = (245,700);
}
);
shapes = (
{
closed = 1;
nodes = (
(290,-3,o),
(413,143,o),
(390,147,cs),
(258,172,o),
(173,184,o),
(118,184,cs),
(81,184,o),
(57,179,o),
(41,168,cs),
(22,155,o),
(-20,40,o),
(-20,7,cs),
(-20,2,o),
(-19,-1,o),
(-16,-1,cs),
(-15,-1,o),
(-14,-1,o),
(-13,0,cs),
(-9,3,o),
(26,18,o),
(103,18,cs),
(145,18,o),
(200,14,o),
(270,1,cs)
);
},
{
closed = 1;
nodes = (
(165,602,o),
(161,606,o),
(154,606,cs),
(133,606,o),
(79,560,o),
(73,529,cs),
(55,425,o),
(28,118,o),
(26,106,c),
(26,98,o),
(29,94,o),
(35,94,cs),
(56,94,o),
(111,143,o),
(114,172,c),
(114,172,o),
(147,501,o),
(163,591,cs)
);
},
{
closed = 1;
nodes = (
(234,316,o),
(225,296,o),
(225,284,cs),
(225,275,o),
(230,270,o),
(238,270,cs),
(254,270,o),
(281,286,o),
(312,322,cs),
(396,421,o),
(429,497,o),
(429,555,cs),
(429,661,o),
(319,703,o),
(215,703,cs),
(185,703,o),
(155,699,o),
(129,692,cs),
(107,687,o),
(14,531,o),
(41,538,cs),
(79,547,o),
(113,551,o),
(144,551,cs),
(242,551,o),
(302,507,o),
(302,445,cs),
(302,414,o),
(288,379,o),
(256,342,cs)
);
},
{
closed = 1;
nodes = (
(109,484,o),
(60,356,o),
(60,319,cs),
(60,314,o),
(61,310,o),
(63,309,cs),
(284,240,o),
(338,203,o),
(338,173,cs),
(338,159,o),
(326,146,o),
(314,132,cs),
(285,98,o),
(273,70,o),
(273,54,cs),
(273,44,o),
(278,38,o),
(287,38,cs),
(302,38,o),
(328,54,o),
(360,92,cs),
(433,180,o),
(464,242,o),
(464,289,cs),
(464,395,o),
(307,421,o),
(125,479,cs)
);
}
);
};
layerId = m01;
shapes = (
{
closed = 1;
nodes = (
(-15,-1,o),
(-14,-1,o),
(-13,0,cs),
(-9,3,o),
(26,18,o),
(103,18,cs),
(145,18,o),
(200,14,o),
(270,1,cs),
(285,-2,o),
(356,78,o),
(383,121,c),
(440,194,o),
(464,247,o),
(464,289,cs),
(464,340,o),
(428,372,o),
(370,399,c),
(412,462,o),
(429,513,o),
(429,555,cs),
(429,661,o),
(319,703,o),
(215,703,cs),
(185,703,o),
(155,699,o),
(129,692,cs),
(107,687,o),
(14,531,o),
(41,538,cs),
(80,546,l),
(76,540,o),
(74,534,o),
(73,529,cs),
(59,449,o),
(40,249,o),
(31,156,c),
(10,122,o),
(-20,35,o),
(-20,7,cs),
(-20,2,o),
(-19,-1,o),
(-16,-1,cs)
);
},
{
closed = 1;
nodes = (
(233,175,o),
(165,184,o),
(118,184,cs),
(115,184,l),
(126,289,l),
(295,232,o),
(338,200,o),
(338,173,cs),
(338,168,o),
(336,163,o),
(333,157,c)
);
},
{
closed = 1;
nodes = (
(254,441,o),
(202,455,o),
(147,472,c),
(157,551,l),
(247,547,o),
(302,504,o),
(302,445,cs),
(302,439,o),
(301,432,o),
(300,425,c)
);
}
);
width = 493;
}
);
unicode = 66;
userData = {
KernOnName = B;
};
},
{
glyphname = Bdotbelow;
lastChange = "2024-05-10 13:09:07 +0000";
layers = (
{
background = {
anchors = (
{
name = bottom;
pos = (185,0);
},
{
name = center;
pos = (81,267);
},
{
name = left;
pos = (128,596);
},
{
name = top;
pos = (245,700);
}
);
shapes = (
{
closed = 1;
nodes = (
(290,-3,o),
(413,143,o),
(390,147,cs),
(258,172,o),
(173,184,o),
(118,184,cs),
(81,184,o),
(57,179,o),
(41,168,cs),
(22,155,o),
(-20,40,o),
(-20,7,cs),
(-20,2,o),
(-19,-1,o),
(-16,-1,cs),
(-15,-1,o),
(-14,-1,o),
(-13,0,cs),
(-9,3,o),
(26,18,o),
(103,18,cs),
(145,18,o),
(200,14,o),
(270,1,cs)
);
},
{
closed = 1;
nodes = (
(165,602,o),
(161,606,o),
(154,606,cs),
(133,606,o),
(79,560,o),
(73,529,cs),
(55,425,o),
(28,118,o),
(26,106,c),
(26,98,o),
(29,94,o),
(35,94,cs),
(56,94,o),
(111,143,o),
(114,172,c),
(114,172,o),
(147,501,o),
(163,591,cs)
);
},
{
closed = 1;
nodes = (
(234,316,o),
(225,296,o),
(225,284,cs),
(225,275,o),
(230,270,o),
(238,270,cs),
(254,270,o),
(281,286,o),
(312,322,cs),
(396,421,o),
(429,497,o),
(429,555,cs),
(429,661,o),
(319,703,o),
(215,703,cs),
(185,703,o),
(155,699,o),
(129,692,cs),
(107,687,o),
(14,531,o),
(41,538,cs),
(79,547,o),
(113,551,o),
(144,551,cs),
(242,551,o),
(302,507,o),
(302,445,cs),
(302,414,o),
(288,379,o),
(256,342,cs)
);
},
{
closed = 1;
nodes = (
(109,484,o),
(60,356,o),
(60,319,cs),
(60,314,o),
(61,310,o),
(63,309,cs),
(284,240,o),
(338,203,o),
(338,173,cs),
(338,159,o),
(326,146,o),
(314,132,cs),
(285,98,o),
(273,70,o),
(273,54,cs),
(273,44,o),
(278,38,o),
(287,38,cs),
(302,38,o),
(328,54,o),
(360,92,cs),
(433,180,o),
(464,242,o),
(464,289,cs),
(464,395,o),
(307,421,o),
(125,479,cs)
);
},
{
closed = 1;
nodes = (
(178,-43,o),
(88,-132,o),
(97,-142,cs),
(166,-218,ls),
(174,-228,o),
(265,-138,o),
(256,-128,cs),
(187,-53,l),
(187,-53,l)
);
}
);
};
layerId = m01;
shapes = (
{
ref = B;
},
{
pos = (70,0);
ref = dotbelowcomb;
}
);
width = 493;
}
);
unicode = 7684;
},
{
glyphname = Bhook;
lastChange = "2024-05-10 13:09:58 +0000";
layers = (
{
anchors = (
{
name = bottom;
pos = (319,0);
},
{
name = center;
pos = (319,350);
},
{
name = left;
pos = (202,596);
},
{
name = top;
pos = (319,700);
}
);
background = {
anchors = (
{
name = bottom;
pos = (319,0);
},
{
name = center;
pos = (319,350);
},
{
name = left;
pos = (202,596);
},
{
name = top;
pos = (319,700);
}
);
shapes = (
{
closed = 1;
nodes = (
(468,-3,o),
(591,143,o),
(568,147,cs),
(436,172,o),
(351,184,o),
(296,184,cs),
(259,184,o),
(235,179,o),
(219,168,cs),
(200,155,o),
(158,39,o),
(158,7,cs),
(158,0,o),
(160,-3,o),
(165,0,cs),
(169,3,o),
(204,18,o),
(281,18,cs),
(323,18,o),
(378,14,o),
(448,1,cs)
);
},
{
closed = 1;
nodes = (
(350,641,o),
(347,645,o),
(340,645,cs),
(318,645,o),
(264,599,o),
(259,568,cs),
(243,473,o),
(205,108,o),
(204,106,c),
(203,98,o),
(207,94,o),
(213,94,cs),
(234,94,o),
(289,143,o),
(292,172,cs),
(293,185,o),
(330,526,o),
(348,630,cs)
);
},
{
closed = 1;
nodes = (
(411,309,o),
(402,291,o),
(402,279,cs),
(402,271,o),
(407,266,o),
(416,266,cs),
(432,266,o),
(462,284,o),
(493,322,cs),
(582,431,o),
(616,512,o),
(616,570,cs),
(616,677,o),
(504,711,o),
(401,711,cs),
(388,711,o),
(375,710,o),
(362,709,cs),
(340,707,o),
(244,559,o),
(270,561,cs),
(288,562,o),
(306,563,o),
(322,563,cs),
(431,563,o),
(492,528,o),
(492,465,cs),
(492,430,o),
(473,386,o),
(431,334,cs)
);
},
{
closed = 1;
nodes = (
(287,484,o),
(238,356,o),
(238,319,cs),
(238,314,o),
(239,310,o),
(241,309,cs),
(462,240,o),
(516,203,o),
(516,173,cs),
(516,159,o),
(504,146,o),
(492,132,cs),
(463,98,o),
(451,70,o),
(451,54,cs),
(451,44,o),
(456,38,o),
(465,38,cs),
(480,38,o),
(506,54,o),
(538,92,cs),
(611,180,o),
(642,242,o),
(642,289,cs),
(642,395,o),
(485,421,o),
(303,479,cs)
);
},
{
closed = 1;
nodes = (
(347,563,o),
(445,710,o),
(421,710,cs),
(399,711,o),
(379,712,o),
(359,712,cs),
(253,712,o),
(176,690,o),
(32,512,cs),
(21,500,o),
(17,492,o),
(17,488,cs),
(17,485,o),
(18,484,o),
(21,484,cs),
(35,484,o),
(77,512,o),
(104,546,cs),
(112,556,o),
(132,565,o),
(239,565,cs),
(263,565,o),
(292,565,o),
(325,564,cs)
);
},
{
closed = 1;
nodes = (
(120,581,o),
(119,583,o),
(115,583,cs),
(99,583,o),
(31,527,o),
(20,500,cs),
(13,482,o),
(10,465,o),
(10,449,cs),
(10,396,o),
(43,356,o),
(85,356,cs),
(98,356,o),
(113,360,o),
(128,370,cs),
(161,391,o),
(213,476,o),
(213,502,cs),
(213,506,o),
(211,509,o),
(207,509,cs),
(204,509,o),
(200,508,o),
(194,504,cs),
(183,497,o),
(169,493,o),
(155,493,cs),
(132,493,o),
(110,506,o),
(110,537,cs),
(110,547,o),
(112,560,o),
(118,574,cs)
);
}
);
};
layerId = m01;
shapes = (
{
closed = 1;
nodes = (
(169,3,o),
(204,18,o),
(281,18,cs),
(323,18,o),
(378,14,o),
(448,1,cs),
(463,-2,o),
(534,78,o),
(561,121,c),
(618,194,o),
(642,247,o),
(642,289,cs),
(642,339,o),
(606,372,o),
(549,398,c),
(597,470,o),
(616,526,o),
(616,570,cs),
(616,677,o),
(504,711,o),
(401,711,cs),
(399,711,l),
(359,712,ls),
(261,712,o),
(188,693,o),
(64,550,c),
(44,533,o),
(25,513,o),
(20,500,cs),
(13,482,o),
(10,465,o),
(10,449,cs),
(10,396,o),
(43,356,o),
(85,356,cs),
(98,356,o),
(113,360,o),
(128,370,cs),
(161,391,o),
(213,476,o),
(213,502,cs),
(213,506,o),
(211,509,o),
(207,509,cs),
(204,509,o),
(200,508,o),
(194,504,cs),
(183,497,o),
(169,493,o),
(155,493,cs),
(132,493,o),
(110,506,o),
(110,537,cs),
(110,541,o),
(110,547,o),
(111,552,c),
(124,559,o),
(155,565,o),
(239,565,cs),
(258,565,l),
(246,489,o),
(221,260,o),
(210,157,c),
(189,124,o),
(158,35,o),
(158,7,cs),
(158,0,o),
(160,-3,o),
(165,0,cs)
);
},
{
closed = 1;
nodes = (
(411,175,o),
(343,184,o),
(296,184,cs),
(293,184,l),
(305,288,l),
(473,232,o),
(516,200,o),
(516,173,cs),
(516,168,o),
(514,163,o),
(511,157,c)
);
},
{
closed = 1;
nodes = (
(438,439,o),
(383,454,o),
(326,472,c),
(338,563,l),
(437,559,o),
(492,525,o),
(492,465,cs),
(492,452,o),
(489,438,o),
(484,423,c)
);
}
);
width = 671;
}
);
metricRight = B;
unicode = 385;
},
{
glyphname = Bstroke;
lastChange = "2024-05-10 13:09:58 +0000";
layers = (
{
anchors = (
{
name = bottom;
pos = (240,0);
},
{
name = center;
pos = (136,267);
},
{
name = left;
pos = (183,596);
},
{
name = top;
pos = (300,700);
}
);
background = {
anchors = (
{
name = bottom;
pos = (240,0);
},
{
name = center;
pos = (136,267);
},
{
name = left;
pos = (183,596);
},
{
name = top;
pos = (300,700);
}
);
shapes = (
{
closed = 1;
nodes = (
(345,-3,o),
(468,143,o),
(445,147,cs),
(313,172,o),
(228,184,o),
(173,184,cs),
(136,184,o),
(112,179,o),
(96,168,cs),
(77,155,o),
(35,40,o),
(35,7,cs),
(35,2,o),
(36,-1,o),
(39,-1,cs),
(40,-1,o),
(41,-1,o),
(42,0,cs),
(46,3,o),
(81,18,o),
(158,18,cs),
(200,18,o),
(255,14,o),
(325,1,cs)
);
},
{
closed = 1;
nodes = (
(220,602,o),
(216,606,o),
(209,606,cs),
(188,606,o),
(134,560,o),
(128,529,cs),
(110,425,o),
(83,118,o),
(81,106,c),
(81,98,o),
(84,94,o),
(90,94,cs),
(111,94,o),
(166,143,o),
(169,172,c),
(169,172,o),
(202,501,o),
(218,591,cs)
);
},
{
closed = 1;
nodes = (
(289,316,o),
(280,296,o),
(280,284,cs),
(280,275,o),
(285,270,o),
(293,270,cs),
(309,270,o),
(336,286,o),
(367,322,cs),
(451,421,o),
(484,497,o),
(484,555,cs),
(484,661,o),
(374,703,o),
(270,703,cs),
(240,703,o),
(210,699,o),
(184,692,cs),
(162,687,o),
(69,531,o),
(96,538,cs),
(134,547,o),
(168,551,o),
(199,551,cs),
(297,551,o),
(357,507,o),
(357,445,cs),
(357,414,o),
(343,379,o),
(311,342,cs)
);
},
{
closed = 1;
nodes = (
(164,484,o),
(115,356,o),
(115,319,cs),
(115,314,o),
(116,310,o),
(118,309,cs),
(339,240,o),
(393,203,o),
(393,173,cs),
(393,159,o),
(381,146,o),
(369,132,cs),
(340,98,o),
(328,70,o),
(328,54,cs),
(328,44,o),
(333,38,o),
(342,38,cs),
(357,38,o),
(383,54,o),
(415,92,cs),
(488,180,o),
(519,242,o),
(519,289,cs),
(519,395,o),
(362,421,o),
(180,479,cs)
);
},
{
closed = 1;
nodes = (
(26,353,o),
(-20,229,o),
(-20,193,cs),
(-20,187,o),
(-19,183,o),
(-16,183,cs),
(120,185,ls),
(137,185,o),
(184,308,o),
(184,345,cs),
(184,351,o),
(183,355,o),
(180,355,cs),
(44,353,l),
(44,353,l)
);
}
);
};
layerId = m01;
shapes = (
{
closed = 1;
nodes = (
(40,-1,o),
(41,-1,o),
(42,0,cs),
(46,3,o),
(81,18,o),
(158,18,cs),
(200,18,o),
(255,14,o),
(325,1,cs),
(340,-2,o),
(411,78,o),
(438,121,c),
(495,194,o),
(519,247,o),
(519,289,cs),
(519,340,o),
(483,372,o),
(425,399,c),
(467,462,o),
(484,513,o),
(484,555,cs),
(484,661,o),
(374,703,o),
(270,703,cs),
(240,703,o),
(210,699,o),
(184,692,cs),
(162,687,o),
(69,531,o),
(96,538,cs),
(135,546,l),
(131,540,o),
(129,534,o),
(128,529,cs),
(121,490,o),
(113,423,o),
(106,354,c),
(44,353,ls),
(26,353,o),
(-20,229,o),
(-20,193,cs),
(-20,187,o),
(-19,183,o),
(-16,183,cs),
(89,185,l),
(86,156,l),
(65,122,o),
(35,35,o),
(35,7,cs),
(35,2,o),
(36,-1,o),
(39,-1,cs)
);
},
{
closed = 1;
nodes = (
(288,175,o),
(220,184,o),
(173,184,cs),
(170,184,l),
(181,289,l),
(350,232,o),
(393,200,o),
(393,173,cs),
(393,168,o),
(391,163,o),
(388,157,c)
);
},
{
closed = 1;
nodes = (
(309,441,o),
(257,455,o),
(202,472,c),
(212,551,l),
(302,547,o),
(357,504,o),
(357,445,cs),
(357,439,o),
(356,432,o),
(355,425,c)
);
}
);
width = 548;
}
);
metricRight = B;
unicode = 579;
},
{
glyphname = C;
lastChange = "2024-05-10 13:09:58 +0000";
layers = (
{
anchors = (
{
name = bottom;
pos = (178,0);
},
{
name = top;
pos = (350,750);
}
);
background = {
anchors = (
{
name = bottom;
pos = (178,0);
},
{
name = top;
pos = (350,750);
}
);
shapes = (
{
closed = 1;
nodes = (
(361,616,o),
(364,622,o),
(364,625,cs),
(364,627,o),
(363,628,o),
(360,628,cs),
(341,628,o),
(261,582,o),
(224,543,cs),
(67,380,o),
(10,251,o),
(10,159,cs),
(10,43,o),
(99,-16,o),
(190,-16,cs),
(238,-16,o),
(287,1,o),
(323,35,cs),
(353,63,o),
(419,218,o),
(402,218,cs),
(401,218,o),
(398,216,o),
(395,213,cs),
(357,177,o),
(308,159,o),
(263,159,cs),
(202,159,o),
(150,193,o),
(150,266,cs),
(150,339,o),
(202,452,o),
(352,607,cs)
);
},
{
closed = 1;
nodes = (
(393,556,o),
(436,672,o),
(436,706,cs),
(436,712,o),
(435,716,o),
(432,716,cs),
(431,716,o),
(430,716,o),
(429,715,c),
(408,705,o),
(371,698,o),
(334,698,cs),
(299,698,o),
(264,704,o),
(240,717,cs),
(225,726,o),
(174,598,o),
(174,559,cs),
(174,554,o),
(176,550,o),
(178,549,cs),
(203,534,o),
(239,528,o),
(274,528,cs),
(312,528,o),
(350,535,o),
(373,547,cs)
);
}
);
};
guides = (
{
pos = (683,541);
}
);
layerId = m01;
shapes = (
{
closed = 1;
nodes = (
(238,-16,o),
(287,1,o),
(323,35,cs),
(353,63,o),
(419,218,o),
(402,218,cs),
(401,218,o),
(398,216,o),
(395,213,cs),
(357,177,o),
(308,159,o),
(263,159,cs),
(202,159,o),
(150,193,o),
(150,266,cs),
(150,326,o),
(185,413,o),
(281,528,c),
(317,529,o),
(351,536,o),
(373,547,cs),
(393,556,o),
(436,672,o),
(436,706,cs),
(436,712,o),
(435,716,o),
(432,716,cs),
(431,716,o),
(430,716,o),
(429,715,c),
(408,705,o),
(371,698,o),
(334,698,cs),
(299,698,o),
(264,704,o),
(240,717,cs),
(225,726,o),
(174,598,o),
(174,559,cs),
(174,554,o),
(176,550,o),
(178,549,cs),
(189,543,o),
(202,538,o),
(216,534,c),
(65,375,o),
(10,249,o),
(10,159,cs),
(10,43,o),
(99,-16,o),
(190,-16,cs)
);
}
);
width = 456;
}
);
unicode = 67;
userData = {
KernOnName = C;
};
},
{
glyphname = Cacute;
lastChange = "2024-05-10 13:09:07 +0000";
layers = (
{
background = {
anchors = (
{
name = bottom;
pos = (178,0);
},
{
name = top;
pos = (440,951);
}
);
shapes = (
{
closed = 1;
nodes = (
(361,616,o),
(364,622,o),
(364,625,cs),
(364,627,o),
(363,628,o),
(360,628,cs),
(341,628,o),
(261,582,o),
(224,543,cs),
(67,380,o),
(10,251,o),
(10,159,cs),
(10,43,o),
(99,-16,o),
(190,-16,cs),
(238,-16,o),
(287,1,o),
(323,35,cs),
(353,63,o),
(419,218,o),
(402,218,cs),
(401,218,o),
(398,216,o),
(395,213,cs),
(357,177,o),
(308,159,o),
(263,159,cs),
(202,159,o),
(150,193,o),
(150,266,cs),
(150,339,o),
(202,452,o),
(352,607,cs)
);
},
{
closed = 1;
nodes = (
(393,556,o),
(436,672,o),
(436,706,cs),
(436,712,o),
(435,716,o),
(432,716,cs),
(431,716,o),
(430,716,o),
(429,715,c),
(408,705,o),
(371,698,o),
(334,698,cs),
(299,698,o),
(264,704,o),
(240,717,cs),
(225,726,o),
(174,598,o),
(174,559,cs),
(174,554,o),
(176,550,o),
(178,549,cs),
(203,534,o),
(239,528,o),
(274,528,cs),
(312,528,o),
(350,535,o),
(373,547,cs)
);
},
{
closed = 1;
nodes = (
(288,779,o),
(302,774,o),
(323,774,cs),
(351,774,o),
(392,784,o),
(402,799,c),
(402,799,o),
(521,929,o),
(526,936,cs),
(529,940,o),
(530,944,o),
(530,947,cs),
(530,955,o),
(519,959,o),
(502,959,cs),
(458,959,o),
(374,934,o),
(352,904,c),
(352,904,o),
(308,809,o),
(296,791,cs)
);
}
);
};
guides = (
{
pos = (544,910);
},
{
pos = (321,726);
}
);
layerId = m01;
shapes = (
{
ref = C;
},
{
pos = (244,250);
ref = acutecomb;
}
);
width = 456;
}
);
unicode = 262;
},
{
glyphname = Ccaron;
lastChange = "2024-05-10 13:09:07 +0000";
layers = (
{
background = {
anchors = (
{
name = bottom;
pos = (178,0);
},
{
name = top;
pos = (390,981);
}
);
shapes = (
{
closed = 1;
nodes = (
(361,616,o),
(364,622,o),
(364,625,cs),
(364,627,o),
(363,628,o),
(360,628,cs),
(341,628,o),
(261,582,o),
(224,543,cs),
(67,380,o),
(10,251,o),
(10,159,cs),
(10,43,o),
(99,-16,o),
(190,-16,cs),
(238,-16,o),
(287,1,o),
(323,35,cs),
(353,63,o),
(419,218,o),
(402,218,cs),
(401,218,o),
(398,216,o),
(395,213,cs),
(357,177,o),
(308,159,o),
(263,159,cs),
(202,159,o),
(150,193,o),
(150,266,cs),
(150,339,o),
(202,452,o),
(352,607,cs)
);
},
{
closed = 1;
nodes = (
(393,556,o),
(436,672,o),
(436,706,cs),
(436,712,o),
(435,716,o),
(432,716,cs),
(431,716,o),
(430,716,o),
(429,715,c),
(408,705,o),
(371,698,o),
(334,698,cs),
(299,698,o),
(264,704,o),
(240,717,cs),
(225,726,o),
(174,598,o),
(174,559,cs),
(174,554,o),
(176,550,o),
(178,549,cs),
(203,534,o),
(239,528,o),
(274,528,cs),
(312,528,o),
(350,535,o),
(373,547,cs)
);
},
{
closed = 1;
nodes = (
(324,956,o),
(319,958,o),
(313,958,cs),
(280,958,o),
(215,913,o),
(215,887,cs),
(215,883,o),
(216,880,o),
(218,877,c),
(314,775,l),
(318,772,o),
(323,770,o),
(329,770,cs),
(362,770,o),
(427,815,o),
(427,841,cs),
(427,845,o),
(426,848,o),
(424,851,c),
(328,953,l),
(328,953,l)
);
},
{
closed = 1;
nodes = (
(351,811,o),
(349,806,o),
(349,801,cs),
(349,795,o),
(355,792,o),
(363,792,cs),
(379,792,o),
(404,802,o),
(419,821,cs),
(504,929,ls),
(510,936,o),
(512,942,o),
(512,947,cs),
(512,954,o),
(506,957,o),
(497,957,cs),
(482,957,o),
(457,946,o),
(442,927,cs),
(357,819,l),
(357,819,l)
);
}
);
};
layerId = m01;
shapes = (
{
ref = C;
},
{
pos = (215,250);
ref = caroncomb;
}
);
width = 456;
}
);
unicode = 268;
},
{
glyphname = Ccedilla;
lastChange = "2024-05-10 13:09:07 +0000";
layers = (
{
background = {
anchors = (
{
name = bottom;
pos = (166,-290);
},
{
name = top;
pos = (350,750);
}
);
shapes = (
{
closed = 1;
nodes = (
(361,616,o),
(364,622,o),
(364,625,cs),
(364,627,o),
(363,628,o),
(360,628,cs),
(341,628,o),
(261,582,o),
(224,543,cs),
(67,380,o),
(10,251,o),
(10,159,cs),
(10,43,o),
(99,-16,o),
(190,-16,cs),
(238,-16,o),
(287,1,o),
(323,35,cs),
(353,63,o),
(419,218,o),
(402,218,cs),
(401,218,o),
(398,216,o),
(395,213,cs),
(357,177,o),
(308,159,o),
(263,159,cs),
(202,159,o),
(150,193,o),
(150,266,cs),
(150,339,o),
(202,452,o),
(352,607,cs)
);
},
{
closed = 1;
nodes = (
(393,556,o),
(436,672,o),
(436,706,cs),
(436,712,o),
(435,716,o),
(432,716,cs),
(431,716,o),
(430,716,o),
(429,715,c),
(408,705,o),
(371,698,o),
(334,698,cs),
(299,698,o),
(264,704,o),
(240,717,cs),
(225,726,o),
(174,598,o),
(174,559,cs),
(174,554,o),
(176,550,o),
(178,549,cs),
(203,534,o),
(239,528,o),
(274,528,cs),
(312,528,o),
(350,535,o),
(373,547,cs)
);
},
{
closed = 1;
nodes = (
(216,6,o),
(225,33,o),
(225,50,cs),
(225,62,o),
(220,69,o),
(213,69,cs),
(203,69,o),
(186,56,o),
(166,25,cs),
(131,-29,o),
(103,-80,o),
(76,-121,cs),
(68,-133,o),
(65,-142,o),
(65,-147,cs),
(65,-151,o),
(67,-153,o),
(71,-153,cs),
(77,-153,o),
(86,-149,o),
(97,-142,cs),
(112,-132,o),
(134,-127,o),
(154,-127,cs),
(188,-127,o),
(220,-141,o),
(220,-174,cs),
(220,-182,o),
(218,-191,o),
(214,-202,cs),
(211,-208,o),
(210,-213,o),
(210,-216,cs),
(210,-219,o),
(211,-221,o),
(213,-221,cs),
(227,-221,o),
(279,-166,o),
(296,-126,cs),
(304,-108,o),
(308,-92,o),
(308,-78,cs),
(308,-44,o),
(284,-27,o),
(249,-27,cs),
(215,-27,o),
(171,-42,o),
(125,-72,c),
(146,-93,l),
(165,-63,o),
(185,-43,o),
(196,-25,cs)
);
},
{
closed = 1;
nodes = (
(283,-152,o),
(294,-106,o),
(294,-85,cs),
(294,-77,o),
(293,-73,o),
(290,-73,cs),
(286,-73,o),
(280,-79,o),
(271,-95,cs),
(249,-135,o),
(223,-181,o),
(174,-181,cs),
(160,-181,o),
(145,-178,o),
(127,-169,cs),
(110,-161,o),
(10,-260,o),
(29,-269,cs),
(58,-283,o),
(87,-290,o),
(114,-290,cs),
(172,-290,o),
(225,-258,o),
(265,-185,cs)
);
}
);
};
guides = (
{
pos = (168,-288);
}
);
layerId = m01;
shapes = (
{
ref = C;
},
{
pos = (-23,-36);
ref = cedillacomb;
}
);
width = 456;
}
);
unicode = 199;
},
{
glyphname = Ccircumflex;
lastChange = "2024-05-10 13:09:07 +0000";
layers = (
{
background = {
anchors = (
{
name = bottom;
pos = (178,0);
},
{
name = left;
pos = (269,853);
},
{
name = right;
pos = (530,882);
},
{
name = top;
pos = (377,950);
}
);
shapes = (
{
closed = 1;
nodes = (
(361,616,o),
(364,622,o),
(364,625,cs),
(364,627,o),
(363,628,o),
(360,628,cs),
(341,628,o),
(261,582,o),
(224,543,cs),
(67,380,o),
(10,251,o),
(10,159,cs),
(10,43,o),
(99,-16,o),
(190,-16,cs),
(238,-16,o),
(287,1,o),
(323,35,cs),
(353,63,o),
(419,218,o),
(402,218,cs),
(401,218,o),
(398,216,o),
(395,213,cs),
(357,177,o),
(308,159,o),
(263,159,cs),
(202,159,o),
(150,193,o),
(150,266,cs),
(150,339,o),
(202,452,o),
(352,607,cs)
);
},
{
closed = 1;
nodes = (
(393,556,o),
(436,672,o),
(436,706,cs),
(436,712,o),
(435,716,o),
(432,716,cs),
(431,716,o),
(430,716,o),
(429,715,c),
(408,705,o),
(371,698,o),
(334,698,cs),
(299,698,o),
(264,704,o),
(240,717,cs),
(225,726,o),
(174,598,o),
(174,559,cs),
(174,554,o),
(176,550,o),
(178,549,cs),
(203,534,o),
(239,528,o),
(274,528,cs),
(312,528,o),
(350,535,o),
(373,547,cs)
);
},
{
closed = 1;
nodes = (
(406,758,o),
(411,756,o),
(417,756,cs),
(450,756,o),
(515,801,o),
(515,827,cs),
(515,831,o),
(514,834,o),
(512,837,c),
(416,939,l),
(412,942,o),
(407,944,o),
(401,944,cs),
(368,944,o),
(303,899,o),
(303,873,cs),
(303,869,o),
(304,866,o),
(306,863,c),
(402,761,l),
(402,761,l)
);
},
{
closed = 1;
nodes = (
(379,903,o),
(381,908,o),
(381,913,cs),
(381,919,o),
(375,922,o),
(367,922,cs),
(351,922,o),
(326,912,o),
(311,893,cs),
(226,785,ls),
(220,778,o),
(218,772,o),
(218,767,cs),
(218,760,o),
(224,757,o),
(233,757,cs),
(248,757,o),
(273,768,o),
(288,787,cs),
(373,895,l),
(373,895,l)
);
}
);
};
guides = (
{
pos = (523,910);
},
{
pos = (300,726);
}
);
layerId = m01;
shapes = (
{
ref = C;
},
{
pos = (168,250);
ref = circumflexcomb;
}
);
width = 456;
}
);
unicode = 264;
},
{
glyphname = Cdotaccent;
lastChange = "2024-05-10 13:09:07 +0000";
layers = (
{
background = {
anchors = (
{
name = bottom;
pos = (178,0);
},
{
name = top;
pos = (367,957);
}
);
shapes = (
{
closed = 1;
nodes = (
(361,616,o),
(364,622,o),
(364,625,cs),
(364,627,o),
(363,628,o),
(360,628,cs),
(341,628,o),
(261,582,o),
(224,543,cs),
(67,380,o),
(10,251,o),
(10,159,cs),
(10,43,o),
(99,-16,o),
(190,-16,cs),
(238,-16,o),
(287,1,o),
(323,35,cs),
(353,63,o),
(419,218,o),
(402,218,cs),
(401,218,o),
(398,216,o),
(395,213,cs),
(357,177,o),
(308,159,o),
(263,159,cs),
(202,159,o),
(150,193,o),
(150,266,cs),
(150,339,o),
(202,452,o),
(352,607,cs)
);
},
{
closed = 1;
nodes = (
(393,556,o),
(436,672,o),
(436,706,cs),
(436,712,o),
(435,716,o),
(432,716,cs),
(431,716,o),
(430,716,o),
(429,715,c),
(408,705,o),
(371,698,o),
(334,698,cs),
(299,698,o),
(264,704,o),
(240,717,cs),
(225,726,o),
(174,598,o),
(174,559,cs),
(174,554,o),
(176,550,o),
(178,549,cs),
(203,534,o),
(239,528,o),
(274,528,cs),
(312,528,o),
(350,535,o),
(373,547,cs)
);
},
{
closed = 1;
nodes = (
(357,961,o),
(256,862,o),
(266,851,cs),
(343,767,ls),
(352,756,o),
(453,856,o),
(442,867,cs),
(366,951,l),
(366,951,l)
);
}
);
};
layerId = m01;
shapes = (
{
ref = C;
},
{
pos = (216,254);
ref = dotaccentcomb;
}
);
width = 456;
}
);
unicode = 266;
},
{
glyphname = Chook;
lastChange = "2024-05-10 13:09:58 +0000";
layers = (
{
anchors = (
{
name = bottom;
pos = (182,0);
},
{
name = top;
pos = (354,711);
}
);
background = {
anchors = (
{
name = bottom;
pos = (182,0);
},
{
name = top;
pos = (354,711);
}
);
shapes = (
{
closed = 1;
nodes = (
(361,616,o),
(364,622,o),
(364,625,cs),
(364,627,o),
(363,628,o),
(360,628,cs),
(341,628,o),
(261,582,o),
(224,543,cs),
(67,380,o),
(10,251,o),
(10,159,cs),
(10,43,o),
(99,-16,o),
(190,-16,cs),
(238,-16,o),
(287,1,o),
(323,35,cs),
(353,63,o),
(419,218,o),
(402,218,cs),
(401,218,o),
(398,216,o),
(395,213,cs),
(357,177,o),
(308,159,o),
(263,159,cs),
(202,159,o),
(150,193,o),
(150,266,cs),
(150,339,o),
(202,452,o),
(352,607,cs)
);
},
{
closed = 1;
nodes = (
(284,648,o),
(287,646,o),
(292,646,cs),
(308,646,o),
(345,667,o),
(344,679,cs),
(339,740,o),
(379,781,o),
(380,781,c),
(404,803,o),
(415,819,o),
(415,827,cs),
(415,830,o),
(412,832,o),
(408,832,cs),
(397,832,o),
(376,821,o),
(348,797,cs),
(292,747,o),
(283,699,o),
(283,668,cs),
(283,662,o),
(284,656,o),
(284,651,cs)
);
},
{
closed = 1;
nodes = (
(337,800,o),
(300,745,o),
(300,726,cs),
(300,721,o),
(302,718,o),
(307,718,cs),
(314,718,o),
(330,726,o),
(355,747,c),
(355,747,o),
(379,767,o),
(410,767,cs),
(436,767,o),
(469,753,o),
(497,701,cs),
(511,675,o),
(670,822,o),
(655,848,cs),
(627,899,o),
(591,920,o),
(550,920,cs),
(501,920,o),
(446,889,o),
(390,843,cs)
);
},
{
closed = 1;
nodes = (
(393,556,o),
(436,672,o),
(436,706,cs),
(436,714,o),
(434,718,o),
(429,715,cs),
(408,705,o),
(371,698,o),
(334,698,cs),
(299,698,o),
(264,704,o),
(240,717,cs),
(225,726,o),
(174,598,o),
(174,559,cs),
(174,554,o),
(176,550,o),
(178,549,cs),
(203,534,o),
(239,528,o),
(274,528,cs),
(312,528,o),
(350,535,o),
(373,547,cs)
);
}
);
};
layerId = m01;
shapes = (
{
closed = 1;
nodes = (
(238,-16,o),
(287,1,o),
(323,35,cs),
(353,63,o),
(419,218,o),
(402,218,cs),
(401,218,o),
(398,216,o),
(395,213,cs),
(357,177,o),
(308,159,o),
(263,159,cs),
(202,159,o),
(150,193,o),
(150,266,cs),
(150,326,o),
(185,413,o),
(281,528,c),
(317,529,o),
(351,536,o),
(373,547,cs),
(393,556,o),
(436,672,o),
(436,706,cs),
(436,714,o),
(434,718,o),
(429,715,cs),
(410,706,o),
(377,699,o),
(344,698,c),
(345,718,o),
(351,736,o),
(358,749,c),
(365,754,o),
(385,767,o),
(410,767,cs),
(436,767,o),
(469,753,o),
(497,701,cs),
(511,675,o),
(670,822,o),
(655,848,cs),
(627,899,o),
(591,920,o),
(550,920,cs),
(501,920,o),
(446,889,o),
(390,843,cs),
(358,817,o),
(333,788,o),
(317,764,cs),
(300,741,o),
(291,720,o),
(287,702,c),
(269,705,o),
(253,710,o),
(240,717,cs),
(225,726,o),
(174,598,o),
(174,559,cs),
(174,554,o),
(176,550,o),
(178,549,cs),
(189,543,o),
(202,538,o),
(216,534,c),
(65,375,o),
(10,249,o),
(10,159,cs),
(10,43,o),
(99,-16,o),
(190,-16,cs)
);
}
);
width = 456;
}
);
metricLeft = C;
unicode = 391;
},
{
glyphname = D;
lastChange = "2024-05-10 13:09:58 +0000";
layers = (
{
anchors = (
{
name = bottom;
pos = (178,0);
},
{
name = center;
pos = (113,330);
},
{
name = top;
pos = (238,709);
}
);
background = {
anchors = (
{
name = bottom;
pos = (178,0);
},
{
name = center;
pos = (113,330);
},
{
name = top;
pos = (238,709);
}
);
shapes = (
{
closed = 1;
nodes = (
(97,722,o),
(47,592,o),
(47,555,cs),
(47,549,o),
(48,546,o),
(51,545,cs),
(291,478,o),
(363,351,o),
(363,243,cs),
(363,194,o),
(348,149,o),
(328,115,cs),
(317,98,o),
(313,85,o),
(313,76,cs),
(313,65,o),
(319,60,o),
(327,60,cs),
(341,60,o),
(365,76,o),
(386,111,cs),
(434,189,o),
(458,269,o),
(458,344,cs),
(458,509,o),
(343,653,o),
(113,717,cs)
);
},
{
closed = 1;
nodes = (
(47,72,o),
(68,58,o),
(89,58,cs),
(108,58,o),
(127,70,o),
(128,95,cs),
(136,258,o),
(156,474,o),
(156,579,cs),
(156,612,o),
(154,634,o),
(150,641,c),
(141,651,o),
(131,656,o),
(120,656,cs),
(98,656,o),
(77,638,o),
(77,616,cs),
(77,608,o),
(80,600,o),
(86,591,c),
(87,591,o),
(61,358,o),
(48,99,cs)
);
},
{
closed = 1;
nodes = (
(299,-18,o),
(391,92,o),
(391,126,cs),
(391,131,o),
(389,135,o),
(383,135,c),
(236,151,o),
(164,169,o),
(119,169,cs),
(96,169,o),
(80,164,o),
(65,152,cs),
(46,137,o),
(5,23,o),
(5,-8,cs),
(5,-13,o),
(6,-16,o),
(8,-16,cs),
(9,-16,o),
(11,-16,o),
(13,-14,cs),
(21,-8,o),
(36,-2,o),
(85,-2,cs),
(123,-2,o),
(181,-6,o),
(271,-15,cs)
);
}
);
};
layerId = m01;
shapes = (
{
closed = 1;
nodes = (
(9,-16,o),
(11,-16,o),
(13,-14,cs),
(21,-8,o),
(36,-2,o),
(85,-2,cs),
(123,-2,o),
(181,-6,o),
(271,-15,cs),
(297,-18,o),
(377,75,o),
(389,116,c),
(435,193,o),
(458,271,o),
(458,344,cs),
(458,509,o),
(343,653,o),
(113,717,cs),
(97,722,o),
(47,592,o),
(47,555,cs),
(47,549,o),
(48,546,o),
(51,545,cs),
(81,536,l),
(73,457,o),
(59,300,o),
(50,129,c),
(30,90,o),
(5,16,o),
(5,-8,cs),
(5,-13,o),
(6,-16,o),
(8,-16,cs)
);
},
{
closed = 1;
nodes = (
(234,153,o),
(173,166,o),
(132,169,c),
(139,285,o),
(150,414,o),
(154,508,c),
(312,438,o),
(363,334,o),
(363,243,cs),
(363,205,o),
(354,170,o),
(341,140,c)
);
}
);
width = 502;
}
);
unicode = 68;
userData = {
KernOnName = D;
};
},
{
glyphname = Dcaron;
lastChange = "2024-05-10 13:09:07 +0000";
layers = (
{
background = {
anchors = (
{
name = bottom;
pos = (178,0);
},
{
name = center;
pos = (113,330);
},
{
name = top;
pos = (278,940);
}
);
shapes = (
{
closed = 1;
nodes = (
(97,722,o),
(47,592,o),
(47,555,cs),
(47,549,o),
(48,546,o),
(51,545,cs),
(291,478,o),
(363,351,o),
(363,243,cs),
(363,194,o),
(348,149,o),
(328,115,cs),
(317,98,o),
(313,85,o),
(313,76,cs),
(313,65,o),
(319,60,o),
(327,60,cs),
(341,60,o),
(365,76,o),
(386,111,cs),
(434,189,o),
(458,269,o),
(458,344,cs),
(458,509,o),
(343,653,o),
(113,717,cs)
);
},
{
closed = 1;
nodes = (
(47,72,o),
(68,58,o),
(89,58,cs),
(108,58,o),
(127,70,o),
(128,95,cs),
(136,258,o),
(156,474,o),
(156,579,cs),
(156,612,o),
(154,634,o),
(150,641,c),
(141,651,o),
(131,656,o),
(120,656,cs),
(98,656,o),
(77,638,o),
(77,616,cs),
(77,608,o),
(80,600,o),
(86,591,c),
(87,591,o),
(61,358,o),
(48,99,cs)
);
},
{
closed = 1;
nodes = (
(299,-18,o),
(391,92,o),
(391,126,cs),
(391,131,o),
(389,135,o),
(383,135,c),
(236,151,o),
(164,169,o),
(119,169,cs),
(96,169,o),
(80,164,o),
(65,152,cs),
(46,137,o),
(5,23,o),
(5,-8,cs),
(5,-13,o),
(6,-16,o),
(8,-16,cs),
(9,-16,o),
(11,-16,o),
(13,-14,cs),
(21,-8,o),
(36,-2,o),
(85,-2,cs),
(123,-2,o),
(181,-6,o),
(271,-15,cs)
);
},
{
closed = 1;
nodes = (
(212,915,o),
(207,917,o),
(201,917,cs),
(168,917,o),
(103,872,o),
(103,846,cs),
(103,842,o),
(104,839,o),
(106,836,c),
(202,734,l),
(206,731,o),
(211,729,o),
(217,729,cs),
(250,729,o),
(315,774,o),
(315,800,cs),
(315,804,o),
(314,807,o),
(312,810,c),
(216,912,l),
(216,912,l)
);
},
{
closed = 1;
nodes = (
(239,770,o),
(237,765,o),
(237,760,cs),
(237,754,o),
(243,751,o),
(251,751,cs),
(267,751,o),
(292,761,o),
(307,780,cs),
(392,888,ls),
(398,895,o),
(400,901,o),
(400,906,cs),
(400,913,o),
(394,916,o),
(385,916,cs),
(370,916,o),
(345,905,o),
(330,886,cs),
(245,778,l),
(245,778,l)
);
}
);
};
guides = (
{
pos = (535,910);
},
{
pos = (312,726);
}
);
layerId = m01;
shapes = (
{
ref = D;
},
{
pos = (103,209);
ref = caroncomb;
}
);
width = 502;
}
);
unicode = 270;
},
{
glyphname = Dcircumflexbelow;
lastChange = "2024-05-10 13:09:07 +0000";
layers = (
{
background = {
anchors = (
{
name = bottom;
pos = (145,-213);
},
{
name = center;
pos = (113,330);
},
{
name = top;
pos = (238,709);
}
);
shapes = (
{
closed = 1;
nodes = (
(97,722,o),
(47,592,o),
(47,555,cs),
(47,549,o),
(48,546,o),
(51,545,cs),
(291,478,o),
(363,351,o),
(363,243,cs),
(363,194,o),
(348,149,o),
(328,115,cs),
(317,98,o),
(313,85,o),
(313,76,cs),
(313,65,o),
(319,60,o),
(327,60,cs),
(341,60,o),
(365,76,o),
(386,111,cs),
(434,189,o),
(458,269,o),
(458,344,cs),
(458,509,o),
(343,653,o),
(113,717,cs)
);
},
{
closed = 1;
nodes = (
(47,72,o),
(68,58,o),
(89,58,cs),
(108,58,o),
(127,70,o),
(128,95,cs),
(136,258,o),
(156,474,o),
(156,579,cs),
(156,612,o),
(154,634,o),
(150,641,c),
(141,651,o),
(131,656,o),
(120,656,cs),
(98,656,o),
(77,638,o),
(77,616,cs),
(77,608,o),
(80,600,o),
(86,591,c),
(87,591,o),
(61,358,o),
(48,99,cs)
);
},
{
closed = 1;
nodes = (
(299,-18,o),
(391,92,o),
(391,126,cs),
(391,131,o),
(389,135,o),
(383,135,c),
(236,151,o),
(164,169,o),
(119,169,cs),
(96,169,o),
(80,164,o),
(65,152,cs),
(46,137,o),
(5,23,o),
(5,-8,cs),
(5,-13,o),
(6,-16,o),
(8,-16,cs),
(9,-16,o),
(11,-16,o),
(13,-14,cs),
(21,-8,o),
(36,-2,o),
(85,-2,cs),
(123,-2,o),
(181,-6,o),
(271,-15,cs)
);
},
{
closed = 1;
nodes = (
(191,-200,o),
(196,-202,o),
(201,-202,cs),
(231,-202,o),
(289,-162,o),
(289,-138,cs),
(289,-135,o),
(288,-132,o),
(286,-129,c),
(200,-37,l),
(196,-35,o),
(192,-33,o),
(187,-33,cs),
(168,-33,o),
(137,-49,o),
(117,-68,cs),
(113,-71,o),
(109,-74,o),
(106,-79,c),
(29,-176,ls),
(24,-182,o),
(22,-188,o),
(22,-192,cs),
(22,-199,o),
(27,-201,o),
(35,-201,cs),
(49,-201,o),
(71,-191,o),
(85,-174,cs),
(122,-127,l),
(187,-198,l),
(187,-198,l)
);
}
);
};
layerId = m01;
shapes = (
{
ref = D;
},
{
pos = (-43,0);
ref = circumflexbelowcomb;
}
);
width = 502;
}
);
unicode = 7698;
},
{
glyphname = Dcroat;
lastChange = "2024-05-10 13:09:07 +0000";
layers = (
{
background = {
anchors = (
{
name = bottom;
pos = (231,0);
},
{
name = center;
pos = (166,330);
},
{
name = top;
pos = (307,416);
}
);
shapes = (
{
closed = 1;
nodes = (
(150,722,o),
(100,592,o),
(100,555,cs),
(100,549,o),
(101,546,o),
(104,545,cs),
(344,478,o),
(416,351,o),
(416,243,cs),
(416,194,o),
(401,149,o),
(381,115,cs),
(370,98,o),
(366,85,o),
(366,76,cs),
(366,65,o),
(372,60,o),
(380,60,cs),
(394,60,o),
(418,76,o),
(439,111,cs),
(487,189,o),
(511,269,o),
(511,344,cs),
(511,509,o),
(396,653,o),
(166,717,cs)
);
},
{
closed = 1;
nodes = (
(100,72,o),
(121,58,o),
(142,58,cs),
(161,58,o),
(180,70,o),
(181,95,cs),
(189,258,o),
(209,474,o),
(209,579,cs),
(209,612,o),
(207,634,o),
(203,641,c),
(194,651,o),
(184,656,o),
(173,656,cs),
(151,656,o),
(130,638,o),
(130,616,cs),
(130,608,o),
(133,600,o),
(139,591,c),
(140,591,o),
(114,358,o),
(101,99,cs)
);
},
{
closed = 1;
nodes = (
(352,-18,o),
(444,92,o),
(444,126,cs),
(444,131,o),
(442,135,o),
(436,135,c),
(289,151,o),
(217,169,o),
(172,169,cs),
(149,169,o),
(133,164,o),
(118,152,cs),
(99,137,o),
(58,23,o),
(58,-8,cs),
(58,-13,o),
(59,-16,o),
(61,-16,cs),
(62,-16,o),
(64,-16,o),
(66,-14,cs),
(74,-8,o),
(89,-2,o),
(138,-2,cs),
(176,-2,o),
(234,-6,o),
(324,-15,cs)
);
},
{
closed = 1;
nodes = (
(56,416,o),
(10,292,o),
(10,256,cs),
(10,250,o),
(11,246,o),
(14,246,cs),
(240,248,ls),
(257,248,o),
(304,371,o),
(304,408,cs),
(304,414,o),
(303,418,o),
(300,418,cs),
(74,416,l),
(74,416,l)
);
}
);
};
layerId = m01;
shapes = (
{
ref = Eth;
}
);
width = 556;
}
);
unicode = 272;
},
{
glyphname = Ddotaccent;
lastChange = "2024-05-10 13:09:07 +0000";
layers = (
{
background = {
anchors = (
{
name = bottom;
pos = (178,0);
},
{
name = center;
pos = (113,330);
},
{
name = top;
pos = (255,916);
}
);
shapes = (
{
closed = 1;
nodes = (
(97,722,o),
(47,592,o),
(47,555,cs),
(47,549,o),
(48,546,o),
(51,545,cs),
(291,478,o),
(363,351,o),
(363,243,cs),
(363,194,o),
(348,149,o),
(328,115,cs),
(317,98,o),
(313,85,o),
(313,76,cs),
(313,65,o),
(319,60,o),
(327,60,cs),
(341,60,o),
(365,76,o),
(386,111,cs),
(434,189,o),
(458,269,o),
(458,344,cs),
(458,509,o),
(343,653,o),
(113,717,cs)
);
},
{
closed = 1;
nodes = (
(47,72,o),
(68,58,o),
(89,58,cs),
(108,58,o),
(127,70,o),
(128,95,cs),
(136,258,o),
(156,474,o),
(156,579,cs),
(156,612,o),
(154,634,o),
(150,641,c),
(141,651,o),
(131,656,o),
(120,656,cs),
(98,656,o),
(77,638,o),
(77,616,cs),
(77,608,o),
(80,600,o),
(86,591,c),
(87,591,o),
(61,358,o),
(48,99,cs)
);
},
{
closed = 1;
nodes = (
(299,-18,o),
(391,92,o),
(391,126,cs),
(391,131,o),
(389,135,o),
(383,135,c),
(236,151,o),
(164,169,o),
(119,169,cs),
(96,169,o),
(80,164,o),
(65,152,cs),
(46,137,o),
(5,23,o),
(5,-8,cs),
(5,-13,o),
(6,-16,o),
(8,-16,cs),
(9,-16,o),
(11,-16,o),
(13,-14,cs),
(21,-8,o),
(36,-2,o),
(85,-2,cs),
(123,-2,o),
(181,-6,o),
(271,-15,cs)
);
},
{
closed = 1;
nodes = (
(245,920,o),
(144,821,o),
(154,810,cs),
(231,726,ls),
(240,715,o),
(341,815,o),
(330,826,cs),
(254,910,l),
(254,910,l)
);
}
);
};
layerId = m01;
shapes = (
{
ref = D;
},
{
pos = (104,213);
ref = dotaccentcomb;
}
);
width = 502;
}
);
unicode = 7690;
},
{
glyphname = Ddotbelow;
lastChange = "2024-05-10 13:09:07 +0000";
layers = (
{
background = {
anchors = (
{
name = bottom;
pos = (178,0);
},
{
name = center;
pos = (113,330);
},
{
name = top;
pos = (238,709);
}
);
shapes = (
{
closed = 1;
nodes = (
(97,722,o),
(47,592,o),
(47,555,cs),
(47,549,o),
(48,546,o),
(51,545,cs),
(291,478,o),
(363,351,o),
(363,243,cs),
(363,194,o),
(348,149,o),
(328,115,cs),
(317,98,o),
(313,85,o),
(313,76,cs),
(313,65,o),
(319,60,o),
(327,60,cs),
(341,60,o),
(365,76,o),
(386,111,cs),
(434,189,o),
(458,269,o),
(458,344,cs),
(458,509,o),
(343,653,o),
(113,717,cs)
);
},
{
closed = 1;
nodes = (
(47,72,o),
(68,58,o),
(89,58,cs),
(108,58,o),
(127,70,o),
(128,95,cs),
(136,258,o),
(156,474,o),
(156,579,cs),
(156,612,o),
(154,634,o),
(150,641,c),
(141,651,o),
(131,656,o),
(120,656,cs),
(98,656,o),
(77,638,o),
(77,616,cs),
(77,608,o),
(80,600,o),
(86,591,c),
(87,591,o),
(61,358,o),
(48,99,cs)
);
},
{
closed = 1;
nodes = (
(299,-18,o),
(391,92,o),
(391,126,cs),
(391,131,o),
(389,135,o),
(383,135,c),
(236,151,o),
(164,169,o),
(119,169,cs),
(96,169,o),
(80,164,o),
(65,152,cs),
(46,137,o),
(5,23,o),
(5,-8,cs),
(5,-13,o),
(6,-16,o),
(8,-16,cs),
(9,-16,o),
(11,-16,o),
(13,-14,cs),
(21,-8,o),
(36,-2,o),
(85,-2,cs),
(123,-2,o),
(181,-6,o),
(271,-15,cs)
);
},
{
closed = 1;
nodes = (
(171,-43,o),
(81,-132,o),
(90,-142,cs),
(159,-218,ls),
(167,-228,o),
(258,-138,o),
(249,-128,cs),
(180,-53,l),
(180,-53,l)
);
}
);
};
layerId = m01;
shapes = (
{
ref = D;
},
{
pos = (63,0);
ref = dotbelowcomb;
}
);
width = 502;
}
);
unicode = 7692;
},
{
glyphname = Dhook;
lastChange = "2024-05-10 13:09:58 +0000";
layers = (
{
anchors = (
{
name = bottom;
pos = (270,0);
},
{
name = center;
pos = (145,330);
},
{
name = top;
pos = (270,700);
}
);
background = {
anchors = (
{
name = bottom;
pos = (270,0);
},
{
name = center;
pos = (145,330);
},
{
name = top;
pos = (270,700);
}
);
shapes = (
{
closed = 1;
nodes = (
(33,492,o),
(29,484,o),
(29,480,cs),
(29,477,o),
(30,476,o),
(33,476,cs),
(47,476,o),
(89,504,o),
(116,538,cs),
(124,547,o),
(142,551,o),
(174,551,cs),
(196,551,o),
(224,549,o),
(261,546,cs),
(481,531,o),
(553,385,o),
(553,258,cs),
(553,202,o),
(539,150,o),
(517,114,cs),
(507,97,o),
(502,84,o),
(502,74,cs),
(502,64,o),
(508,59,o),
(516,59,cs),
(531,59,o),
(555,75,o),
(576,110,cs),
(620,181,o),
(643,272,o),
(643,361,cs),
(643,532,o),
(555,697,o),
(351,712,cs),
(345,712,o),
(338,713,o),
(329,713,cs),
(281,713,o),
(197,692,o),
(44,504,cs)
);
},
{
closed = 1;
nodes = (
(130,562,o),
(129,564,o),
(125,564,cs),
(109,564,o),
(41,508,o),
(30,481,cs),
(23,463,o),
(20,446,o),
(20,430,cs),
(20,377,o),
(53,337,o),
(95,337,cs),
(108,337,o),
(123,341,o),
(138,351,cs),
(171,372,o),
(223,457,o),
(223,483,cs),
(223,487,o),
(221,490,o),
(217,490,cs),
(214,490,o),
(210,489,o),
(204,485,cs),
(193,478,o),
(179,474,o),
(165,474,cs),
(142,474,o),
(120,487,o),
(120,518,cs),
(120,528,o),
(122,541,o),
(128,555,cs)
);
},
{
closed = 1;
nodes = (
(242,71,o),
(263,57,o),
(284,57,cs),
(303,57,o),
(322,69,o),
(323,94,cs),
(331,253,o),
(351,465,o),
(351,568,cs),
(351,601,o),
(349,623,o),
(344,629,cs),
(336,640,o),
(325,644,o),
(314,644,cs),
(293,644,o),
(272,626,o),
(272,604,cs),
(272,597,o),
(274,588,o),
(281,580,c),
(281,580,o),
(256,352,o),
(243,98,cs)
);
},
{
closed = 1;
nodes = (
(489,-18,o),
(581,92,o),
(581,126,cs),
(581,131,o),
(579,135,o),
(573,135,c),
(428,151,o),
(358,168,o),
(314,168,cs),
(291,168,o),
(276,164,o),
(261,152,cs),
(242,137,o),
(201,23,o),
(201,-8,cs),
(201,-16,o),
(203,-19,o),
(209,-14,cs),
(216,-8,o),
(231,-3,o),
(280,-3,cs),
(317,-3,o),
(373,-6,o),
(461,-15,cs)
);
}
);
};
layerId = m01;
shapes = (
{
closed = 1;
nodes = (
(486,-18,o),
(564,72,o),
(579,114,c),
(621,185,o),
(643,274,o),
(643,361,cs),
(643,532,o),
(555,697,o),
(351,712,cs),
(329,713,ls),
(281,713,o),
(197,692,o),
(44,504,cs),
(33,492,o),
(29,484,o),
(29,480,cs),
(29,479,l),
(23,461,o),
(20,445,o),
(20,430,cs),
(20,377,o),
(53,337,o),
(95,337,cs),
(108,337,o),
(123,341,o),
(138,351,cs),
(171,372,o),
(223,457,o),
(223,483,cs),
(223,487,o),
(221,490,o),
(217,490,cs),
(214,490,o),
(210,489,o),
(204,485,cs),
(193,478,o),
(179,474,o),
(165,474,cs),
(142,474,o),
(120,487,o),
(120,518,cs),
(120,525,o),
(121,534,o),
(124,544,c),
(134,549,o),
(150,551,o),
(174,551,cs),
(196,551,o),
(224,549,o),
(261,546,cs),
(277,545,l),
(270,475,o),
(255,310,o),
(245,127,c),
(225,87,o),
(201,16,o),
(201,-8,cs),
(201,-16,o),
(203,-19,o),
(209,-14,cs),
(216,-8,o),
(231,-3,o),
(280,-3,cs),
(317,-3,o),
(373,-6,o),
(461,-15,cs)
);
},
{
closed = 1;
nodes = (
(426,153,o),
(367,165,o),
(327,168,c),
(335,295,o),
(347,438,o),
(350,531,c),
(501,488,o),
(553,366,o),
(553,258,cs),
(553,214,o),
(544,173,o),
(530,140,c)
);
}
);
width = 687;
}
);
metricRight = D;
unicode = 394;
},
{
glyphname = Dmacronbelow;
lastChange = "2024-05-10 13:09:07 +0000";
layers = (
{
background = {
anchors = (
{
name = bottom;
pos = (178,-221);
},
{
name = center;
pos = (113,330);
},
{
name = top;
pos = (238,709);
}
);
shapes = (
{
closed = 1;
nodes = (
(97,722,o),
(47,592,o),
(47,555,cs),
(47,549,o),
(48,546,o),
(51,545,cs),
(291,478,o),
(363,351,o),
(363,243,cs),
(363,194,o),
(348,149,o),
(328,115,cs),
(317,98,o),
(313,85,o),
(313,76,cs),
(313,65,o),
(319,60,o),
(327,60,cs),
(341,60,o),
(365,76,o),
(386,111,cs),
(434,189,o),
(458,269,o),
(458,344,cs),
(458,509,o),
(343,653,o),
(113,717,cs)
);
},
{
closed = 1;
nodes = (
(47,72,o),
(68,58,o),
(89,58,cs),
(108,58,o),
(127,70,o),
(128,95,cs),
(136,258,o),
(156,474,o),
(156,579,cs),
(156,612,o),
(154,634,o),
(150,641,c),
(141,651,o),
(131,656,o),
(120,656,cs),
(98,656,o),
(77,638,o),
(77,616,cs),
(77,608,o),
(80,600,o),
(86,591,c),
(87,591,o),
(61,358,o),
(48,99,cs)
);
},
{
closed = 1;
nodes = (
(299,-18,o),
(391,92,o),
(391,126,cs),
(391,131,o),
(389,135,o),
(383,135,c),
(236,151,o),
(164,169,o),
(119,169,cs),
(96,169,o),
(80,164,o),
(65,152,cs),
(46,137,o),
(5,23,o),
(5,-8,cs),
(5,-13,o),
(6,-16,o),
(8,-16,cs),
(9,-16,o),
(11,-16,o),
(13,-14,cs),
(21,-8,o),
(36,-2,o),
(85,-2,cs),
(123,-2,o),
(181,-6,o),
(271,-15,cs)
);
},
{
closed = 1;
nodes = (
(55,-34,o),
(23,-114,o),
(23,-145,cs),
(23,-152,o),
(25,-156,o),
(29,-156,cs),
(260,-158,ls),
(276,-158,o),
(308,-78,o),
(308,-48,cs),
(308,-40,o),
(306,-36,o),
(302,-36,cs),
(71,-34,l),
(71,-34,l)
);
}
);
};
layerId = m01;
shapes = (
{
ref = D;
},
{
pos = (-15,0);
ref = macronbelowcomb;
}
);
width = 502;
}
);
unicode = 7694;
},
{
glyphname = Dtail;
lastChange = "2024-05-10 13:09:07 +0000";
layers = (
{
background = {
anchors = (
{
name = bottom;
pos = (201,0);
},
{
name = center;
pos = (136,330);
},
{
name = top;
pos = (277,416);
}
);
shapes = (
{
closed = 1;
nodes = (
(120,722,o),
(70,592,o),
(70,555,cs),
(70,549,o),
(71,546,o),
(74,545,cs),
(314,478,o),
(386,351,o),
(386,243,cs),
(386,194,o),
(371,149,o),
(351,115,cs),
(340,98,o),
(336,85,o),
(336,76,cs),
(336,65,o),
(342,60,o),
(350,60,cs),
(364,60,o),
(388,76,o),
(409,111,cs),
(457,189,o),
(481,269,o),
(481,344,cs),
(481,509,o),
(366,653,o),
(136,717,cs)
);
},
{
closed = 1;
nodes = (
(70,72,o),
(91,58,o),
(112,58,cs),
(131,58,o),
(150,70,o),
(151,95,cs),
(159,258,o),
(179,474,o),
(179,579,cs),
(179,612,o),
(177,634,o),
(173,641,c),
(164,651,o),
(154,656,o),
(143,656,cs),
(121,656,o),
(100,638,o),
(100,616,cs),
(100,608,o),
(103,600,o),
(109,591,c),
(110,591,o),
(84,358,o),
(71,99,cs)
);
},
{
closed = 1;
nodes = (
(322,-18,o),
(414,92,o),
(414,126,cs),
(414,131,o),
(412,135,o),
(406,135,c),
(259,151,o),
(187,169,o),
(142,169,cs),
(119,169,o),
(103,164,o),
(88,152,cs),
(69,137,o),
(28,23,o),
(28,-8,cs),
(28,-13,o),
(29,-16,o),
(31,-16,cs),
(32,-16,o),
(34,-16,o),
(36,-14,cs),
(44,-8,o),
(59,-2,o),
(108,-2,cs),
(146,-2,o),
(204,-6,o),
(294,-15,cs)
);
},
{
closed = 1;
nodes = (
(26,416,o),
(-20,292,o),
(-20,256,cs),
(-20,250,o),
(-19,246,o),
(-16,246,cs),
(210,248,ls),
(227,248,o),
(274,371,o),
(274,408,cs),
(274,414,o),
(273,418,o),
(270,418,cs),
(44,416,l),
(44,416,l)
);
}
);
};
layerId = m01;
shapes = (
{
alignment = -1;
pos = (23,0);
ref = D;
},
{
pos = (-20,0);
ref = strokeshortcomb;
}
);
width = 525;
}
);
unicode = 393;
},
{
glyphname = Eth;
lastChange = "2024-05-10 13:09:07 +0000";
layers = (
{
background = {
anchors = (
{
name = bottom;
pos = (231,0);
},
{
name = center;
pos = (166,330);
},
{
name = top;
pos = (307,416);
}
);
shapes = (
{
closed = 1;
nodes = (
(150,722,o),
(100,592,o),
(100,555,cs),
(100,549,o),
(101,546,o),
(104,545,cs),
(344,478,o),
(416,351,o),
(416,243,cs),
(416,194,o),
(401,149,o),
(381,115,cs),
(370,98,o),
(366,85,o),
(366,76,cs),
(366,65,o),
(372,60,o),
(380,60,cs),
(394,60,o),
(418,76,o),
(439,111,cs),
(487,189,o),
(511,269,o),
(511,344,cs),
(511,509,o),
(396,653,o),
(166,717,cs)
);
},
{
closed = 1;
nodes = (
(100,72,o),
(121,58,o),
(142,58,cs),
(161,58,o),
(180,70,o),
(181,95,cs),
(189,258,o),
(209,474,o),
(209,579,cs),
(209,612,o),
(207,634,o),
(203,641,c),
(194,651,o),
(184,656,o),
(173,656,cs),
(151,656,o),
(130,638,o),
(130,616,cs),
(130,608,o),
(133,600,o),
(139,591,c),
(140,591,o),
(114,358,o),
(101,99,cs)
);
},
{
closed = 1;
nodes = (
(352,-18,o),
(444,92,o),
(444,126,cs),
(444,131,o),
(442,135,o),
(436,135,c),
(289,151,o),
(217,169,o),
(172,169,cs),
(149,169,o),
(133,164,o),
(118,152,cs),
(99,137,o),
(58,23,o),
(58,-8,cs),
(58,-13,o),
(59,-16,o),
(61,-16,cs),
(62,-16,o),
(64,-16,o),
(66,-14,cs),
(74,-8,o),
(89,-2,o),
(138,-2,cs),
(176,-2,o),
(234,-6,o),
(324,-15,cs)
);
},
{
closed = 1;
nodes = (
(56,416,o),
(10,292,o),
(10,256,cs),
(10,250,o),
(11,246,o),
(14,246,cs),
(240,248,ls),
(257,248,o),
(304,371,o),
(304,408,cs),
(304,414,o),
(303,418,o),
(300,418,cs),
(74,416,l),
(74,416,l)
);
}
);
};
layerId = m01;
shapes = (
{
alignment = -1;
pos = (53,0);
ref = D;
},
{
pos = (10,0);
ref = strokeshortcomb;
}
);
width = 556;
}
);
unicode = 208;
},
{
glyphname = E;
lastChange = "2024-05-10 13:09:58 +0000";
layers = (
{
anchors = (
{
name = bottom;
pos = (198,2);
},
{
name = ogonek;
pos = (407,0);
},
{
name = top;
pos = (314,721);
},
{
name = topleft;
pos = (39,700);
}
);
background = {
anchors = (
{
name = bottom;
pos = (198,2);
},
{
name = ogonek;
pos = (407,0);
},
{
name = top;
pos = (314,721);
},
{
name = topleft;
pos = (39,700);
}
);
shapes = (
{
closed = 1;
nodes = (
(195,640,o),
(192,642,o),
(188,642,cs),
(169,642,o),
(112,597,o),
(110,575,cs),
(91,386,o),
(59,197,o),
(40,6,cs),
(39,-6,o),
(45,-8,o),
(50,-8,cs),
(53,-8,o),
(57,-7,o),
(58,-7,c),
(87,5,o),
(105,15,o),
(129,15,cs),
(143,15,o),
(158,12,o),
(179,4,cs),
(199,-4,o),
(230,-13,o),
(265,-13,cs),
(281,-13,o),
(298,-11,o),
(315,-6,cs),
(344,2,o),
(451,146,o),
(417,136,cs),
(404,132,o),
(390,131,o),
(376,131,cs),
(341,131,o),
(306,140,o),
(285,148,cs),
(266,156,o),
(248,159,o),
(230,159,cs),
(200,159,o),
(171,150,o),
(138,137,c),
(156,124,l),
(173,293,o),
(177,464,o),
(194,635,cs)
);
},
{
closed = 1;
nodes = (
(88,438,o),
(42,314,o),
(42,278,cs),
(42,272,o),
(43,268,o),
(46,268,cs),
(369,269,ls),
(386,269,o),
(433,392,o),
(433,429,cs),
(433,435,o),
(432,439,o),
(429,439,cs),
(106,438,l),
(106,438,l)
);
},
{
closed = 1;
nodes = (
(452,542,o),
(485,654,o),
(485,690,cs),
(485,697,o),
(484,702,o),
(481,702,cs),
(480,702,o),
(479,701,o),
(477,700,cs),
(467,693,o),
(447,690,o),
(421,690,cs),
(367,690,o),
(288,702,o),
(221,702,cs),
(176,702,o),
(137,696,o),
(115,678,cs),
(97,663,o),
(66,553,o),
(66,517,cs),
(66,510,o),
(67,506,o),
(70,506,cs),
(71,506,o),
(72,507,o),
(73,508,cs),
(92,523,o),
(125,528,o),
(165,528,cs),
(228,528,o),
(306,516,o),
(364,516,cs),
(395,516,o),
(421,519,o),
(435,530,cs)
);
}
);
};
layerId = m01;
shapes = (
{
closed = 1;
nodes = (
(281,-13,o),
(298,-11,o),
(315,-6,cs),
(344,2,o),
(451,146,o),
(417,136,cs),
(404,132,o),
(390,131,o),
(376,131,cs),
(341,131,o),
(306,140,o),
(285,148,cs),
(266,156,o),
(248,159,o),
(230,159,cs),
(206,159,o),
(183,153,o),
(158,145,c),
(168,268,l),
(369,269,ls),
(386,269,o),
(433,392,o),
(433,429,cs),
(433,435,o),
(432,439,o),
(429,439,cs),
(179,438,l),
(185,528,l),
(244,526,o),
(312,516,o),
(364,516,cs),
(395,516,o),
(421,519,o),
(435,530,cs),
(452,542,o),
(485,654,o),
(485,690,cs),
(485,697,o),
(484,702,o),
(481,702,cs),
(480,702,o),
(479,701,o),
(477,700,cs),
(467,693,o),
(447,690,o),
(421,690,cs),
(367,690,o),
(288,702,o),
(221,702,cs),
(176,702,o),
(137,696,o),
(115,678,cs),
(97,663,o),
(66,553,o),
(66,517,cs),
(66,510,o),
(67,506,o),
(70,506,cs),
(71,506,o),
(72,507,o),
(73,508,cs),
(81,514,o),
(92,519,o),
(104,522,c),
(93,425,l),
(72,393,o),
(42,307,o),
(42,278,cs),
(42,272,o),
(43,268,o),
(46,268,cs),
(72,268,l),
(60,181,o),
(49,94,o),
(40,6,cs),
(39,-6,o),
(45,-8,o),
(50,-8,cs),
(53,-8,o),
(57,-7,o),
(58,-7,c),
(87,5,o),
(105,15,o),
(129,15,cs),
(143,15,o),
(158,12,o),
(179,4,cs),
(199,-4,o),
(230,-13,o),
(265,-13,cs)
);
}
);
width = 505;
}
);
unicode = 69;
userData = {
KernOnName = E;
};
},
{
glyphname = Eacute;
lastChange = "2024-05-10 13:09:07 +0000";
layers = (
{
background = {
anchors = (
{
name = bottom;
pos = (198,2);
},
{
name = ogonek;
pos = (407,0);
},
{
name = top;
pos = (404,922);
},
{
name = topleft;
pos = (39,700);
}
);
shapes = (
{
closed = 1;
nodes = (
(195,640,o),
(192,642,o),
(188,642,cs),
(169,642,o),
(112,597,o),
(110,575,cs),
(91,386,o),
(59,197,o),
(40,6,cs),
(39,-6,o),
(45,-8,o),
(50,-8,cs),
(53,-8,o),
(57,-7,o),
(58,-7,c),
(87,5,o),
(105,15,o),
(129,15,cs),
(143,15,o),
(158,12,o),
(179,4,cs),
(199,-4,o),
(230,-13,o),
(265,-13,cs),
(281,-13,o),
(298,-11,o),
(315,-6,cs),
(344,2,o),
(451,146,o),
(417,136,cs),
(404,132,o),
(390,131,o),
(376,131,cs),
(341,131,o),
(306,140,o),
(285,148,cs),
(266,156,o),
(248,159,o),
(230,159,cs),
(200,159,o),
(171,150,o),
(138,137,c),
(156,124,l),
(173,293,o),
(177,464,o),
(194,635,cs)
);
},
{
closed = 1;
nodes = (
(88,438,o),
(42,314,o),
(42,278,cs),
(42,272,o),
(43,268,o),
(46,268,cs),
(369,269,ls),
(386,269,o),
(433,392,o),
(433,429,cs),
(433,435,o),
(432,439,o),
(429,439,cs),
(106,438,l),
(106,438,l)
);
},
{
closed = 1;
nodes = (
(452,542,o),
(485,654,o),
(485,690,cs),
(485,697,o),
(484,702,o),
(481,702,cs),
(480,702,o),
(479,701,o),
(477,700,cs),
(467,693,o),
(447,690,o),
(421,690,cs),
(367,690,o),
(288,702,o),
(221,702,cs),
(176,702,o),
(137,696,o),
(115,678,cs),
(97,663,o),
(66,553,o),
(66,517,cs),
(66,510,o),
(67,506,o),
(70,506,cs),
(71,506,o),
(72,507,o),
(73,508,cs),
(92,523,o),
(125,528,o),
(165,528,cs),
(228,528,o),
(306,516,o),
(364,516,cs),
(395,516,o),
(421,519,o),
(435,530,cs)
);
},
{
closed = 1;
nodes = (
(252,750,o),
(266,745,o),
(287,745,cs),
(315,745,o),
(356,755,o),
(366,770,c),
(366,770,o),
(485,900,o),
(490,907,cs),
(493,911,o),
(494,915,o),
(494,918,cs),
(494,926,o),
(483,930,o),
(466,930,cs),
(422,930,o),
(338,905,o),
(316,875,c),
(316,875,o),
(272,780,o),
(260,762,cs)
);
}
);
};
guides = (
{
pos = (570,910);
},
{
pos = (347,726);
}
);
layerId = m01;
shapes = (
{
ref = E;
},
{
pos = (208,221);
ref = acutecomb;
}
);
width = 505;
}
);
unicode = 201;
},
{
glyphname = Ecaron;
lastChange = "2024-05-10 13:09:07 +0000";
layers = (
{
background = {
anchors = (
{
name = bottom;
pos = (198,2);
},
{
name = ogonek;
pos = (407,0);
},
{
name = top;
pos = (354,952);
},
{
name = topleft;
pos = (39,700);
}
);
shapes = (
{
closed = 1;
nodes = (
(195,640,o),
(192,642,o),
(188,642,cs),
(169,642,o),
(112,597,o),
(110,575,cs),
(91,386,o),
(59,197,o),
(40,6,cs),
(39,-6,o),
(45,-8,o),
(50,-8,cs),
(53,-8,o),
(57,-7,o),
(58,-7,c),
(87,5,o),
(105,15,o),
(129,15,cs),
(143,15,o),
(158,12,o),
(179,4,cs),
(199,-4,o),
(230,-13,o),
(265,-13,cs),
(281,-13,o),
(298,-11,o),
(315,-6,cs),
(344,2,o),
(451,146,o),
(417,136,cs),
(404,132,o),
(390,131,o),
(376,131,cs),
(341,131,o),
(306,140,o),
(285,148,cs),
(266,156,o),
(248,159,o),
(230,159,cs),
(200,159,o),
(171,150,o),
(138,137,c),
(156,124,l),
(173,293,o),
(177,464,o),
(194,635,cs)
);
},
{
closed = 1;
nodes = (
(88,438,o),
(42,314,o),
(42,278,cs),
(42,272,o),
(43,268,o),
(46,268,cs),
(369,269,ls),
(386,269,o),
(433,392,o),
(433,429,cs),
(433,435,o),
(432,439,o),
(429,439,cs),
(106,438,l),
(106,438,l)
);
},
{
closed = 1;
nodes = (
(452,542,o),
(485,654,o),
(485,690,cs),
(485,697,o),
(484,702,o),
(481,702,cs),
(480,702,o),
(479,701,o),
(477,700,cs),
(467,693,o),
(447,690,o),
(421,690,cs),
(367,690,o),
(288,702,o),
(221,702,cs),
(176,702,o),
(137,696,o),
(115,678,cs),
(97,663,o),
(66,553,o),
(66,517,cs),
(66,510,o),
(67,506,o),
(70,506,cs),
(71,506,o),
(72,507,o),
(73,508,cs),
(92,523,o),
(125,528,o),
(165,528,cs),
(228,528,o),
(306,516,o),
(364,516,cs),
(395,516,o),
(421,519,o),
(435,530,cs)
);
},
{
closed = 1;
nodes = (
(288,927,o),
(283,929,o),
(277,929,cs),
(244,929,o),
(179,884,o),
(179,858,cs),
(179,854,o),
(180,851,o),
(182,848,c),
(278,746,l),
(282,743,o),
(287,741,o),
(293,741,cs),
(326,741,o),
(391,786,o),
(391,812,cs),
(391,816,o),
(390,819,o),
(388,822,c),
(292,924,l),
(292,924,l)
);
},
{
closed = 1;
nodes = (
(315,782,o),
(313,777,o),
(313,772,cs),
(313,766,o),
(319,763,o),
(327,763,cs),
(343,763,o),
(368,773,o),
(383,792,cs),
(468,900,ls),
(474,907,o),
(476,913,o),
(476,918,cs),
(476,925,o),
(470,928,o),
(461,928,cs),
(446,928,o),
(421,917,o),
(406,898,cs),
(321,790,l),
(321,790,l)
);
}
);
};
layerId = m01;
shapes = (
{
ref = E;
},
{
pos = (179,221);
ref = caroncomb;
}
);
width = 505;
}
);
unicode = 282;
},
{
glyphname = Ecedilla;
lastChange = "2024-05-10 13:09:07 +0000";
layers = (
{
background = {
anchors = (
{
name = bottom;
pos = (186,-288);
},
{
name = ogonek;
pos = (407,0);
},
{
name = top;
pos = (314,721);
},
{
name = topleft;
pos = (39,700);
}
);
shapes = (
{
closed = 1;
nodes = (
(195,640,o),
(192,642,o),
(188,642,cs),
(169,642,o),
(112,597,o),
(110,575,cs),
(91,386,o),
(59,197,o),
(40,6,cs),
(39,-6,o),
(45,-8,o),
(50,-8,cs),
(53,-8,o),
(57,-7,o),
(58,-7,c),
(87,5,o),
(105,15,o),
(129,15,cs),
(143,15,o),
(158,12,o),
(179,4,cs),
(199,-4,o),
(230,-13,o),
(265,-13,cs),
(281,-13,o),
(298,-11,o),
(315,-6,cs),
(344,2,o),
(451,146,o),
(417,136,cs),
(404,132,o),
(390,131,o),
(376,131,cs),
(341,131,o),
(306,140,o),
(285,148,cs),
(266,156,o),
(248,159,o),
(230,159,cs),
(200,159,o),
(171,150,o),
(138,137,c),
(156,124,l),
(173,293,o),
(177,464,o),
(194,635,cs)
);
},
{
closed = 1;
nodes = (
(88,438,o),
(42,314,o),
(42,278,cs),
(42,272,o),
(43,268,o),
(46,268,cs),
(369,269,ls),
(386,269,o),
(433,392,o),
(433,429,cs),
(433,435,o),
(432,439,o),
(429,439,cs),
(106,438,l),
(106,438,l)
);
},
{
closed = 1;
nodes = (
(452,542,o),
(485,654,o),
(485,690,cs),
(485,697,o),
(484,702,o),
(481,702,cs),
(480,702,o),
(479,701,o),
(477,700,cs),
(467,693,o),
(447,690,o),
(421,690,cs),
(367,690,o),
(288,702,o),
(221,702,cs),
(176,702,o),
(137,696,o),
(115,678,cs),
(97,663,o),
(66,553,o),
(66,517,cs),
(66,510,o),
(67,506,o),
(70,506,cs),
(71,506,o),
(72,507,o),
(73,508,cs),
(92,523,o),
(125,528,o),
(165,528,cs),
(228,528,o),
(306,516,o),
(364,516,cs),
(395,516,o),
(421,519,o),
(435,530,cs)
);
},
{
closed = 1;
nodes = (
(236,8,o),
(245,35,o),
(245,52,cs),
(245,64,o),
(240,71,o),
(233,71,cs),
(223,71,o),
(206,58,o),
(186,27,cs),
(151,-27,o),
(123,-78,o),
(96,-119,cs),
(88,-131,o),
(85,-140,o),
(85,-145,cs),
(85,-149,o),
(87,-151,o),
(91,-151,cs),
(97,-151,o),
(106,-147,o),
(117,-140,cs),
(132,-130,o),
(154,-125,o),
(174,-125,cs),
(208,-125,o),
(240,-139,o),
(240,-172,cs),
(240,-180,o),
(238,-189,o),
(234,-200,cs),
(231,-206,o),
(230,-211,o),
(230,-214,cs),
(230,-217,o),
(231,-219,o),
(233,-219,cs),
(247,-219,o),
(299,-164,o),
(316,-124,cs),
(324,-106,o),
(328,-90,o),
(328,-76,cs),
(328,-42,o),
(304,-25,o),
(269,-25,cs),
(235,-25,o),
(191,-40,o),
(145,-70,c),
(166,-91,l),
(185,-61,o),
(205,-41,o),
(216,-23,cs)
);
},
{
closed = 1;
nodes = (
(303,-150,o),
(314,-104,o),
(314,-83,cs),
(314,-75,o),
(313,-71,o),
(310,-71,cs),
(306,-71,o),
(300,-77,o),
(291,-93,cs),
(269,-133,o),
(243,-179,o),
(194,-179,cs),
(180,-179,o),
(165,-176,o),
(147,-167,cs),
(130,-159,o),
(30,-258,o),
(49,-267,cs),
(78,-281,o),
(107,-288,o),
(134,-288,cs),
(192,-288,o),
(245,-256,o),
(285,-183,cs)
);
}
);
};
layerId = m01;
shapes = (
{
ref = E;
},
{
pos = (-3,-34);
ref = cedillacomb;
}
);
width = 505;
}
);
unicode = 552;
},
{
glyphname = Ecircumflex;
lastChange = "2024-05-10 13:09:07 +0000";
layers = (
{
background = {
anchors = (
{
name = bottom;
pos = (198,2);
},
{
name = left;
pos = (233,824);
},
{
name = ogonek;
pos = (407,0);
},
{
name = right;
pos = (494,853);
},
{
name = top;
pos = (341,921);
},
{
name = topleft;
pos = (39,700);
}
);
shapes = (
{
closed = 1;
nodes = (
(195,640,o),
(192,642,o),
(188,642,cs),
(169,642,o),
(112,597,o),
(110,575,cs),
(91,386,o),
(59,197,o),
(40,6,cs),
(39,-6,o),
(45,-8,o),
(50,-8,cs),
(53,-8,o),
(57,-7,o),
(58,-7,c),
(87,5,o),
(105,15,o),
(129,15,cs),
(143,15,o),
(158,12,o),
(179,4,cs),
(199,-4,o),
(230,-13,o),
(265,-13,cs),
(281,-13,o),
(298,-11,o),
(315,-6,cs),
(344,2,o),
(451,146,o),
(417,136,cs),
(404,132,o),
(390,131,o),
(376,131,cs),
(341,131,o),
(306,140,o),
(285,148,cs),
(266,156,o),
(248,159,o),
(230,159,cs),
(200,159,o),
(171,150,o),
(138,137,c),
(156,124,l),
(173,293,o),
(177,464,o),
(194,635,cs)
);
},
{
closed = 1;
nodes = (
(88,438,o),
(42,314,o),
(42,278,cs),
(42,272,o),
(43,268,o),
(46,268,cs),
(369,269,ls),
(386,269,o),
(433,392,o),
(433,429,cs),
(433,435,o),
(432,439,o),
(429,439,cs),
(106,438,l),
(106,438,l)
);
},
{
closed = 1;
nodes = (
(452,542,o),
(485,654,o),
(485,690,cs),
(485,697,o),
(484,702,o),
(481,702,cs),
(480,702,o),
(479,701,o),
(477,700,cs),
(467,693,o),
(447,690,o),
(421,690,cs),
(367,690,o),
(288,702,o),
(221,702,cs),
(176,702,o),
(137,696,o),
(115,678,cs),
(97,663,o),
(66,553,o),
(66,517,cs),
(66,510,o),
(67,506,o),
(70,506,cs),
(71,506,o),
(72,507,o),
(73,508,cs),
(92,523,o),
(125,528,o),
(165,528,cs),
(228,528,o),
(306,516,o),
(364,516,cs),
(395,516,o),
(421,519,o),
(435,530,cs)
);
},
{
closed = 1;
nodes = (
(370,729,o),
(375,727,o),
(381,727,cs),
(414,727,o),
(479,772,o),
(479,798,cs),
(479,802,o),
(478,805,o),
(476,808,c),
(380,910,l),
(376,913,o),
(371,915,o),
(365,915,cs),
(332,915,o),
(267,870,o),
(267,844,cs),
(267,840,o),
(268,837,o),
(270,834,c),
(366,732,l),
(366,732,l)
);
},
{
closed = 1;
nodes = (
(343,874,o),
(345,879,o),
(345,884,cs),
(345,890,o),
(339,893,o),
(331,893,cs),
(315,893,o),
(290,883,o),
(275,864,cs),
(190,756,ls),
(184,749,o),
(182,743,o),
(182,738,cs),
(182,731,o),
(188,728,o),
(197,728,cs),
(212,728,o),
(237,739,o),
(252,758,cs),
(337,866,l),
(337,866,l)
);
}
);
};
guides = (
{
pos = (566,910);
},
{
pos = (343,726);
}
);
layerId = m01;
shapes = (
{
ref = E;
},
{
pos = (132,221);
ref = circumflexcomb;
}
);
width = 505;
}
);
unicode = 202;
},
{
glyphname = Ecircumflexacute;
lastChange = "2024-05-10 13:09:07 +0000";
layers = (
{
background = {
anchors = (
{
name = bottom;
pos = (198,2);
},
{
name = left;
pos = (239,824);
},
{
name = ogonek;
pos = (407,0);
},
{
name = right;
pos = (500,853);
},
{
name = top;
pos = (221,973);
},
{
name = topleft;
pos = (39,700);
}
);
shapes = (
{
closed = 1;
nodes = (
(195,640,o),
(192,642,o),
(188,642,cs),
(169,642,o),
(112,597,o),
(110,575,cs),
(91,386,o),
(59,197,o),
(40,6,cs),
(39,-6,o),
(45,-8,o),
(50,-8,cs),
(53,-8,o),
(57,-7,o),
(58,-7,c),
(87,5,o),
(105,15,o),
(129,15,cs),
(143,15,o),
(158,12,o),
(179,4,cs),
(199,-4,o),
(230,-13,o),
(265,-13,cs),
(281,-13,o),
(298,-11,o),
(315,-6,cs),
(344,2,o),
(451,146,o),
(417,136,cs),
(404,132,o),
(390,131,o),
(376,131,cs),
(341,131,o),
(306,140,o),
(285,148,cs),
(266,156,o),
(248,159,o),
(230,159,cs),
(200,159,o),
(171,150,o),
(138,137,c),
(156,124,l),
(173,293,o),
(177,464,o),
(194,635,cs)
);
},
{
closed = 1;
nodes = (
(88,438,o),
(42,314,o),
(42,278,cs),
(42,272,o),
(43,268,o),
(46,268,cs),
(369,269,ls),
(386,269,o),
(433,392,o),
(433,429,cs),
(433,435,o),
(432,439,o),
(429,439,cs),
(106,438,l),
(106,438,l)
);
},
{
closed = 1;
nodes = (
(452,542,o),
(485,654,o),
(485,690,cs),
(485,697,o),
(484,702,o),
(481,702,cs),
(480,702,o),
(479,701,o),
(477,700,cs),
(467,693,o),
(447,690,o),
(421,690,cs),
(367,690,o),
(288,702,o),
(221,702,cs),
(176,702,o),
(137,696,o),
(115,678,cs),
(97,663,o),
(66,553,o),
(66,517,cs),
(66,510,o),
(67,506,o),
(70,506,cs),
(71,506,o),
(72,507,o),
(73,508,cs),
(92,523,o),
(125,528,o),
(165,528,cs),
(228,528,o),
(306,516,o),
(364,516,cs),
(395,516,o),
(421,519,o),
(435,530,cs)
);
},
{
closed = 1;
nodes = (
(372,737,o),
(377,735,o),
(382,735,cs),
(412,735,o),
(470,776,o),
(470,799,cs),
(470,803,o),
(469,805,o),
(467,808,c),
(381,900,l),
(377,902,o),
(373,904,o),
(368,904,cs),
(338,904,o),
(279,864,o),
(279,840,cs),
(279,837,o),
(280,834,o),
(282,831,c),
(368,740,l),
(368,740,l)
);
},
{
closed = 1;
nodes = (
(348,867,o),
(350,872,o),
(350,876,cs),
(350,882,o),
(344,884,o),
(337,884,cs),
(323,884,o),
(300,875,o),
(287,858,cs),
(210,761,ls),
(205,755,o),
(203,749,o),
(203,745,cs),
(203,739,o),
(208,736,o),
(216,736,cs),
(230,736,o),
(252,746,o),
(266,763,cs),
(342,860,l),
(342,860,l)
);
},
{
closed = 1;
nodes = (
(81,791,o),
(94,786,o),
(113,786,cs),
(138,786,o),
(175,795,o),
(184,809,c),
(184,809,o),
(291,926,o),
(295,932,c),
(298,935,o),
(299,939,o),
(299,942,cs),
(299,949,o),
(289,953,o),
(274,953,cs),
(234,953,o),
(159,930,o),
(139,903,c),
(139,903,o),
(99,818,o),
(88,801,cs)
);
}
);
};
guides = (
{
pos = (566,1120);
},
{
pos = (343,936);
}
);
layerId = m01;
shapes = (
{
ref = E;
},
{
pos = (148,221);
ref = circumflexcomb_acutecomb;
}
);
width = 505;
}
);
unicode = 7870;
},
{
glyphname = Ecircumflexdotbelow;
lastChange = "2024-05-10 13:09:07 +0000";
layers = (
{
background = {
anchors = (
{
name = bottom;
pos = (198,2);
},
{
name = left;
pos = (233,824);
},
{
name = ogonek;
pos = (407,0);
},
{
name = right;
pos = (494,853);
},
{
name = top;
pos = (341,921);
},
{
name = topleft;
pos = (39,700);
}
);
shapes = (
{
closed = 1;
nodes = (
(195,640,o),
(192,642,o),
(188,642,cs),
(169,642,o),
(112,597,o),
(110,575,cs),
(91,386,o),
(59,197,o),
(40,6,cs),
(39,-6,o),
(45,-8,o),
(50,-8,cs),
(53,-8,o),
(57,-7,o),
(58,-7,c),
(87,5,o),
(105,15,o),
(129,15,cs),
(143,15,o),
(158,12,o),
(179,4,cs),
(199,-4,o),
(230,-13,o),
(265,-13,cs),
(281,-13,o),
(298,-11,o),
(315,-6,cs),
(344,2,o),
(451,146,o),
(417,136,cs),
(404,132,o),
(390,131,o),
(376,131,cs),
(341,131,o),
(306,140,o),
(285,148,cs),
(266,156,o),
(248,159,o),
(230,159,cs),
(200,159,o),
(171,150,o),
(138,137,c),
(156,124,l),
(173,293,o),
(177,464,o),
(194,635,cs)
);
},
{
closed = 1;
nodes = (
(88,438,o),
(42,314,o),
(42,278,cs),
(42,272,o),
(43,268,o),
(46,268,cs),
(369,269,ls),
(386,269,o),
(433,392,o),
(433,429,cs),
(433,435,o),
(432,439,o),
(429,439,cs),
(106,438,l),
(106,438,l)
);
},
{
closed = 1;
nodes = (
(452,542,o),
(485,654,o),
(485,690,cs),
(485,697,o),
(484,702,o),
(481,702,cs),
(480,702,o),
(479,701,o),
(477,700,cs),
(467,693,o),
(447,690,o),
(421,690,cs),
(367,690,o),
(288,702,o),
(221,702,cs),
(176,702,o),
(137,696,o),
(115,678,cs),
(97,663,o),
(66,553,o),
(66,517,cs),
(66,510,o),
(67,506,o),
(70,506,cs),
(71,506,o),
(72,507,o),
(73,508,cs),
(92,523,o),
(125,528,o),
(165,528,cs),
(228,528,o),
(306,516,o),
(364,516,cs),
(395,516,o),
(421,519,o),
(435,530,cs)
);
},
{
closed = 1;
nodes = (
(191,-41,o),
(101,-130,o),
(110,-140,cs),
(179,-216,ls),
(187,-226,o),
(278,-136,o),
(269,-126,cs),
(200,-51,l),
(200,-51,l)
);
},
{
closed = 1;
nodes = (
(370,729,o),
(375,727,o),
(381,727,cs),
(414,727,o),
(479,772,o),
(479,798,cs),
(479,802,o),
(478,805,o),
(476,808,c),
(380,910,l),
(376,913,o),
(371,915,o),
(365,915,cs),
(332,915,o),
(267,870,o),
(267,844,cs),
(267,840,o),
(268,837,o),
(270,834,c),
(366,732,l),
(366,732,l)
);
},
{
closed = 1;
nodes = (
(343,874,o),
(345,879,o),
(345,884,cs),
(345,890,o),
(339,893,o),
(331,893,cs),
(315,893,o),
(290,883,o),
(275,864,cs),
(190,756,ls),
(184,749,o),
(182,743,o),
(182,738,cs),
(182,731,o),
(188,728,o),
(197,728,cs),
(212,728,o),
(237,739,o),
(252,758,cs),
(337,866,l),
(337,866,l)
);
}
);
};
layerId = m01;
shapes = (
{
ref = E;
},
{
pos = (83,2);
ref = dotbelowcomb;
},
{
pos = (132,221);
ref = circumflexcomb;
}
);
width = 505;
}
);
unicode = 7878;
},
{
glyphname = Ecircumflexgrave;
lastChange = "2024-05-10 13:09:07 +0000";
layers = (
{
background = {
anchors = (
{
name = bottom;
pos = (198,2);
},
{
name = left;
pos = (233,824);
},
{
name = ogonek;
pos = (407,0);
},
{
name = right;
pos = (494,853);
},
{
name = top;
pos = (515,1011);
},
{
name = topleft;
pos = (39,700);
}
);
shapes = (
{
closed = 1;
nodes = (
(195,640,o),
(192,642,o),
(188,642,cs),
(169,642,o),
(112,597,o),
(110,575,cs),
(91,386,o),
(59,197,o),
(40,6,cs),
(39,-6,o),
(45,-8,o),
(50,-8,cs),
(53,-8,o),
(57,-7,o),
(58,-7,c),
(87,5,o),
(105,15,o),
(129,15,cs),
(143,15,o),
(158,12,o),
(179,4,cs),
(199,-4,o),
(230,-13,o),
(265,-13,cs),
(281,-13,o),
(298,-11,o),
(315,-6,cs),
(344,2,o),
(451,146,o),
(417,136,cs),
(404,132,o),
(390,131,o),
(376,131,cs),
(341,131,o),
(306,140,o),
(285,148,cs),
(266,156,o),
(248,159,o),
(230,159,cs),
(200,159,o),
(171,150,o),
(138,137,c),
(156,124,l),
(173,293,o),
(177,464,o),
(194,635,cs)
);
},
{
closed = 1;
nodes = (
(88,438,o),
(42,314,o),
(42,278,cs),
(42,272,o),
(43,268,o),
(46,268,cs),
(369,269,ls),
(386,269,o),
(433,392,o),
(433,429,cs),
(433,435,o),
(432,439,o),
(429,439,cs),
(106,438,l),
(106,438,l)
);
},
{
closed = 1;
nodes = (
(452,542,o),
(485,654,o),
(485,690,cs),
(485,697,o),
(484,702,o),
(481,702,cs),
(480,702,o),
(479,701,o),
(477,700,cs),
(467,693,o),
(447,690,o),
(421,690,cs),
(367,690,o),
(288,702,o),
(221,702,cs),
(176,702,o),
(137,696,o),
(115,678,cs),
(97,663,o),
(66,553,o),
(66,517,cs),
(66,510,o),
(67,506,o),
(70,506,cs),
(71,506,o),
(72,507,o),
(73,508,cs),
(92,523,o),
(125,528,o),
(165,528,cs),
(228,528,o),
(306,516,o),
(364,516,cs),
(395,516,o),
(421,519,o),
(435,530,cs)
);
},
{
closed = 1;
nodes = (
(366,737,o),
(371,735,o),
(376,735,cs),
(406,735,o),
(464,776,o),
(464,799,cs),
(464,803,o),
(463,805,o),
(461,808,c),
(375,900,l),
(371,902,o),
(367,904,o),
(362,904,cs),
(332,904,o),
(273,864,o),
(273,840,cs),
(273,837,o),
(274,834,o),
(276,831,c),
(362,740,l),
(362,740,l)
);
},
{
closed = 1;
nodes = (
(342,867,o),
(344,872,o),
(344,876,cs),
(344,882,o),
(338,884,o),
(331,884,cs),
(317,884,o),
(294,875,o),
(281,858,cs),
(204,761,ls),
(199,755,o),
(197,749,o),
(197,745,cs),
(197,739,o),
(202,736,o),
(210,736,cs),
(224,736,o),
(246,746,o),
(260,763,cs),
(336,860,l),
(336,860,l)
);
},
{
closed = 1;
nodes = (
(569,857,o),
(529,942,o),
(529,942,c),
(510,969,o),
(434,992,o),
(394,992,cs),
(379,992,o),
(369,988,o),
(369,981,cs),
(369,978,o),
(370,974,o),
(373,971,c),
(377,965,o),
(484,848,o),
(484,848,c),
(493,834,o),
(530,825,o),
(555,825,cs),
(574,825,o),
(587,830,o),
(580,840,cs)
);
}
);
};
layerId = m01;
shapes = (
{
ref = E;
},
{
pos = (235,221);
ref = circumflexcomb_gravecomb;
}
);
width = 505;
}
);
unicode = 7872;
},
{
glyphname = Ecircumflexhookabove;
lastChange = "2024-05-10 13:09:07 +0000";
layers = (
{
background = {
anchors = (
{
name = bottom;
pos = (198,2);
},
{
name = left;
pos = (233,824);
},
{
name = ogonek;
pos = (407,0);
},
{
name = right;
pos = (494,853);
},
{
name = top;
pos = (524,1050);
},
{
name = topleft;
pos = (39,700);
}
);
shapes = (
{
closed = 1;
nodes = (
(195,640,o),
(192,642,o),
(188,642,cs),
(169,642,o),
(112,597,o),
(110,575,cs),
(91,386,o),
(59,197,o),
(40,6,cs),
(39,-6,o),
(45,-8,o),
(50,-8,cs),
(53,-8,o),
(57,-7,o),
(58,-7,c),
(87,5,o),
(105,15,o),
(129,15,cs),
(143,15,o),
(158,12,o),
(179,4,cs),
(199,-4,o),
(230,-13,o),
(265,-13,cs),
(281,-13,o),
(298,-11,o),
(315,-6,cs),
(344,2,o),
(451,146,o),
(417,136,cs),
(404,132,o),
(390,131,o),
(376,131,cs),
(341,131,o),
(306,140,o),
(285,148,cs),
(266,156,o),
(248,159,o),
(230,159,cs),
(200,159,o),
(171,150,o),
(138,137,c),
(156,124,l),
(173,293,o),
(177,464,o),
(194,635,cs)
);
},
{
closed = 1;
nodes = (
(88,438,o),
(42,314,o),
(42,278,cs),
(42,272,o),
(43,268,o),
(46,268,cs),
(369,269,ls),
(386,269,o),
(433,392,o),
(433,429,cs),
(433,435,o),
(432,439,o),
(429,439,cs),
(106,438,l),
(106,438,l)
);
},
{
closed = 1;
nodes = (
(452,542,o),
(485,654,o),
(485,690,cs),
(485,697,o),
(484,702,o),
(481,702,cs),
(480,702,o),
(479,701,o),
(477,700,cs),
(467,693,o),
(447,690,o),
(421,690,cs),
(367,690,o),
(288,702,o),
(221,702,cs),
(176,702,o),
(137,696,o),
(115,678,cs),
(97,663,o),
(66,553,o),
(66,517,cs),
(66,510,o),
(67,506,o),
(70,506,cs),
(71,506,o),
(72,507,o),
(73,508,cs),
(92,523,o),
(125,528,o),
(165,528,cs),
(228,528,o),
(306,516,o),
(364,516,cs),
(395,516,o),
(421,519,o),
(435,530,cs)
);
},
{
closed = 1;
nodes = (
(366,737,o),
(371,735,o),
(376,735,cs),
(406,735,o),
(464,776,o),
(464,799,cs),
(464,803,o),
(463,805,o),
(461,808,c),
(375,900,l),
(371,902,o),
(367,904,o),
(362,904,cs),
(332,904,o),
(273,864,o),
(273,840,cs),
(273,837,o),
(274,834,o),
(276,831,c),
(362,740,l),
(362,740,l)
);
},
{
closed = 1;
nodes = (
(342,867,o),
(344,872,o),
(344,876,cs),
(344,882,o),
(338,884,o),
(331,884,cs),
(317,884,o),
(294,875,o),
(281,858,cs),
(204,761,ls),
(199,755,o),
(197,749,o),
(197,745,cs),
(197,739,o),
(202,736,o),
(210,736,cs),
(224,736,o),
(246,746,o),
(260,763,cs),
(336,860,l),
(336,860,l)
);
},
{
closed = 1;
nodes = (
(466,874,o),
(464,869,o),
(464,866,cs),
(464,862,o),
(468,860,o),
(474,860,cs),
(493,860,o),
(533,876,o),
(554,900,cs),
(577,926,o),
(586,949,o),
(586,969,cs),
(586,1014,o),
(539,1041,o),
(499,1041,cs),
(493,1041,o),
(488,1040,o),
(483,1039,cs),
(460,1035,o),
(414,954,o),
(414,926,cs),
(414,920,o),
(416,916,o),
(421,916,cs),
(422,916,o),
(424,917,o),
(425,917,cs),
(441,920,o),
(455,922,o),
(467,922,cs),
(481,922,o),
(490,919,o),
(490,910,cs),
(490,904,o),
(484,894,o),
(472,880,cs)
);
}
);
};
layerId = m01;
shapes = (
{
ref = E;
},
{
pos = (132,221);
ref = circumflexcomb_hookabovecomb;
}
);
width = 505;
}
);
unicode = 7874;
},
{
glyphname = Ecircumflextilde;
lastChange = "2024-05-10 13:09:07 +0000";
layers = (
{
background = {
anchors = (
{
name = bottom;
pos = (198,2);
},
{
name = left;
pos = (233,824);
},
{
name = ogonek;
pos = (407,0);
},
{
name = right;
pos = (494,853);
},
{
name = top;
pos = (397,1123);
},
{
name = topleft;
pos = (39,700);
}
);
shapes = (
{
closed = 1;
nodes = (
(195,640,o),
(192,642,o),
(188,642,cs),
(169,642,o),
(112,597,o),
(110,575,cs),
(91,386,o),
(59,197,o),
(40,6,cs),
(39,-6,o),
(45,-8,o),
(50,-8,cs),
(53,-8,o),
(57,-7,o),
(58,-7,c),
(87,5,o),
(105,15,o),
(129,15,cs),
(143,15,o),
(158,12,o),
(179,4,cs),
(199,-4,o),
(230,-13,o),
(265,-13,cs),
(281,-13,o),
(298,-11,o),
(315,-6,cs),
(344,2,o),
(451,146,o),
(417,136,cs),
(404,132,o),
(390,131,o),
(376,131,cs),
(341,131,o),
(306,140,o),
(285,148,cs),
(266,156,o),
(248,159,o),
(230,159,cs),
(200,159,o),
(171,150,o),
(138,137,c),
(156,124,l),
(173,293,o),
(177,464,o),
(194,635,cs)
);
},
{
closed = 1;
nodes = (
(88,438,o),
(42,314,o),
(42,278,cs),
(42,272,o),
(43,268,o),
(46,268,cs),
(369,269,ls),
(386,269,o),
(433,392,o),
(433,429,cs),
(433,435,o),
(432,439,o),
(429,439,cs),
(106,438,l),
(106,438,l)
);
},
{
closed = 1;
nodes = (
(452,542,o),
(485,654,o),
(485,690,cs),
(485,697,o),
(484,702,o),
(481,702,cs),
(480,702,o),
(479,701,o),
(477,700,cs),
(467,693,o),
(447,690,o),
(421,690,cs),
(367,690,o),
(288,702,o),
(221,702,cs),
(176,702,o),
(137,696,o),
(115,678,cs),
(97,663,o),
(66,553,o),
(66,517,cs),
(66,510,o),
(67,506,o),
(70,506,cs),
(71,506,o),
(72,507,o),
(73,508,cs),
(92,523,o),
(125,528,o),
(165,528,cs),
(228,528,o),
(306,516,o),
(364,516,cs),
(395,516,o),
(421,519,o),
(435,530,cs)
);
},
{
closed = 1;
nodes = (
(366,755,o),
(371,753,o),
(376,753,cs),
(406,753,o),
(464,793,o),
(464,817,cs),
(464,820,o),
(464,823,o),
(462,826,c),
(375,918,l),
(372,920,o),
(367,922,o),
(362,922,cs),
(332,922,o),
(274,882,o),
(274,858,cs),
(274,855,o),
(275,852,o),
(276,849,c),
(363,757,l),
(363,757,l)
);
},
{
closed = 1;
nodes = (
(342,885,o),
(344,890,o),
(344,894,cs),
(344,900,o),
(338,902,o),
(331,902,cs),
(317,902,o),
(294,893,o),
(281,876,cs),
(204,779,ls),
(199,773,o),
(197,767,o),
(197,763,cs),
(197,756,o),
(203,754,o),
(211,754,cs),
(224,754,o),
(247,764,o),
(260,781,cs),
(337,878,l),
(337,878,l)
);
},
{
closed = 1;
nodes = (
(444,991,o),
(457,1031,o),
(457,1049,cs),
(457,1055,o),
(455,1059,o),
(453,1059,cs),
(450,1059,o),
(445,1057,o),
(441,1052,cs),
(431,1041,o),
(420,1034,o),
(408,1034,cs),
(405,1034,o),
(402,1034,o),
(399,1034,c),
(383,1039,o),
(371,1072,o),
(347,1080,c),
(344,1082,o),
(339,1083,o),
(334,1083,cs),
(319,1083,o),
(299,1076,o),
(272,1047,cs),
(255,1029,o),
(242,990,o),
(242,973,cs),
(242,966,o),
(243,962,o),
(246,962,cs),
(249,962,o),
(253,965,o),
(258,971,cs),
(276,989,o),
(286,995,o),
(294,995,cs),
(298,995,o),
(300,994,o),
(302,993,cs),
(318,988,o),
(331,954,o),
(354,947,cs),
(359,945,o),
(364,944,o),
(370,944,cs),
(388,944,o),
(407,953,o),
(426,974,cs)
);
}
);
};
layerId = m01;
shapes = (
{
ref = E;
},
{
pos = (157,221);
ref = circumflexcomb_tildecomb;
}
);
width = 505;
}
);
unicode = 7876;
},
{
glyphname = Edieresis;
lastChange = "2024-05-10 13:09:07 +0000";
layers = (
{
background = {
anchors = (
{
name = bottom;
pos = (198,2);
},
{
name = ogonek;
pos = (407,0);
},
{
name = top;
pos = (324,921);
},
{
name = topleft;
pos = (39,700);
}
);
shapes = (
{
closed = 1;
nodes = (
(195,640,o),
(192,642,o),
(188,642,cs),
(169,642,o),
(112,597,o),
(110,575,cs),
(91,386,o),
(59,197,o),
(40,6,cs),
(39,-6,o),
(45,-8,o),
(50,-8,cs),
(53,-8,o),
(57,-7,o),
(58,-7,c),
(87,5,o),
(105,15,o),
(129,15,cs),
(143,15,o),
(158,12,o),
(179,4,cs),
(199,-4,o),
(230,-13,o),
(265,-13,cs),
(281,-13,o),
(298,-11,o),
(315,-6,cs),
(344,2,o),
(451,146,o),
(417,136,cs),
(404,132,o),
(390,131,o),
(376,131,cs),
(341,131,o),
(306,140,o),
(285,148,cs),
(266,156,o),
(248,159,o),
(230,159,cs),
(200,159,o),
(171,150,o),
(138,137,c),
(156,124,l),
(173,293,o),
(177,464,o),
(194,635,cs)
);
},
{
closed = 1;
nodes = (
(88,438,o),
(42,314,o),
(42,278,cs),
(42,272,o),
(43,268,o),
(46,268,cs),
(369,269,ls),
(386,269,o),
(433,392,o),
(433,429,cs),
(433,435,o),
(432,439,o),
(429,439,cs),
(106,438,l),
(106,438,l)
);
},
{
closed = 1;
nodes = (
(452,542,o),
(485,654,o),
(485,690,cs),
(485,697,o),
(484,702,o),
(481,702,cs),
(480,702,o),
(479,701,o),
(477,700,cs),
(467,693,o),
(447,690,o),
(421,690,cs),
(367,690,o),
(288,702,o),
(221,702,cs),
(176,702,o),
(137,696,o),
(115,678,cs),
(97,663,o),
(66,553,o),
(66,517,cs),
(66,510,o),
(67,506,o),
(70,506,cs),
(71,506,o),
(72,507,o),
(73,508,cs),
(92,523,o),
(125,528,o),
(165,528,cs),
(228,528,o),
(306,516,o),
(364,516,cs),
(395,516,o),
(421,519,o),
(435,530,cs)
);
},
{
closed = 1;
nodes = (
(225,931,o),
(124,832,o),
(134,821,cs),
(211,737,ls),
(220,726,o),
(321,826,o),
(310,837,cs),
(234,921,l),
(234,921,l)
);
},
{
closed = 1;
nodes = (
(421,933,o),
(320,834,o),
(330,823,cs),
(407,739,ls),
(416,728,o),
(517,828,o),
(506,839,cs),
(430,923,l),
(430,923,l)
);
}
);
};
layerId = m01;
shapes = (
{
ref = E;
},
{
pos = (84,221);
ref = dieresiscomb;
}
);
width = 505;
}
);
unicode = 203;
},
{
glyphname = Edotaccent;
lastChange = "2024-05-10 13:09:07 +0000";
layers = (
{
background = {
anchors = (
{
name = bottom;
pos = (198,2);
},
{
name = ogonek;
pos = (407,0);
},
{
name = top;
pos = (331,928);
},
{
name = topleft;
pos = (39,700);
}
);
shapes = (
{
closed = 1;
nodes = (
(195,640,o),
(192,642,o),
(188,642,cs),
(169,642,o),
(112,597,o),
(110,575,cs),
(91,386,o),
(59,197,o),
(40,6,cs),
(39,-6,o),
(45,-8,o),
(50,-8,cs),
(53,-8,o),
(57,-7,o),
(58,-7,c),
(87,5,o),
(105,15,o),
(129,15,cs),
(143,15,o),
(158,12,o),
(179,4,cs),
(199,-4,o),
(230,-13,o),
(265,-13,cs),
(281,-13,o),
(298,-11,o),
(315,-6,cs),
(344,2,o),
(451,146,o),
(417,136,cs),
(404,132,o),
(390,131,o),
(376,131,cs),
(341,131,o),
(306,140,o),
(285,148,cs),
(266,156,o),
(248,159,o),
(230,159,cs),
(200,159,o),
(171,150,o),
(138,137,c),
(156,124,l),
(173,293,o),
(177,464,o),
(194,635,cs)
);
},
{
closed = 1;
nodes = (
(88,438,o),
(42,314,o),
(42,278,cs),
(42,272,o),
(43,268,o),
(46,268,cs),
(369,269,ls),
(386,269,o),
(433,392,o),
(433,429,cs),
(433,435,o),
(432,439,o),
(429,439,cs),
(106,438,l),
(106,438,l)
);
},
{
closed = 1;
nodes = (
(452,542,o),
(485,654,o),
(485,690,cs),
(485,697,o),
(484,702,o),
(481,702,cs),
(480,702,o),
(479,701,o),
(477,700,cs),
(467,693,o),
(447,690,o),
(421,690,cs),
(367,690,o),
(288,702,o),
(221,702,cs),
(176,702,o),
(137,696,o),
(115,678,cs),
(97,663,o),
(66,553,o),
(66,517,cs),
(66,510,o),
(67,506,o),
(70,506,cs),
(71,506,o),
(72,507,o),
(73,508,cs),
(92,523,o),
(125,528,o),
(165,528,cs),
(228,528,o),
(306,516,o),
(364,516,cs),
(395,516,o),
(421,519,o),
(435,530,cs)
);
},
{
closed = 1;
nodes = (
(321,932,o),
(220,833,o),
(230,822,cs),
(307,738,ls),
(316,727,o),
(417,827,o),
(406,838,cs),
(330,922,l),
(330,922,l)
);
}
);
};
layerId = m01;
shapes = (
{
ref = E;
},
{
pos = (180,225);
ref = dotaccentcomb;
}
);
width = 505;
}
);
unicode = 278;
},
{
glyphname = Edotbelow;
lastChange = "2024-05-10 13:09:07 +0000";
layers = (
{
background = {
anchors = (
{
name = bottom;
pos = (198,2);
},
{
name = ogonek;
pos = (407,0);
},
{
name = top;
pos = (314,721);
},
{
name = topleft;
pos = (39,700);
}
);
shapes = (
{
closed = 1;
nodes = (
(195,640,o),
(192,642,o),
(188,642,cs),
(169,642,o),
(112,597,o),
(110,575,cs),
(91,386,o),
(59,197,o),
(40,6,cs),
(39,-6,o),
(45,-8,o),
(50,-8,cs),
(53,-8,o),
(57,-7,o),
(58,-7,c),
(87,5,o),
(105,15,o),
(129,15,cs),
(143,15,o),
(158,12,o),
(179,4,cs),
(199,-4,o),
(230,-13,o),
(265,-13,cs),
(281,-13,o),
(298,-11,o),
(315,-6,cs),
(344,2,o),
(451,146,o),
(417,136,cs),
(404,132,o),
(390,131,o),
(376,131,cs),
(341,131,o),
(306,140,o),
(285,148,cs),
(266,156,o),
(248,159,o),
(230,159,cs),
(200,159,o),
(171,150,o),
(138,137,c),
(156,124,l),
(173,293,o),
(177,464,o),
(194,635,cs)
);
},
{
closed = 1;
nodes = (
(88,438,o),
(42,314,o),
(42,278,cs),
(42,272,o),
(43,268,o),
(46,268,cs),
(369,269,ls),
(386,269,o),
(433,392,o),
(433,429,cs),
(433,435,o),
(432,439,o),
(429,439,cs),
(106,438,l),
(106,438,l)
);
},
{
closed = 1;
nodes = (
(452,542,o),
(485,654,o),
(485,690,cs),
(485,697,o),
(484,702,o),
(481,702,cs),
(480,702,o),
(479,701,o),
(477,700,cs),
(467,693,o),
(447,690,o),
(421,690,cs),
(367,690,o),
(288,702,o),
(221,702,cs),
(176,702,o),
(137,696,o),
(115,678,cs),
(97,663,o),
(66,553,o),
(66,517,cs),
(66,510,o),
(67,506,o),
(70,506,cs),
(71,506,o),
(72,507,o),
(73,508,cs),
(92,523,o),
(125,528,o),
(165,528,cs),
(228,528,o),
(306,516,o),
(364,516,cs),
(395,516,o),
(421,519,o),
(435,530,cs)
);
},
{
closed = 1;
nodes = (
(191,-41,o),
(101,-130,o),
(110,-140,cs),
(179,-216,ls),
(187,-226,o),
(278,-136,o),
(269,-126,cs),
(200,-51,l),
(200,-51,l)
);
}
);
};
layerId = m01;
shapes = (
{
ref = E;
},
{
pos = (83,2);
ref = dotbelowcomb;
}
);
width = 505;
}
);
unicode = 7864;
},
{
glyphname = Egrave;
lastChange = "2024-05-10 13:09:07 +0000";
layers = (
{
background = {
anchors = (
{
name = bottom;
pos = (198,2);
},
{
name = ogonek;
pos = (407,0);
},
{
name = top;
pos = (254,921);
},
{
name = topleft;
pos = (39,700);
}
);
shapes = (
{
closed = 1;
nodes = (
(195,640,o),
(192,642,o),
(188,642,cs),
(169,642,o),
(112,597,o),
(110,575,cs),
(91,386,o),
(59,197,o),
(40,6,cs),
(39,-6,o),
(45,-8,o),
(50,-8,cs),
(53,-8,o),
(57,-7,o),
(58,-7,c),
(87,5,o),
(105,15,o),
(129,15,cs),
(143,15,o),
(158,12,o),
(179,4,cs),
(199,-4,o),
(230,-13,o),
(265,-13,cs),
(281,-13,o),
(298,-11,o),
(315,-6,cs),
(344,2,o),
(451,146,o),
(417,136,cs),
(404,132,o),
(390,131,o),
(376,131,cs),
(341,131,o),
(306,140,o),
(285,148,cs),
(266,156,o),
(248,159,o),
(230,159,cs),
(200,159,o),
(171,150,o),
(138,137,c),
(156,124,l),
(173,293,o),
(177,464,o),
(194,635,cs)
);
},
{
closed = 1;
nodes = (
(88,438,o),
(42,314,o),
(42,278,cs),
(42,272,o),
(43,268,o),
(46,268,cs),
(369,269,ls),
(386,269,o),
(433,392,o),
(433,429,cs),
(433,435,o),
(432,439,o),
(429,439,cs),
(106,438,l),
(106,438,l)
);
},
{
closed = 1;
nodes = (
(452,542,o),
(485,654,o),
(485,690,cs),
(485,697,o),
(484,702,o),
(481,702,cs),
(480,702,o),
(479,701,o),
(477,700,cs),
(467,693,o),
(447,690,o),
(421,690,cs),
(367,690,o),
(288,702,o),
(221,702,cs),
(176,702,o),
(137,696,o),
(115,678,cs),
(97,663,o),
(66,553,o),
(66,517,cs),
(66,510,o),
(67,506,o),
(70,506,cs),
(71,506,o),
(72,507,o),
(73,508,cs),
(92,523,o),
(125,528,o),
(165,528,cs),
(228,528,o),
(306,516,o),
(364,516,cs),
(395,516,o),
(421,519,o),
(435,530,cs)
);
},
{
closed = 1;
nodes = (
(318,780,o),
(274,875,o),
(274,875,c),
(252,905,o),
(168,930,o),
(124,930,cs),
(107,930,o),
(96,926,o),
(96,918,cs),
(96,915,o),
(97,911,o),
(100,907,cs),
(105,900,o),
(224,770,o),
(224,770,c),
(234,755,o),
(275,745,o),
(303,745,cs),
(324,745,o),
(338,750,o),
(330,762,cs)
);
}
);
};
guides = (
{
pos = (570,910);
},
{
pos = (347,726);
}
);
layerId = m01;
shapes = (
{
ref = E;
},
{
pos = (96,221);
ref = gravecomb;
}
);
width = 505;
}
);
unicode = 200;
},
{
glyphname = Ehookabove;
lastChange = "2024-05-10 13:09:07 +0000";
layers = (
{
background = {
anchors = (
{
name = bottom;
pos = (198,2);
},
{
name = ogonek;
pos = (407,0);
},
{
name = top;
pos = (314,919);
},
{
name = topleft;
pos = (39,700);
}
);
shapes = (
{
closed = 1;
nodes = (
(195,640,o),
(192,642,o),
(188,642,cs),
(169,642,o),
(112,597,o),
(110,575,cs),
(91,386,o),
(59,197,o),
(40,6,cs),
(39,-6,o),
(45,-8,o),
(50,-8,cs),
(53,-8,o),
(57,-7,o),
(58,-7,c),
(87,5,o),
(105,15,o),
(129,15,cs),
(143,15,o),
(158,12,o),
(179,4,cs),
(199,-4,o),
(230,-13,o),
(265,-13,cs),
(281,-13,o),
(298,-11,o),
(315,-6,cs),
(344,2,o),
(451,146,o),
(417,136,cs),
(404,132,o),
(390,131,o),
(376,131,cs),
(341,131,o),
(306,140,o),
(285,148,cs),
(266,156,o),
(248,159,o),
(230,159,cs),
(200,159,o),
(171,150,o),
(138,137,c),
(156,124,l),
(173,293,o),
(177,464,o),
(194,635,cs)
);
},
{
closed = 1;
nodes = (
(88,438,o),
(42,314,o),
(42,278,cs),
(42,272,o),
(43,268,o),
(46,268,cs),
(369,269,ls),
(386,269,o),
(433,392,o),
(433,429,cs),
(433,435,o),
(432,439,o),
(429,439,cs),
(106,438,l),
(106,438,l)
);
},
{
closed = 1;
nodes = (
(452,542,o),
(485,654,o),
(485,690,cs),
(485,697,o),
(484,702,o),
(481,702,cs),
(480,702,o),
(479,701,o),
(477,700,cs),
(467,693,o),
(447,690,o),
(421,690,cs),
(367,690,o),
(288,702,o),
(221,702,cs),
(176,702,o),
(137,696,o),
(115,678,cs),
(97,663,o),
(66,553,o),
(66,517,cs),
(66,510,o),
(67,506,o),
(70,506,cs),
(71,506,o),
(72,507,o),
(73,508,cs),
(92,523,o),
(125,528,o),
(165,528,cs),
(228,528,o),
(306,516,o),
(364,516,cs),
(395,516,o),
(421,519,o),
(435,530,cs)
);
},
{
closed = 1;
nodes = (
(292,750,o),
(290,745,o),
(290,742,cs),
(290,738,o),
(294,736,o),
(300,736,cs),
(319,736,o),
(359,752,o),
(380,776,cs),
(403,802,o),
(412,825,o),
(412,845,cs),
(412,890,o),
(365,917,o),
(325,917,cs),
(319,917,o),
(314,916,o),
(309,915,cs),
(286,911,o),
(240,830,o),
(240,802,cs),
(240,796,o),
(242,792,o),
(247,792,cs),
(248,792,o),
(250,793,o),
(251,793,cs),
(267,796,o),
(281,798,o),
(293,798,cs),
(307,798,o),
(316,795,o),
(316,786,cs),
(316,780,o),
(310,770,o),
(298,756,cs)
);
}
);
};
layerId = m01;
shapes = (
{
ref = E;
},
{
pos = (190,220);
ref = hookabovecomb;
}
);
width = 505;
}
);
unicode = 7866;
},
{
glyphname = Emacron;
lastChange = "2024-05-10 13:09:07 +0000";
layers = (
{
background = {
anchors = (
{
name = bottom;
pos = (198,2);
},
{
name = ogonek;
pos = (407,0);
},
{
name = top;
pos = (353,890);
},
{
name = topleft;
pos = (39,700);
}
);
shapes = (
{
closed = 1;
nodes = (
(195,640,o),
(192,642,o),
(188,642,cs),
(169,642,o),
(112,597,o),
(110,575,cs),
(91,386,o),
(59,197,o),
(40,6,cs),
(39,-6,o),
(45,-8,o),
(50,-8,cs),
(53,-8,o),
(57,-7,o),
(58,-7,c),
(87,5,o),
(105,15,o),
(129,15,cs),
(143,15,o),
(158,12,o),
(179,4,cs),
(199,-4,o),
(230,-13,o),
(265,-13,cs),
(281,-13,o),
(298,-11,o),
(315,-6,cs),
(344,2,o),
(451,146,o),
(417,136,cs),
(404,132,o),
(390,131,o),
(376,131,cs),
(341,131,o),
(306,140,o),
(285,148,cs),
(266,156,o),
(248,159,o),
(230,159,cs),
(200,159,o),
(171,150,o),
(138,137,c),
(156,124,l),
(173,293,o),
(177,464,o),
(194,635,cs)
);
},
{
closed = 1;
nodes = (
(88,438,o),
(42,314,o),
(42,278,cs),
(42,272,o),
(43,268,o),
(46,268,cs),
(369,269,ls),
(386,269,o),
(433,392,o),
(433,429,cs),
(433,435,o),
(432,439,o),
(429,439,cs),
(106,438,l),
(106,438,l)
);
},
{
closed = 1;
nodes = (
(452,542,o),
(485,654,o),
(485,690,cs),
(485,697,o),
(484,702,o),
(481,702,cs),
(480,702,o),
(479,701,o),
(477,700,cs),
(467,693,o),
(447,690,o),
(421,690,cs),
(367,690,o),
(288,702,o),
(221,702,cs),
(176,702,o),
(137,696,o),
(115,678,cs),
(97,663,o),
(66,553,o),
(66,517,cs),
(66,510,o),
(67,506,o),
(70,506,cs),
(71,506,o),
(72,507,o),
(73,508,cs),
(92,523,o),
(125,528,o),
(165,528,cs),
(228,528,o),
(306,516,o),
(364,516,cs),
(395,516,o),
(421,519,o),
(435,530,cs)
);
},
{
closed = 1;
nodes = (
(225,881,o),
(193,801,o),
(193,770,cs),
(193,763,o),
(195,759,o),
(199,759,cs),
(430,757,ls),
(446,757,o),
(478,837,o),
(478,867,cs),
(478,875,o),
(476,879,o),
(472,879,cs),
(241,881,l),
(241,881,l)
);
}
);
};
layerId = m01;
shapes = (
{
ref = E;
},
{
pos = (193,221);
ref = macroncomb;
}
);
width = 505;
}
);
unicode = 274;
},
{
glyphname = Emacronacute;
lastChange = "2024-05-10 13:09:07 +0000";
layers = (
{
background = {
anchors = (
{
name = bottom;
pos = (198,2);
},
{
name = ogonek;
pos = (407,0);
},
{
name = top;
pos = (443,1091);
},
{
name = topleft;
pos = (39,700);
}
);
shapes = (
{
closed = 1;
nodes = (
(195,640,o),
(192,642,o),
(188,642,cs),
(169,642,o),
(112,597,o),
(110,575,cs),
(91,386,o),
(59,197,o),
(40,6,cs),
(39,-6,o),
(45,-8,o),
(50,-8,cs),
(53,-8,o),
(57,-7,o),
(58,-7,c),
(87,5,o),
(105,15,o),
(129,15,cs),
(143,15,o),
(158,12,o),
(179,4,cs),
(199,-4,o),
(230,-13,o),
(265,-13,cs),
(281,-13,o),
(298,-11,o),
(315,-6,cs),
(344,2,o),
(451,146,o),
(417,136,cs),
(404,132,o),
(390,131,o),
(376,131,cs),
(341,131,o),
(306,140,o),
(285,148,cs),
(266,156,o),
(248,159,o),
(230,159,cs),
(200,159,o),
(171,150,o),
(138,137,c),
(156,124,l),
(173,293,o),
(177,464,o),
(194,635,cs)
);
},
{
closed = 1;
nodes = (
(88,438,o),
(42,314,o),
(42,278,cs),
(42,272,o),
(43,268,o),
(46,268,cs),
(369,269,ls),
(386,269,o),
(433,392,o),
(433,429,cs),
(433,435,o),
(432,439,o),
(429,439,cs),
(106,438,l),
(106,438,l)
);
},
{
closed = 1;
nodes = (
(452,542,o),
(485,654,o),
(485,690,cs),
(485,697,o),
(484,702,o),
(481,702,cs),
(480,702,o),
(479,701,o),
(477,700,cs),
(467,693,o),
(447,690,o),
(421,690,cs),
(367,690,o),
(288,702,o),
(221,702,cs),
(176,702,o),
(137,696,o),
(115,678,cs),
(97,663,o),
(66,553,o),
(66,517,cs),
(66,510,o),
(67,506,o),
(70,506,cs),
(71,506,o),
(72,507,o),
(73,508,cs),
(92,523,o),
(125,528,o),
(165,528,cs),
(228,528,o),
(306,516,o),
(364,516,cs),
(395,516,o),
(421,519,o),
(435,530,cs)
);
},
{
closed = 1;
nodes = (
(225,881,o),
(193,801,o),
(193,770,cs),
(193,763,o),
(195,759,o),
(199,759,cs),
(430,757,ls),
(446,757,o),
(478,837,o),
(478,867,cs),
(478,875,o),
(476,879,o),
(472,879,cs),
(241,881,l),
(241,881,l)
);
},
{
closed = 1;
nodes = (
(291,919,o),
(305,914,o),
(326,914,cs),
(354,914,o),
(395,924,o),
(405,939,c),
(405,939,o),
(524,1069,o),
(529,1076,cs),
(532,1080,o),
(533,1084,o),
(533,1087,cs),
(533,1095,o),
(522,1099,o),
(505,1099,cs),
(461,1099,o),
(377,1074,o),
(355,1044,c),
(355,1044,o),
(311,949,o),
(299,931,cs)
);
}
);
};
layerId = m01;
shapes = (
{
ref = E;
},
{
pos = (143,221);
ref = macroncomb_acutecomb;
}
);
width = 505;
}
);
unicode = 7702;
},
{
glyphname = Emacrongrave;
lastChange = "2024-05-10 13:09:07 +0000";
layers = (
{
background = {
anchors = (
{
name = bottom;
pos = (198,2);
},
{
name = ogonek;
pos = (407,0);
},
{
name = top;
pos = (293,1090);
},
{
name = topleft;
pos = (39,700);
}
);
shapes = (
{
closed = 1;
nodes = (
(195,640,o),
(192,642,o),
(188,642,cs),
(169,642,o),
(112,597,o),
(110,575,cs),
(91,386,o),
(59,197,o),
(40,6,cs),
(39,-6,o),
(45,-8,o),
(50,-8,cs),
(53,-8,o),
(57,-7,o),
(58,-7,c),
(87,5,o),
(105,15,o),
(129,15,cs),
(143,15,o),
(158,12,o),
(179,4,cs),
(199,-4,o),
(230,-13,o),
(265,-13,cs),
(281,-13,o),
(298,-11,o),
(315,-6,cs),
(344,2,o),
(451,146,o),
(417,136,cs),
(404,132,o),
(390,131,o),
(376,131,cs),
(341,131,o),
(306,140,o),
(285,148,cs),
(266,156,o),
(248,159,o),
(230,159,cs),
(200,159,o),
(171,150,o),
(138,137,c),
(156,124,l),
(173,293,o),
(177,464,o),
(194,635,cs)
);
},
{
closed = 1;
nodes = (
(88,438,o),
(42,314,o),
(42,278,cs),
(42,272,o),
(43,268,o),
(46,268,cs),
(369,269,ls),
(386,269,o),
(433,392,o),
(433,429,cs),
(433,435,o),
(432,439,o),
(429,439,cs),
(106,438,l),
(106,438,l)
);
},
{
closed = 1;
nodes = (
(452,542,o),
(485,654,o),
(485,690,cs),
(485,697,o),
(484,702,o),
(481,702,cs),
(480,702,o),
(479,701,o),
(477,700,cs),
(467,693,o),
(447,690,o),
(421,690,cs),
(367,690,o),
(288,702,o),
(221,702,cs),
(176,702,o),
(137,696,o),
(115,678,cs),
(97,663,o),
(66,553,o),
(66,517,cs),
(66,510,o),
(67,506,o),
(70,506,cs),
(71,506,o),
(72,507,o),
(73,508,cs),
(92,523,o),
(125,528,o),
(165,528,cs),
(228,528,o),
(306,516,o),
(364,516,cs),
(395,516,o),
(421,519,o),
(435,530,cs)
);
},
{
closed = 1;
nodes = (
(225,881,o),
(193,801,o),
(193,770,cs),
(193,763,o),
(195,759,o),
(199,759,cs),
(430,757,ls),
(446,757,o),
(478,837,o),
(478,867,cs),
(478,875,o),
(476,879,o),
(472,879,cs),
(241,881,l),
(241,881,l)
);
},
{
closed = 1;
nodes = (
(357,939,o),
(313,1034,o),
(313,1034,c),
(291,1064,o),
(207,1089,o),
(163,1089,cs),
(146,1089,o),
(135,1085,o),
(135,1077,cs),
(135,1074,o),
(136,1070,o),
(139,1066,cs),
(144,1059,o),
(263,929,o),
(263,929,c),
(273,914,o),
(314,904,o),
(342,904,cs),
(363,904,o),
(377,909,o),
(369,921,cs)
);
}
);
};
layerId = m01;
shapes = (
{
ref = E;
},
{
pos = (135,221);
ref = macroncomb_gravecomb;
}
);
width = 505;
}
);
unicode = 7700;
},
{
glyphname = Eogonek;
lastChange = "2024-05-10 13:09:07 +0000";
layers = (
{
background = {
anchors = (
{
name = bottom;
pos = (198,2);
},
{
name = ogonek;
pos = (407,0);
},
{
name = top;
pos = (314,721);
},
{
name = topleft;
pos = (39,700);
}
);
shapes = (
{
closed = 1;
nodes = (
(195,640,o),
(192,642,o),
(188,642,cs),
(169,642,o),
(112,597,o),
(110,575,cs),
(91,386,o),
(59,197,o),
(40,6,cs),
(39,-6,o),
(45,-8,o),
(50,-8,cs),
(53,-8,o),
(57,-7,o),
(58,-7,c),
(87,5,o),
(105,15,o),
(129,15,cs),
(143,15,o),
(158,12,o),
(179,4,cs),
(199,-4,o),
(230,-13,o),
(265,-13,cs),
(281,-13,o),
(298,-11,o),
(315,-6,cs),
(344,2,o),
(451,146,o),
(417,136,cs),
(404,132,o),
(390,131,o),
(376,131,cs),
(341,131,o),
(306,140,o),
(285,148,cs),
(266,156,o),
(248,159,o),
(230,159,cs),
(200,159,o),
(171,150,o),
(138,137,c),
(156,124,l),
(173,293,o),
(177,464,o),
(194,635,cs)
);
},
{
closed = 1;
nodes = (
(88,438,o),
(42,314,o),
(42,278,cs),
(42,272,o),
(43,268,o),
(46,268,cs),
(369,269,ls),
(386,269,o),
(433,392,o),
(433,429,cs),
(433,435,o),
(432,439,o),
(429,439,cs),
(106,438,l),
(106,438,l)
);
},
{
closed = 1;
nodes = (
(452,542,o),
(485,654,o),
(485,690,cs),
(485,697,o),
(484,702,o),
(481,702,cs),
(480,702,o),
(479,701,o),
(477,700,cs),
(467,693,o),
(447,690,o),
(421,690,cs),
(367,690,o),
(288,702,o),
(221,702,cs),
(176,702,o),
(137,696,o),
(115,678,cs),
(97,663,o),
(66,553,o),
(66,517,cs),
(66,510,o),
(67,506,o),
(70,506,cs),
(71,506,o),
(72,507,o),
(73,508,cs),
(92,523,o),
(125,528,o),
(165,528,cs),
(228,528,o),
(306,516,o),
(364,516,cs),
(395,516,o),
(421,519,o),
(435,530,cs)
);
},
{
closed = 1;
nodes = (
(358,-233,o),
(403,-171,o),
(403,-148,cs),
(403,-142,o),
(401,-139,o),
(395,-139,cs),
(390,-139,o),
(381,-142,o),
(370,-149,cs),
(359,-155,o),
(349,-158,o),
(340,-158,cs),
(311,-158,o),
(292,-131,o),
(292,-92,cs),
(292,-57,o),
(309,-12,o),
(352,31,cs),
(399,77,o),
(411,102,o),
(400,102,cs),
(387,102,o),
(350,79,o),
(304,33,cs),
(185,-84,o),
(142,-168,o),
(142,-220,cs),
(142,-266,o),
(174,-288,o),
(218,-288,cs),
(247,-288,o),
(280,-278,o),
(312,-259,cs)
);
}
);
};
layerId = m01;
shapes = (
{
ref = E;
},
{
pos = (142,-35);
ref = ogonekcomb;
}
);
width = 505;
}
);
unicode = 280;
},
{
glyphname = Eopen;
lastChange = "2024-05-10 13:09:58 +0000";
layers = (
{
anchors = (
{
name = bottom;
pos = (145,0);
},
{
name = ogonek;
pos = (290,0);
},
{
name = top;
pos = (285,740);
}
);
background = {
anchors = (
{
name = bottom;
pos = (145,0);
},
{
name = ogonek;
pos = (290,0);
},
{
name = top;
pos = (285,740);
}
);
shapes = (
{
closed = 1;
nodes = (
(294,465,o),
(293,462,o),
(293,459,cs),
(293,457,o),
(294,456,o),
(296,456,cs),
(313,456,o),
(399,534,o),
(420,574,cs),
(425,586,o),
(428,599,o),
(428,613,cs),
(428,662,o),
(394,715,o),
(332,715,cs),
(298,715,o),
(256,700,o),
(208,660,cs),
(157,618,o),
(122,565,o),
(137,565,cs),
(142,565,o),
(154,572,o),
(174,588,cs),
(181,594,o),
(190,597,o),
(200,597,cs),
(243,597,o),
(304,551,o),
(304,500,cs),
(304,490,o),
(302,480,o),
(296,470,c)
);
},
{
closed = 1;
nodes = (
(194,629,o),
(193,631,o),
(190,631,cs),
(174,631,o),
(81,545,o),
(65,509,cs),
(50,476,o),
(40,437,o),
(40,401,cs),
(40,340,o),
(69,289,o),
(152,289,cs),
(166,289,o),
(181,291,o),
(198,294,cs),
(217,297,o),
(332,419,o),
(318,416,cs),
(301,413,o),
(287,412,o),
(274,412,cs),
(194,412,o),
(168,463,o),
(168,520,cs),
(168,555,o),
(178,593,o),
(191,623,cs)
);
},
{
closed = 1;
nodes = (
(237,87,o),
(170,4,o),
(188,4,cs),
(191,4,o),
(199,8,o),
(212,17,cs),
(376,133,o),
(429,229,o),
(429,298,cs),
(429,333,o),
(415,361,o),
(396,381,cs),
(382,394,o),
(254,268,o),
(268,253,cs),
(302,220,o),
(312,193,o),
(312,172,cs),
(312,141,o),
(290,124,o),
(288,123,cs)
);
},
{
closed = 1;
nodes = (
(227,315,o),
(228,318,o),
(228,320,cs),
(228,321,o),
(227,322,o),
(224,322,cs),
(203,322,o),
(103,269,o),
(75,238,cs),
(32,188,o),
(10,135,o),
(10,90,cs),
(10,32,o),
(47,-11,o),
(121,-11,cs),
(139,-11,o),
(159,-8,o),
(181,-3,cs),
(200,2,o),
(315,123,o),
(299,119,cs),
(274,113,o),
(253,110,o),
(235,110,cs),
(179,110,o),
(156,136,o),
(156,174,cs),
(156,213,o),
(182,264,o),
(223,310,cs)
);
}
);
};
layerId = m01;
shapes = (
{
closed = 1;
nodes = (
(139,-11,o),
(159,-8,o),
(181,-3,cs),
(184,-2,o),
(189,2,o),
(196,7,cs),
(212,17,ls),
(376,133,o),
(429,229,o),
(429,298,cs),
(429,333,o),
(415,361,o),
(396,381,cs),
(382,394,o),
(254,268,o),
(268,253,cs),
(302,220,o),
(312,193,o),
(312,172,cs),
(312,141,o),
(290,124,o),
(288,123,cs),
(276,114,l),
(261,111,o),
(247,110,o),
(235,110,cs),
(179,110,o),
(156,136,o),
(156,174,cs),
(156,213,o),
(182,264,o),
(223,310,cs),
(226,314,l),
(265,349,o),
(329,418,o),
(318,416,cs),
(301,413,o),
(287,412,o),
(274,412,cs),
(194,412,o),
(168,463,o),
(168,520,cs),
(168,544,o),
(173,569,o),
(180,592,c),
(186,595,o),
(193,597,o),
(200,597,cs),
(243,597,o),
(304,551,o),
(304,500,cs),
(304,490,o),
(302,480,o),
(296,470,c),
(294,465,o),
(293,462,o),
(293,459,cs),
(293,457,o),
(294,456,o),
(296,456,cs),
(313,456,o),
(399,534,o),
(420,574,cs),
(425,586,o),
(428,599,o),
(428,613,cs),
(428,662,o),
(394,715,o),
(332,715,cs),
(298,715,o),
(256,700,o),
(208,660,cs),
(189,644,o),
(172,627,o),
(160,612,c),
(126,584,o),
(76,534,o),
(65,509,cs),
(50,476,o),
(40,437,o),
(40,401,cs),
(40,341,o),
(68,291,o),
(147,289,c),
(118,272,o),
(88,253,o),
(75,238,cs),
(32,188,o),
(10,135,o),
(10,90,cs),
(10,32,o),
(47,-11,o),
(121,-11,cs)
);
}
);
width = 459;
}
);
unicode = 400;
},
{
glyphname = Esh;
lastChange = "2024-05-10 13:09:58 +0000";
layers = (
{
anchors = (
{
name = bottom;
pos = (165,0);
},
{
name = top;
pos = (305,740);
}
);
background = {
anchors = (
{
name = bottom;
pos = (165,0);
},
{
name = top;
pos = (305,740);
}
);
shapes = (
{
closed = 1;
nodes = (
(424,541,o),
(458,655,o),
(458,693,cs),
(458,700,o),
(457,705,o),
(454,705,cs),
(453,705,o),
(452,705,o),
(451,704,c),
(440,698,o),
(418,696,o),
(391,696,cs),
(340,696,o),
(269,703,o),
(207,703,cs),
(157,703,o),
(113,698,o),
(89,683,cs),
(75,674,o),
(38,562,o),
(38,523,cs),
(38,518,o),
(39,514,o),
(41,512,cs),
(97,442,o),
(149,371,o),
(208,296,c),
(228,357,l),
(157,281,o),
(120,249,o),
(38,161,cs),
(36,159,o),
(0,52,o),
(0,15,cs),
(0,8,o),
(1,3,o),
(5,3,cs),
(6,3,ls),
(16,5,o),
(31,5,o),
(49,5,cs),
(108,5,o),
(201,-3,o),
(273,-3,cs),
(315,-3,o),
(350,0,o),
(367,9,cs),
(384,18,o),
(418,132,o),
(418,170,cs),
(418,177,o),
(417,182,o),
(414,182,cs),
(413,182,o),
(412,182,o),
(411,181,c),
(392,171,o),
(346,168,o),
(292,168,cs),
(235,168,o),
(171,171,o),
(119,171,cs),
(89,171,o),
(64,170,o),
(48,167,c),
(16,9,l),
(95,94,o),
(219,235,o),
(310,331,cs),
(330,353,o),
(336,367,o),
(336,377,cs),
(336,384,o),
(333,389,o),
(330,392,cs),
(255,486,o),
(172,584,o),
(93,682,c),
(45,511,l),
(66,525,o),
(105,529,o),
(151,529,cs),
(211,529,o),
(281,522,o),
(335,522,cs),
(367,522,o),
(393,524,o),
(407,532,cs)
);
}
);
};
layerId = m01;
shapes = (
{
closed = 1;
nodes = (
(315,-3,o),
(350,0,o),
(367,9,cs),
(384,18,o),
(418,132,o),
(418,170,cs),
(418,177,o),
(417,182,o),
(414,182,cs),
(413,182,o),
(412,182,o),
(411,181,c),
(392,171,o),
(346,168,o),
(292,168,cs),
(163,170,l),
(214,227,o),
(266,284,o),
(310,331,cs),
(330,353,o),
(336,367,o),
(336,377,cs),
(336,384,o),
(333,389,o),
(330,392,cs),
(220,527,l),
(260,525,o),
(301,522,o),
(335,522,cs),
(367,522,o),
(393,524,o),
(407,532,cs),
(424,541,o),
(458,655,o),
(458,693,cs),
(458,700,o),
(457,705,o),
(454,705,cs),
(453,705,o),
(452,705,o),
(451,704,c),
(440,698,o),
(418,696,o),
(391,696,cs),
(340,696,o),
(269,703,o),
(207,703,cs),
(157,703,o),
(113,698,o),
(89,683,cs),
(75,674,o),
(38,562,o),
(38,523,cs),
(38,518,o),
(39,514,o),
(41,512,cs),
(92,449,o),
(139,385,o),
(191,318,c),
(141,267,o),
(104,232,o),
(38,161,cs),
(36,159,o),
(0,52,o),
(0,15,cs),
(0,8,o),
(1,3,o),
(5,3,cs),
(6,3,ls),
(16,5,o),
(31,5,o),
(49,5,cs),
(108,5,o),
(201,-3,o),
(273,-3,cs)
);
}
);
width = 458;
}
);
unicode = 425;
},
{
glyphname = Etilde;
lastChange = "2024-05-10 13:09:07 +0000";
layers = (
{
background = {
anchors = (
{
name = bottom;
pos = (198,2);
},
{
name = ogonek;
pos = (407,0);
},
{
name = top;
pos = (350,923);
},
{
name = topleft;
pos = (39,700);
}
);
shapes = (
{
closed = 1;
nodes = (
(195,640,o),
(192,642,o),
(188,642,cs),
(169,642,o),
(112,597,o),
(110,575,cs),
(91,386,o),
(59,197,o),
(40,6,cs),
(39,-6,o),
(45,-8,o),
(50,-8,cs),
(53,-8,o),
(57,-7,o),
(58,-7,c),
(87,5,o),
(105,15,o),
(129,15,cs),
(143,15,o),
(158,12,o),
(179,4,cs),
(199,-4,o),
(230,-13,o),
(265,-13,cs),
(281,-13,o),
(298,-11,o),
(315,-6,cs),
(344,2,o),
(451,146,o),
(417,136,cs),
(404,132,o),
(390,131,o),
(376,131,cs),
(341,131,o),
(306,140,o),
(285,148,cs),
(266,156,o),
(248,159,o),
(230,159,cs),
(200,159,o),
(171,150,o),
(138,137,c),
(156,124,l),
(173,293,o),
(177,464,o),
(194,635,cs)
);
},
{
closed = 1;
nodes = (
(88,438,o),
(42,314,o),
(42,278,cs),
(42,272,o),
(43,268,o),
(46,268,cs),
(369,269,ls),
(386,269,o),
(433,392,o),
(433,429,cs),
(433,435,o),
(432,439,o),
(429,439,cs),
(106,438,l),
(106,438,l)
);
},
{
closed = 1;
nodes = (
(452,542,o),
(485,654,o),
(485,690,cs),
(485,697,o),
(484,702,o),
(481,702,cs),
(480,702,o),
(479,701,o),
(477,700,cs),
(467,693,o),
(447,690,o),
(421,690,cs),
(367,690,o),
(288,702,o),
(221,702,cs),
(176,702,o),
(137,696,o),
(115,678,cs),
(97,663,o),
(66,553,o),
(66,517,cs),
(66,510,o),
(67,506,o),
(70,506,cs),
(71,506,o),
(72,507,o),
(73,508,cs),
(92,523,o),
(125,528,o),
(165,528,cs),
(228,528,o),
(306,516,o),
(364,516,cs),
(395,516,o),
(421,519,o),
(435,530,cs)
);
},
{
closed = 1;
nodes = (
(440,800,o),
(457,848,o),
(457,871,cs),
(457,878,o),
(455,883,o),
(451,883,cs),
(448,883,o),
(443,881,o),
(437,874,cs),
(425,861,o),
(411,852,o),
(397,852,cs),
(393,852,o),
(389,852,o),
(386,853,cs),
(366,859,o),
(350,900,o),
(322,910,cs),
(317,912,o),
(311,913,o),
(305,913,cs),
(287,913,o),
(262,904,o),
(228,868,cs),
(207,846,o),
(191,799,o),
(191,777,cs),
(191,769,o),
(193,764,o),
(197,764,cs),
(200,764,o),
(205,767,o),
(212,774,cs),
(234,797,o),
(246,804,o),
(256,804,cs),
(260,804,o),
(263,803,o),
(266,802,cs),
(285,795,o),
(301,754,o),
(330,745,cs),
(336,743,o),
(343,742,o),
(349,742,cs),
(371,742,o),
(395,753,o),
(419,778,cs)
);
}
);
};
layerId = m01;
shapes = (
{
ref = E;
},
{
pos = (141,221);
ref = tildecomb;
}
);
width = 505;
}
);
unicode = 7868;
},
{
glyphname = Eturned;
lastChange = "2024-05-10 13:09:58 +0000";
layers = (
{
anchors = (
{
name = bottom;
pos = (173,4);
},
{
name = top;
pos = (282,700);
}
);
background = {
anchors = (
{
name = bottom;
pos = (173,4);
},
{
name = top;
pos = (282,700);
}
);
shapes = (
{
closed = 1;
nodes = (
(428,235,o),
(475,358,o),
(475,395,cs),
(475,401,o),
(474,405,o),
(471,405,cs),
(148,404,ls),
(130,404,o),
(84,280,o),
(84,244,cs),
(84,238,o),
(85,234,o),
(88,234,cs),
(411,235,l),
(411,235,l)
);
},
{
closed = 1;
nodes = (
(66,633,o),
(34,521,o),
(34,484,cs),
(34,477,o),
(35,472,o),
(38,472,cs),
(39,472,o),
(40,472,o),
(41,473,cs),
(52,480,o),
(72,482,o),
(98,482,cs),
(150,482,o),
(224,473,o),
(288,473,cs),
(331,473,o),
(369,477,o),
(391,493,cs),
(409,505,o),
(441,615,o),
(441,653,cs),
(441,660,o),
(440,665,o),
(437,665,cs),
(436,665,o),
(435,664,o),
(433,663,cs),
(415,651,o),
(382,647,o),
(343,647,cs),
(283,647,o),
(209,656,o),
(153,656,cs),
(123,656,o),
(98,654,o),
(85,645,cs)
);
},
{
closed = 1;
nodes = (
(300,45,o),
(303,40,o),
(310,40,cs),
(336,40,o),
(412,128,o),
(417,173,cs),
(434,335,o),
(438,497,o),
(455,659,cs),
(456,664,o),
(453,666,o),
(449,666,cs),
(430,666,o),
(373,621,o),
(371,599,cs),
(352,419,o),
(320,237,o),
(301,57,cs)
);
},
{
closed = 1;
nodes = (
(319,4,o),
(413,130,o),
(391,130,cs),
(389,130,o),
(387,129,o),
(385,128,cs),
(370,121,o),
(355,118,o),
(340,118,cs),
(313,118,o),
(285,128,o),
(256,143,cs),
(234,154,o),
(214,162,o),
(192,162,cs),
(166,162,o),
(136,151,o),
(95,123,cs),
(54,94,o),
(10,19,o),
(10,-7,cs),
(10,-13,o),
(12,-17,o),
(17,-17,cs),
(22,-17,o),
(30,-14,o),
(41,-7,cs),
(54,3,o),
(74,12,o),
(98,12,cs),
(113,12,o),
(130,8,o),
(148,-1,cs),
(178,-16,o),
(203,-27,o),
(230,-27,cs),
(247,-27,o),
(266,-23,o),
(287,-12,cs)
);
}
);
};
layerId = m01;
shapes = (
{
closed = 1;
nodes = (
(247,-27,o),
(266,-23,o),
(287,-12,cs),
(313,1,o),
(378,84,o),
(392,117,c),
(405,137,o),
(415,158,o),
(417,173,cs),
(424,248,l),
(445,280,o),
(475,365,o),
(475,395,cs),
(475,401,o),
(474,405,o),
(471,405,cs),
(435,405,l),
(441,490,o),
(446,574,o),
(455,659,cs),
(456,664,o),
(453,666,o),
(449,666,cs),
(446,666,o),
(443,665,o),
(439,664,c),
(439,665,o),
(438,665,o),
(437,665,cs),
(436,665,o),
(435,664,o),
(433,663,cs),
(415,651,o),
(382,647,o),
(343,647,cs),
(283,647,o),
(209,656,o),
(153,656,cs),
(123,656,o),
(98,654,o),
(85,645,cs),
(66,633,o),
(34,521,o),
(34,484,cs),
(34,477,o),
(35,472,o),
(38,472,cs),
(39,472,o),
(40,472,o),
(41,473,cs),
(52,480,o),
(72,482,o),
(98,482,cs),
(150,482,o),
(224,473,o),
(288,473,cs),
(313,473,o),
(337,474,o),
(357,479,c),
(347,405,l),
(148,404,ls),
(130,404,o),
(84,280,o),
(84,244,cs),
(84,238,o),
(85,234,o),
(88,234,cs),
(323,235,l),
(308,122,l),
(291,126,o),
(274,134,o),
(256,143,cs),
(234,154,o),
(214,162,o),
(192,162,cs),
(166,162,o),
(136,151,o),
(95,123,cs),
(54,94,o),
(10,19,o),
(10,-7,cs),
(10,-13,o),
(12,-17,o),
(17,-17,cs),
(22,-17,o),
(30,-14,o),
(41,-7,cs),
(54,3,o),
(74,12,o),
(98,12,cs),
(113,12,o),
(130,8,o),
(148,-1,cs),
(178,-16,o),
(203,-27,o),
(230,-27,cs)
);
}
);
width = 510;
}
);
unicode = 398;
},
{
glyphname = Schwa;
lastChange = "2024-05-10 13:09:58 +0000";
layers = (
{
anchors = (
{
name = bottom;
pos = (151,0);
},
{
name = center;
pos = (222,350);
},
{
name = ogonek;
pos = (290,0);
},
{
name = top;
pos = (311,700);
},
{
name = topleft;
pos = (24,700);
},
{
name = topright;
pos = (330,700);
}
);
background = {
anchors = (
{
name = bottom;
pos = (151,0);
},
{
name = center;
pos = (222,350);
},
{
name = ogonek;
pos = (290,0);
},
{
name = top;
pos = (311,700);
},
{
name = topleft;
pos = (24,700);
},
{
name = topright;
pos = (330,700);
}
);
shapes = (
{
closed = 1;
nodes = (
(168,75,o),
(137,30,o),
(137,8,cs),
(137,-1,o),
(142,-6,o),
(151,-6,cs),
(164,-6,o),
(184,2,o),
(213,23,cs),
(316,96,o),
(438,232,o),
(438,403,cs),
(438,498,o),
(400,603,o),
(300,713,cs),
(286,729,o),
(189,544,o),
(204,527,cs),
(302,418,o),
(335,335,o),
(335,273,cs),
(335,161,o),
(228,118,o),
(221,113,cs)
);
},
{
closed = 1;
nodes = (
(154,368,o),
(152,371,o),
(146,371,cs),
(124,371,o),
(42,310,o),
(33,282,cs),
(17,234,o),
(5,187,o),
(5,144,cs),
(5,72,o),
(40,14,o),
(151,-6,cs),
(184,-12,o),
(308,96,o),
(308,128,cs),
(308,132,o),
(306,135,o),
(301,136,cs),
(180,158,o),
(135,204,o),
(135,274,cs),
(135,300,o),
(141,328,o),
(151,360,cs)
);
},
{
closed = 1;
nodes = (
(122,369,o),
(88,327,o),
(88,305,cs),
(88,297,o),
(92,292,o),
(103,292,cs),
(106,292,ls),
(141,294,o),
(357,294,o),
(365,294,cs),
(393,295,o),
(428,337,o),
(428,360,cs),
(428,368,o),
(423,374,o),
(411,374,c),
(411,374,o),
(184,373,o),
(150,370,cs)
);
}
);
};
layerId = m01;
shapes = (
{
closed = 1;
nodes = (
(157,-7,o),
(167,-4,o),
(179,2,cs),
(188,7,o),
(200,13,o),
(213,23,cs),
(316,96,o),
(438,232,o),
(438,403,cs),
(438,498,o),
(400,603,o),
(300,713,cs),
(286,729,o),
(189,544,o),
(204,527,cs),
(257,469,o),
(290,418,o),
(311,373,c),
(246,373,o),
(170,372,o),
(150,370,c),
(149,371,o),
(148,371,o),
(146,371,cs),
(124,371,o),
(42,310,o),
(33,282,cs),
(17,234,o),
(5,187,o),
(5,144,cs),
(5,74,o),
(39,16,o),
(144,-5,c),
(146,-6,o),
(148,-6,o),
(151,-6,cs)
);
},
{
closed = 1;
nodes = (
(172,167,o),
(135,211,o),
(135,274,cs),
(136,293,l),
(334,294,l),
(335,273,ls),
(335,209,o),
(300,168,o),
(269,143,c)
);
}
);
width = 473;
}
);
unicode = 399;
},
{
glyphname = Ezh;
lastChange = "2024-05-10 13:09:58 +0000";
layers = (
{
background = {
shapes = (
{
closed = 1;
nodes = (
(71,693,o),
(38,581,o),
(38,543,cs),
(38,536,o),
(39,531,o),
(42,531,cs),
(43,531,o),
(44,531,o),
(45,532,c),
(57,539,o),
(78,541,o),
(104,541,cs),
(156,541,o),
(230,532,o),
(293,532,cs),
(335,532,o),
(374,536,o),
(397,551,cs),
(415,562,o),
(448,674,o),
(448,711,cs),
(448,719,o),
(447,724,o),
(444,724,cs),
(443,724,o),
(442,724,o),
(441,723,c),
(420,710,o),
(385,706,o),
(346,706,cs),
(286,706,o),
(213,715,o),
(158,715,cs),
(128,715,o),
(104,713,o),
(89,704,cs)
);
},
{
closed = 1;
nodes = (
(155,17,o),
(135,-15,o),
(150,-15,cs),
(161,-15,o),
(189,2,o),
(233,40,cs),
(381,169,o),
(442,276,o),
(442,348,cs),
(442,412,o),
(395,448,o),
(320,448,cs),
(297,448,o),
(271,444,o),
(243,437,cs),
(212,429,o),
(71,273,o),
(109,283,cs),
(142,291,o),
(169,295,o),
(192,295,cs),
(257,295,o),
(279,262,o),
(279,220,cs),
(279,162,o),
(238,89,o),
(213,68,cs)
);
},
{
closed = 1;
nodes = (
(207,6,o),
(289,103,o),
(266,103,cs),
(263,103,o),
(258,102,o),
(252,98,c),
(225,85,o),
(201,79,o),
(181,79,cs),
(131,79,o),
(102,115,o),
(102,163,cs),
(102,179,o),
(105,195,o),
(111,212,cs),
(113,219,o),
(112,222,o),
(109,222,cs),
(90,222,o),
(3,141,o),
(-9,108,cs),
(-16,87,o),
(-20,67,o),
(-20,48,cs),
(-20,-4,o),
(7,-45,o),
(65,-45,cs),
(91,-45,o),
(124,-36,o),
(162,-16,cs)
);
},
{
closed = 1;
nodes = (
(403,554,o),
(411,568,o),
(411,577,cs),
(411,588,o),
(402,593,o),
(388,593,cs),
(367,593,o),
(333,579,o),
(300,550,cs),
(268,520,o),
(130,332,o),
(130,331,c),
(121,320,o),
(118,311,o),
(118,305,cs),
(118,296,o),
(125,292,o),
(137,292,cs),
(166,292,o),
(219,317,o),
(246,353,cs),
(384,536,l),
(384,536,l)
);
}
);
};
layerId = m01;
shapes = (
{
closed = 1;
nodes = (
(91,-45,o),
(124,-36,o),
(162,-16,cs),
(176,-9,o),
(194,5,o),
(211,22,c),
(233,40,ls),
(381,169,o),
(442,276,o),
(442,348,cs),
(442,412,o),
(395,448,o),
(320,448,cs),
(318,448,l),
(384,536,l),
(397,548,o),
(404,558,o),
(408,566,cs),
(426,601,o),
(448,681,o),
(448,711,cs),
(448,719,o),
(447,724,o),
(444,724,cs),
(443,724,o),
(442,724,o),
(441,723,c),
(420,710,o),
(385,706,o),
(346,706,cs),
(286,706,o),
(213,715,o),
(158,715,cs),
(128,715,o),
(104,713,o),
(89,704,cs),
(71,693,o),
(38,581,o),
(38,543,cs),
(38,536,o),
(39,531,o),
(42,531,cs),
(43,531,o),
(44,531,o),
(45,532,c),
(57,539,o),
(78,541,o),
(104,541,cs),
(153,541,o),
(223,533,o),
(284,532,c),
(236,476,o),
(130,332,o),
(130,331,c),
(127,327,o),
(124,324,o),
(123,320,c),
(104,296,o),
(96,279,o),
(109,283,cs),
(142,291,o),
(169,295,o),
(192,295,cs),
(257,295,o),
(279,262,o),
(279,220,cs),
(279,175,o),
(254,121,o),
(232,89,c),
(213,82,o),
(196,79,o),
(181,79,cs),
(131,79,o),
(102,115,o),
(102,163,cs),
(102,179,o),
(105,195,o),
(111,212,cs),
(113,219,o),
(112,222,o),
(109,222,cs),
(90,222,o),
(3,141,o),
(-9,108,cs),
(-16,87,o),
(-20,67,o),
(-20,48,cs),
(-20,-4,o),
(7,-45,o),
(65,-45,cs)
);
}
);
width = 478;
}
);
unicode = 439;
},
{
glyphname = F;
lastChange = "2024-05-10 13:09:58 +0000";
layers = (
{
anchors = (
{
name = left;
pos = (106,637);
}
);
background = {
anchors = (
{
name = left;
pos = (106,637);
}
);
shapes = (
{
closed = 1;
nodes = (
(180,648,o),
(178,650,o),
(175,650,cs),
(157,650,o),
(100,597,o),
(98,574,cs),
(48,68,ls),
(48,62,o),
(49,60,o),
(53,60,cs),
(71,60,o),
(128,114,o),
(130,136,cs),
(180,642,l),
(180,642,l)
);
},
{
closed = 1;
nodes = (
(434,555,o),
(463,661,o),
(463,697,cs),
(463,704,o),
(462,708,o),
(459,708,cs),
(458,708,o),
(456,707,o),
(454,705,cs),
(443,695,o),
(411,692,o),
(371,692,cs),
(314,692,o),
(241,698,o),
(186,698,cs),
(153,698,o),
(127,696,o),
(114,690,cs),
(96,680,o),
(55,563,o),
(55,529,cs),
(55,523,o),
(56,519,o),
(60,519,c),
(60,519,o),
(61,520,o),
(62,520,c),
(71,525,o),
(90,527,o),
(114,527,cs),
(169,527,o),
(252,518,o),
(317,518,cs),
(362,518,o),
(399,522,o),
(414,537,cs)
);
},
{
closed = 1;
nodes = (
(363,282,o),
(396,394,o),
(396,432,cs),
(396,440,o),
(395,445,o),
(392,445,cs),
(391,445,o),
(390,445,o),
(389,444,c),
(379,439,o),
(356,437,o),
(327,437,cs),
(280,437,o),
(218,441,o),
(168,441,cs),
(130,441,o),
(100,439,o),
(86,431,cs),
(68,420,o),
(35,308,o),
(35,270,cs),
(35,263,o),
(36,258,o),
(39,258,cs),
(40,258,o),
(41,258,o),
(42,259,c),
(53,265,o),
(78,267,o),
(110,267,cs),
(158,267,o),
(221,263,o),
(270,263,cs),
(305,263,o),
(333,265,o),
(345,272,cs)
);
},
{
closed = 1;
nodes = (
(29,148,o),
(-10,39,o),
(-10,8,cs),
(-10,2,o),
(-9,-1,o),
(-6,-1,cs),
(-5,-1,o),
(-3,0,o),
(-1,2,cs),
(17,18,o),
(47,28,o),
(76,28,cs),
(103,28,o),
(129,19,o),
(144,0,cs),
(158,-17,o),
(210,120,o),
(210,159,cs),
(210,163,o),
(209,166,o),
(208,168,c),
(192,188,o),
(165,198,o),
(135,198,cs),
(104,198,o),
(72,187,o),
(49,166,cs)
);
}
);
};
layerId = m01;
shapes = (
{
closed = 1;
nodes = (
(-5,-1,o),
(-3,0,o),
(-1,2,cs),
(17,18,o),
(47,28,o),
(76,28,cs),
(103,28,o),
(129,19,o),
(144,0,cs),
(158,-17,o),
(210,120,o),
(210,159,cs),
(210,163,o),
(209,166,o),
(208,168,c),
(192,188,o),
(166,198,o),
(136,198,c),
(143,267,l),
(185,265,o),
(232,263,o),
(270,263,cs),
(305,263,o),
(333,265,o),
(345,272,cs),
(363,282,o),
(396,394,o),
(396,432,cs),
(396,440,o),
(395,445,o),
(392,445,cs),
(391,445,o),
(390,445,o),
(389,444,c),
(379,439,o),
(356,437,o),
(327,437,cs),
(280,437,o),
(218,441,o),
(168,441,cs),
(160,441,l),
(168,525,l),
(216,522,o),
(271,518,o),
(317,518,cs),
(362,518,o),
(399,522,o),
(414,537,cs),
(434,555,o),
(463,661,o),
(463,697,cs),
(463,704,o),
(462,708,o),
(459,708,cs),
(458,708,o),
(456,707,o),
(454,705,cs),
(443,695,o),
(411,692,o),
(371,692,cs),
(314,692,o),
(241,698,o),
(186,698,cs),
(153,698,o),
(127,696,o),
(114,690,cs),
(96,680,o),
(55,563,o),
(55,529,cs),
(55,523,o),
(56,519,o),
(60,519,c),
(60,519,o),
(61,520,o),
(62,520,c),
(68,523,o),
(79,525,o),
(93,526,c),
(84,429,l),
(65,411,o),
(35,306,o),
(35,270,cs),
(35,263,o),
(36,258,o),
(39,258,cs),
(40,258,o),
(41,258,o),
(42,259,cs),
(47,262,o),
(56,264,o),
(67,265,c),
(58,174,l),
(49,166,ls),
(29,148,o),
(-10,39,o),
(-10,8,cs),
(-10,2,o),
(-9,-1,o),
(-6,-1,cs)
);
}
);
width = 442;
}
);
unicode = 70;
},
{
glyphname = Fhook;
lastChange = "2024-05-10 13:09:58 +0000";
layers = (
{
anchors = (
{
name = left;
pos = (260,637);
}
);
background = {
anchors = (
{
name = left;
pos = (260,637);
}
);
shapes = (
{
closed = 1;
nodes = (
(189,648,o),
(187,650,o),
(184,650,cs),
(166,650,o),
(109,597,o),
(107,574,cs),
(88,382,o),
(50,1,o),
(31,-191,cs),
(31,-196,o),
(32,-198,o),
(36,-198,cs),
(54,-198,o),
(111,-144,o),
(113,-122,cs),
(132,70,o),
(170,451,o),
(189,642,cs)
);
},
{
closed = 1;
nodes = (
(443,555,o),
(472,660,o),
(472,696,cs),
(472,707,o),
(470,712,o),
(463,705,cs),
(452,695,o),
(420,692,o),
(380,692,cs),
(323,692,o),
(250,698,o),
(195,698,cs),
(162,698,o),
(136,696,o),
(123,690,cs),
(105,680,o),
(64,563,o),
(64,529,cs),
(64,522,o),
(66,518,o),
(71,520,cs),
(80,525,o),
(99,527,o),
(123,527,cs),
(178,527,o),
(261,518,o),
(326,518,cs),
(371,518,o),
(408,522,o),
(423,537,cs)
);
},
{
closed = 1;
nodes = (
(372,282,o),
(405,394,o),
(405,432,cs),
(405,442,o),
(403,447,o),
(398,444,cs),
(388,439,o),
(365,437,o),
(336,437,cs),
(289,437,o),
(227,441,o),
(177,441,cs),
(139,441,o),
(109,439,o),
(95,431,cs),
(77,420,o),
(44,308,o),
(44,270,cs),
(44,261,o),
(46,256,o),
(51,259,cs),
(62,265,o),
(87,267,o),
(119,267,cs),
(167,267,o),
(230,263,o),
(279,263,cs),
(314,263,o),
(342,265,o),
(354,272,cs)
);
},
{
closed = 1;
nodes = (
(48,-214,o),
(111,-142,o),
(111,-122,cs),
(111,-118,o),
(109,-116,o),
(105,-116,cs),
(101,-116,o),
(94,-119,o),
(85,-123,cs),
(76,-128,o),
(68,-129,o),
(61,-129,cs),
(26,-129,o),
(2,-89,o),
(2,-53,cs),
(2,-46,o),
(3,-38,o),
(6,-31,cs),
(9,-21,o),
(6,-16,o),
(-1,-16,cs),
(-30,-16,o),
(-121,-81,o),
(-135,-120,cs),
(-139,-129,o),
(-140,-141,o),
(-140,-153,cs),
(-140,-198,o),
(-116,-254,o),
(-59,-254,cs),
(-42,-254,o),
(-22,-249,o),
(1,-237,cs)
);
}
);
};
layerId = m01;
shapes = (
{
closed = 1;
nodes = (
(-42,-254,o),
(-22,-249,o),
(1,-237,cs),
(33,-221,o),
(73,-182,o),
(95,-153,cs),
(105,-141,o),
(112,-130,o),
(113,-122,cs),
(152,267,l),
(193,265,o),
(240,263,o),
(279,263,cs),
(314,263,o),
(342,265,o),
(354,272,cs),
(372,282,o),
(405,394,o),
(405,432,cs),
(405,442,o),
(403,447,o),
(398,444,cs),
(388,439,o),
(365,437,o),
(336,437,cs),
(289,437,o),
(227,441,o),
(177,441,cs),
(169,441,l),
(177,525,l),
(225,523,o),
(280,518,o),
(326,518,cs),
(371,518,o),
(408,522,o),
(423,537,cs),
(443,555,o),
(472,660,o),
(472,696,cs),
(472,707,o),
(470,712,o),
(463,705,cs),
(452,695,o),
(420,692,o),
(380,692,cs),
(323,692,o),
(250,698,o),
(195,698,cs),
(162,698,o),
(136,696,o),
(123,690,cs),
(105,680,o),
(64,563,o),
(64,529,cs),
(64,522,o),
(66,518,o),
(71,520,cs),
(77,523,o),
(88,525,o),
(102,526,c),
(93,429,l),
(74,411,o),
(44,306,o),
(44,270,cs),
(44,261,o),
(46,256,o),
(51,259,cs),
(56,262,o),
(65,264,o),
(76,265,c),
(38,-123,l),
(16,-110,o),
(2,-80,o),
(2,-53,cs),
(2,-46,o),
(3,-38,o),
(6,-31,cs),
(9,-21,o),
(6,-16,o),
(-1,-16,cs),
(-30,-16,o),
(-121,-81,o),
(-135,-120,cs),
(-139,-129,o),
(-140,-141,o),
(-140,-153,cs),
(-140,-198,o),
(-116,-254,o),
(-59,-254,cs)
);
}
);
width = 451;
}
);
metricRight = F;
unicode = 401;
},
